<svg width="54" height="48" viewBox="0 0 54 48" fill="none" xmlns="http://www.w3.org/2000/svg">
<path d="M41.9511 10.5006L38.1878 25.9305L34.4245 10.5006H23.4618V16.2457C22.1528 11.3213 17.4078 10.0081 12.99 10.0081C7.75404 9.84398 1.86364 12.142 1.53639 19.2004H8.8994C8.8994 17.0665 10.8629 15.9174 12.6627 15.9174C14.9534 15.9174 15.9352 16.9023 16.0988 18.3797C15.9352 19.6928 15.2807 20.5136 12.6627 20.5136H10.2084V25.7663H12.4991C13.8081 25.7663 15.6079 26.4229 15.6079 28.2285C15.7715 30.3625 14.1353 31.3474 12.3355 31.3474C9.06302 31.1832 8.24491 28.721 8.24491 26.4229H0.554657C0.554657 27.9002 0.554657 37.585 12.4991 37.4208C18.2259 37.585 22.3164 35.1228 23.6254 31.8398V36.9284H30.9884V20.3494L34.9154 36.9284H41.6239L45.5508 20.3494V36.9284H53.0775V10.5006H41.9511ZM23.6254 25.9305C23.0292 24.5273 21.9153 23.4098 20.5166 22.8117C22.1528 22.1551 22.9709 21.1702 23.6254 19.3646V25.9305Z" fill="#EE1B2D"/>
</svg>
