<svg width="48" height="48" viewBox="0 0 48 48" fill="none" xmlns="http://www.w3.org/2000/svg">
<path d="M22.2572 1.21861C26.6169 0.863197 31.0754 1.82926 34.9045 3.9395C41.4343 7.45818 46.061 14.3213 46.7179 21.7284C47.2123 26.2929 46.2378 30.9962 44.0174 35.011C41.7953 39.055 38.3188 42.4038 34.1809 44.4517C30.9336 46.0891 27.2786 46.9161 23.6412 46.8362C18.659 46.794 13.7264 45.0116 9.82619 41.9178C6.46981 39.2552 3.87363 35.6465 2.45229 31.6015C0.236053 25.3807 0.888646 18.1897 4.26955 12.5071C6.53934 8.56783 10.0391 5.36246 14.132 3.39C16.6761 2.1729 19.4434 1.42012 22.2572 1.21861ZM18.2176 3.38968C14.2858 4.45141 10.6148 6.76477 8.28255 10.1441C6.71181 12.3661 5.80802 14.9971 5.34403 17.6601C5.12365 19.3221 5.03217 21.1352 5.8632 22.6537C6.24749 23.4079 6.91896 23.9779 7.24985 24.7609C7.56462 25.4557 7.34117 26.3955 6.66373 26.7914C6.02856 27.2472 5.13074 27.0729 4.5564 26.5986C3.72811 25.9489 3.37721 24.8888 3.20023 23.888C2.85062 21.6341 3.30461 19.3541 3.87912 17.1785C3.42948 17.3657 3.49466 17.9878 3.3251 18.3824C2.34306 22.1897 2.35033 26.2595 3.42658 30.0463C4.4433 33.6637 6.51885 37.0228 9.5153 39.3259C11.7722 41.1113 14.5381 42.1266 17.3374 42.6764C19.0256 42.9607 20.8619 43.0738 22.4442 42.3052C23.2288 41.912 23.8162 41.2273 24.5848 40.8111C25.2319 40.4746 26.0745 40.5846 26.5806 41.1184C27.1653 41.7015 27.1755 42.7006 26.6995 43.3535C26.1862 44.0526 25.3594 44.4411 24.543 44.666C22.7417 45.1169 20.8573 44.9141 19.0548 44.5865C18.3948 44.4819 17.7696 44.1889 17.0952 44.1905C17.4563 44.5474 17.9858 44.6097 18.4512 44.7491C21.9886 45.6206 25.7438 45.6264 29.287 44.7794C33.3641 43.7988 37.2224 41.5043 39.6441 38.0276C41.2136 35.8695 42.0778 33.2909 42.6119 30.7005C42.8961 28.7872 43.0397 26.6246 41.8779 24.9567C41.3368 24.1604 40.4679 23.3945 40.6421 22.3315C40.716 21.338 41.8286 20.7101 42.7422 21.0336C43.9358 21.4208 44.4943 22.7001 44.7382 23.8342C45.2021 26.1837 44.7411 28.5988 44.1202 30.8744C44.2826 30.8497 44.3826 30.7583 44.4202 30.6018C45.4908 27.2601 45.6764 23.6559 45.0585 20.2069C44.3492 16.1647 42.4812 12.2227 39.3731 9.47694C37.5077 7.77552 35.2089 6.57617 32.7779 5.91341C30.7534 5.31148 28.5618 4.89492 26.4717 5.4128C25.4434 5.6377 24.6443 6.35853 23.8206 6.96337C23.123 7.50142 22.006 7.53772 21.3767 6.87206C20.8096 6.26867 20.8619 5.27098 21.3505 4.63549C22.0002 3.77994 23.0752 3.38387 24.099 3.19979C25.7336 2.95617 27.4046 3.11557 29.0173 3.43759C29.6569 3.54794 30.2544 3.84238 30.9058 3.89013C30.7708 3.77704 30.6388 3.65087 30.4678 3.59715C26.5227 2.32375 22.2064 2.27583 18.2176 3.38968Z" fill="#FEFFFE"/>
<path d="M18.7567 11.4758C19.6386 11.0117 20.7655 10.8724 21.6647 11.3627C22.384 11.7746 22.6655 12.6666 22.5944 13.4541C22.4667 15.0176 21.7111 16.4592 20.7611 17.6805C19.7342 18.9221 18.4681 20.0215 16.9509 20.6103C17.0669 21.0947 17.4323 21.6109 17.9807 21.6083C18.9408 21.643 19.7733 21.0369 20.4638 20.4335C20.9599 20.0565 20.986 19.3965 21.218 18.8641C21.5558 18.0316 22.0158 17.1439 22.8539 16.7233C23.2471 16.5144 23.8476 16.4739 24.1188 16.8931C24.4145 17.4587 24.1462 18.1071 23.8619 18.619C23.4733 19.3616 22.8583 19.9432 22.3696 20.612C22.1854 21.2328 22.152 21.8854 22.1404 22.5294C22.8191 22.2292 23.4283 21.8013 24.068 21.4299C25.1805 20.7107 26.3349 20.0405 27.3677 19.208C27.4865 18.8061 27.3242 18.3681 27.343 17.9504C27.2793 15.9286 27.9784 13.856 29.3561 12.3607C30.2133 11.4573 31.5045 10.8205 32.7661 11.1381C33.5234 11.2759 34.1166 11.8909 34.3296 12.6145C34.5993 13.7067 34.2252 14.8482 33.6507 15.7779C32.6617 17.3254 31.2229 18.5075 29.7667 19.5952C29.9612 20.0796 30.2382 20.6294 30.7617 20.8091C31.5114 20.6655 32.2745 20.4609 33.0418 20.6134C33.5553 20.7207 34.1716 20.8744 34.4227 21.3864C34.6547 21.8852 34.211 22.3958 33.7556 22.551C32.7867 22.8672 31.7613 22.6888 30.7722 22.6133C29.5946 22.8947 28.5705 23.6736 27.8366 24.6224C26.6966 26.1205 26.3442 28.1031 26.592 29.9407C26.8285 31.4648 27.5942 33.0011 28.9402 33.8292C30.456 34.7996 32.6402 34.5936 33.8962 33.2839C35.0812 32.0611 35.4555 30.1145 34.7955 28.5439C34.5156 27.8537 33.9137 27.2649 33.1596 27.1474C32.279 26.9486 31.2333 27.5215 31.1058 28.4569C30.978 29.1762 31.4828 29.7726 31.9091 30.2873C32.2385 30.6283 32.2777 31.2577 31.8686 31.552C31.2349 31.9856 30.3559 31.6815 29.8511 31.1778C28.6053 29.9481 28.6443 27.7276 29.8381 26.4716C31.3551 24.7311 34.3762 24.6977 35.9282 26.412C37.5872 28.2498 37.7961 31.1954 36.52 33.3015C35.5625 34.9548 33.8369 36.1485 31.9396 36.4184C29.8756 36.7241 27.6462 36.0701 26.1958 34.5397C23.3589 31.6505 23.4039 26.5702 26.1103 23.6097C26.8339 22.744 27.7899 22.1275 28.7487 21.5561C28.5411 21.2762 28.3236 21.0035 28.1031 20.7323C26.2408 22.0825 24.293 23.3096 22.2886 24.4365C21.9492 24.5612 22.01 24.9704 21.9608 25.2588C21.7824 27.7259 21.572 30.2971 20.345 32.5021C19.5153 34.0597 18.2608 35.487 16.5784 36.1282C15.244 36.6315 13.6299 36.6762 12.4057 35.8655C11.2337 35.13 10.7015 33.6624 10.7915 32.3252C10.9772 30.6238 11.9446 29.0879 13.1744 27.9336C14.8626 26.3916 16.9091 25.3256 18.918 24.2668C19.327 24.039 19.7721 23.8665 20.1379 23.5721C20.2728 23.2038 20.2931 22.8075 20.3308 22.4219C19.2893 23.0513 17.9739 23.5576 16.7759 23.0745C15.7969 22.6975 15.1877 21.7605 14.8758 20.8004C13.9519 20.7018 13.0223 20.3333 12.4334 19.5878C11.4067 18.3565 11.3414 16.4841 12.0838 15.096C12.3318 14.5957 12.8887 14.3272 13.4342 14.3606C13.54 14.5755 13.7388 14.7885 13.6663 15.0495C13.5039 15.9502 13.1877 16.8858 13.4864 17.798C13.6344 18.4217 14.1507 18.9192 14.7918 19.0047C14.9281 17.5282 15.2153 16.0461 15.91 14.7189C16.5637 13.4279 17.4572 12.1763 18.7567 11.4758ZM19.6255 12.9204C18.7495 13.5165 18.2156 14.4695 17.7544 15.3962C17.2584 16.442 16.8581 17.566 16.8131 18.7323C17.1482 18.5842 17.4644 18.3914 17.7356 18.1434C18.8321 17.1889 19.7909 16.0519 20.4333 14.7407C20.6595 14.2666 20.8553 13.7283 20.7263 13.1977C20.5596 12.7666 19.978 12.6535 19.6255 12.9204ZM30.9632 13.3757C29.939 14.5681 29.3766 16.1488 29.3939 17.7196C30.5486 16.7667 31.613 15.65 32.331 14.3258C32.5368 13.9023 32.8097 13.2103 32.2874 12.9014C31.8116 12.6564 31.275 13.0161 30.9632 13.3757ZM15.437 28.612C14.4304 29.5153 13.4484 30.5686 13.0831 31.9042C12.9077 32.6206 12.8671 33.526 13.4689 34.0596C14.1042 34.6396 15.0615 34.4669 15.7953 34.1914C17.2108 33.6459 18.0652 32.2754 18.6409 30.9441C19.3125 29.2906 19.7286 27.5298 19.8983 25.753C18.2911 26.4961 16.7899 27.4738 15.437 28.612Z" fill="#FEFFFE"/>
<path d="M22.2631 0.066992C26.9986 -0.294072 31.8313 0.812512 35.9416 3.1896C39.2298 5.08526 42.0725 7.75985 44.1304 10.9521C46.6861 14.8551 48.0379 19.5267 47.9987 24.1913C47.9684 29.066 46.4164 33.9234 43.5809 37.8932C40.7048 41.9643 36.5234 45.0999 31.8038 46.7041C27.6125 48.1545 23.0188 48.3823 18.6938 47.4133C14.1584 46.4025 9.94503 44.0166 6.72224 40.6705C3.30665 37.133 0.994743 32.5279 0.288425 27.6561C-0.406437 23.3166 0.16791 18.7899 1.86352 14.7404C3.43717 10.9738 6.00011 7.63497 9.20822 5.11575C12.9271 2.18304 17.5364 0.394821 22.2631 0.066992ZM22.2575 1.21859C19.4437 1.42009 16.6763 2.17288 14.1323 3.38981C10.0392 5.36243 6.53945 8.56764 4.26965 12.5069C0.888908 18.1896 0.236315 25.3805 2.45255 31.6014C3.8739 35.6466 6.47007 39.2552 9.82629 41.9178C13.7262 45.0115 18.6591 46.7941 23.6411 46.8361C27.2787 46.9161 30.9338 46.0891 34.181 44.4517C38.3189 42.4041 41.7954 39.055 44.0173 35.0111C46.2381 30.9965 47.2124 26.2928 46.7182 21.7286C46.0611 14.3214 41.4342 7.45831 34.9047 3.93964C31.0757 1.82923 26.6171 0.863172 22.2575 1.21859Z" fill="#3A73B8"/>
<path d="M18.217 3.38928C22.2058 2.27543 26.5222 2.32335 30.4671 3.59659C30.6383 3.65031 30.7701 3.77648 30.9051 3.88957C30.2538 3.84182 29.6564 3.54722 29.0165 3.43703C27.4037 3.11501 25.7328 2.95545 24.0983 3.19923C23.0743 3.38347 21.9997 3.77938 21.35 4.63509C20.8611 5.27042 20.8089 6.26827 21.3759 6.87149C22.0055 7.53716 23.1222 7.50086 23.8198 6.96281C24.6436 6.35813 25.4427 5.63713 26.471 5.41256C28.5611 4.89468 30.7528 5.31092 32.7772 5.91285C35.208 6.57561 37.5069 7.77512 39.3724 9.47638C42.4806 12.2223 44.3487 16.1643 45.0579 20.2067C45.6758 23.6555 45.4901 27.2597 44.4197 30.6017C44.3819 30.7582 44.282 30.8495 44.1196 30.8742C44.7404 28.5987 45.2016 26.1836 44.7376 23.8341C44.4937 22.6997 43.9353 21.4207 42.7416 21.0333C41.828 20.71 40.7155 21.3379 40.6416 22.3314C40.4675 23.3946 41.3361 24.1603 41.8774 24.9566C43.0391 26.6243 42.8957 28.787 42.6114 30.7003C42.0774 33.2906 41.2132 35.8695 39.6439 38.0275C37.2218 41.5041 33.3637 43.7986 29.2866 44.7792C25.7434 45.6263 21.9884 45.6205 18.451 44.7488C17.9854 44.6096 17.456 44.5473 17.0948 44.1903C17.7693 44.1887 18.3943 44.482 19.0544 44.5864C20.8571 44.914 22.7411 45.117 24.5426 44.6661C25.3591 44.441 26.1859 44.0525 26.6993 43.3535C27.1751 42.7006 27.1651 41.7013 26.5804 41.1184C26.0743 40.5845 25.2317 40.4746 24.5845 40.811C23.816 41.2271 23.2285 41.9118 22.4438 42.305C20.8615 43.0737 19.0253 42.9605 17.3371 42.6764C14.5378 42.1265 11.7721 41.1116 9.51521 39.3256C6.5186 37.0226 4.44305 33.6635 3.42617 30.0461C2.35007 26.2592 2.34265 22.1894 3.32469 18.3821C3.49425 17.9875 3.42907 17.3654 3.87871 17.1783C3.30436 19.3539 2.85037 21.6338 3.19982 23.8878C3.3768 24.8886 3.7277 25.9487 4.55582 26.5984C5.13033 27.0727 6.02799 27.2469 6.66332 26.7912C7.34076 26.3952 7.56404 25.4555 7.24944 24.7606C6.91871 23.9775 6.24708 23.4075 5.86278 22.6534C5.03176 21.1348 5.12323 19.3219 5.34361 17.6599C5.80761 14.9969 6.7114 12.366 8.28214 10.1438C10.6142 6.76437 14.2852 4.45117 18.217 3.38928ZM18.7567 11.4753C17.4572 12.1758 16.5637 13.4276 15.9097 14.7184C15.2148 16.0456 14.9278 17.5279 14.7915 19.0042C14.1503 18.9187 13.6339 18.421 13.4861 17.7975C13.1873 16.8851 13.5035 15.9497 13.666 15.049C13.7384 14.788 13.5397 14.5748 13.4338 14.3601C12.8885 14.3267 12.3314 14.5952 12.0835 15.0955C11.3409 16.4834 11.4062 18.3558 12.4331 19.5873C13.0221 20.3328 13.9516 20.7011 14.8755 20.7999C15.1874 21.7601 15.7964 22.697 16.7755 23.074C17.9734 23.5571 19.2889 23.0508 20.3305 22.4213C20.2928 22.8072 20.2726 23.2031 20.1376 23.5716C19.772 23.866 19.3269 24.0386 18.9177 24.2663C16.909 25.325 14.8624 26.3907 13.1741 27.9327C11.9442 29.0872 10.9769 30.6231 10.7912 32.3246C10.7012 33.6617 11.2336 35.1295 12.4053 35.8647C13.6294 36.6754 15.2437 36.6309 16.5781 36.1273C18.2604 35.4864 19.5151 34.0592 20.3447 32.5015C21.5716 30.2968 21.782 27.7253 21.9605 25.2583C22.0097 24.9695 21.9488 24.5607 22.2883 24.436C24.2927 23.3089 26.2405 22.082 28.1027 20.7316C28.3233 21.0028 28.5408 21.2757 28.7484 21.5554C27.7896 22.1268 26.8337 22.7433 26.1099 23.6092C23.4036 26.5695 23.3586 31.65 26.1955 34.5392C27.6458 36.0693 29.8751 36.7235 31.9392 36.4174C33.8364 36.1478 35.5621 34.9541 36.5197 33.3006C37.7958 31.1946 37.5869 28.249 35.9279 26.4114C34.3759 24.6972 31.3547 24.7304 29.8377 26.4709C28.644 27.7269 28.605 29.9473 29.8508 31.1772C30.3556 31.6807 31.2345 31.9853 31.8683 31.5513C32.2774 31.2572 32.2382 30.6277 31.9088 30.2866C31.4825 29.7718 30.9777 29.1755 31.1055 28.4563C31.2329 27.5209 32.2787 26.9478 33.1592 27.1467C33.9132 27.2643 34.5153 27.8529 34.7952 28.5434C35.4552 30.1141 35.0809 32.0605 33.8959 33.2834C32.6399 34.5928 30.4556 34.7989 28.9399 33.8287C27.5939 33.0004 26.8282 31.4645 26.5917 29.9401C26.3437 28.1023 26.6962 26.1198 27.8362 24.6214C28.5701 23.6727 29.5941 22.894 30.7718 22.6126C31.761 22.6881 32.7866 22.8664 33.7552 22.5502C34.2108 22.395 34.6542 21.8845 34.4223 21.3857C34.1715 20.8736 33.5552 20.7199 33.0415 20.6126C32.2742 20.4603 31.5112 20.6648 30.7613 20.8084C30.2378 20.6285 29.9608 20.0789 29.7664 19.5944C31.2226 18.5065 32.6614 17.3246 33.6503 15.7769C34.2249 14.8472 34.599 13.7057 34.3292 12.6137C34.1161 11.8901 33.5227 11.2751 32.7658 11.1371C31.5041 10.8195 30.2131 11.4563 29.3558 12.3599C27.978 13.8551 27.279 15.9279 27.3427 17.9496C27.324 18.3673 27.4863 18.8053 27.3674 19.207C26.3347 20.0395 25.1802 20.7095 24.0676 21.4289C23.4281 21.8003 22.8189 22.228 22.14 22.5282C22.1516 21.8842 22.185 21.2314 22.3693 20.6108C22.858 19.9421 23.473 19.3606 23.8616 18.618C24.1459 18.1061 24.4142 17.4577 24.1185 16.8919C23.8472 16.4728 23.2468 16.5134 22.8536 16.7222C22.0155 17.1428 21.5555 18.0304 21.2177 18.8631C20.9857 19.3953 20.9594 20.0553 20.4634 20.4324C19.7731 21.0358 18.9406 21.642 17.9804 21.6072C17.4322 21.6101 17.0666 21.0938 16.9506 20.6093C18.4682 20.0206 19.7344 18.9213 20.7611 17.68C21.7112 16.4587 22.4667 15.0172 22.5943 13.4536C22.6655 12.6659 22.384 11.7739 21.6647 11.3622C20.7655 10.8719 19.6385 11.0111 18.7567 11.4753Z" fill="#3A73B8"/>
<path d="M19.6263 12.9202C19.9789 12.6534 20.5605 12.7665 20.7273 13.1974C20.8563 13.7282 20.6603 14.2662 20.4343 14.7404C19.7919 16.0515 18.8331 17.1886 17.7366 18.1431C17.4653 18.391 17.1492 18.5838 16.8141 18.7319C16.8591 17.5657 17.2594 16.4417 17.7554 15.3959C18.2166 14.4692 18.7503 13.5164 19.6263 12.9202ZM30.964 13.3755C31.2759 13.0159 31.8125 12.6563 32.2883 12.9015C32.8107 13.2103 32.5377 13.9023 32.3318 14.3258C31.614 15.65 30.5494 16.7666 29.3947 17.7196C29.3775 16.1487 29.9399 14.5679 30.964 13.3755ZM15.4378 28.6118C16.7909 27.4731 18.2919 26.4958 19.8992 25.7532C19.7294 27.5299 19.3132 29.2907 18.6417 30.9442C18.0659 32.2755 17.2117 33.6462 15.796 34.1917C15.0622 34.4669 14.1049 34.6396 13.4695 34.0597C12.8676 33.5259 12.9083 32.621 13.0838 31.9043C13.4492 30.5686 14.4311 29.5155 15.4378 28.6118Z" fill="#3A73B8"/>
</svg>
