<svg width="84" height="84" viewBox="0 0 84 84" fill="none" xmlns="http://www.w3.org/2000/svg">
<g filter="url(#filter0_d_2099_2445)">
<g clip-path="url(#clip0_2099_2445)">
<path d="M42.0003 54.0004C51.3891 54.0004 59.0003 46.3892 59.0003 37.0004C59.0003 27.6115 51.3891 20.0004 42.0003 20.0004C32.6115 20.0004 25.0003 27.6115 25.0003 37.0004C25.0003 46.3892 32.6115 54.0004 42.0003 54.0004Z" fill="#331433"/>
<path d="M42.0003 51.3161C49.9067 51.3161 56.3161 44.9068 56.3161 37.0004C56.3161 29.094 49.9067 22.6846 42.0003 22.6846C34.0939 22.6846 27.6845 29.094 27.6845 37.0004C27.6845 44.9068 34.0939 51.3161 42.0003 51.3161Z" fill="#FDA509"/>
<path opacity="0.5" d="M42.0003 23.5793C49.4132 23.5793 55.4214 29.5875 55.4214 37.0004C55.4214 44.4133 49.4132 50.4215 42.0003 50.4215V23.5793Z" fill="#DD6400"/>
<path d="M37.3658 41.3353L38.2427 40.2974C39.549 41.4964 40.8016 42.069 42.5374 42.069C44.2732 42.069 45.329 41.1743 45.329 39.9395V39.9037C45.329 38.7406 44.7027 38.0964 42.0722 37.5237C39.1911 36.8974 37.8669 35.9669 37.8669 33.909V33.8732C37.8669 31.9227 39.6027 30.4553 41.9827 30.4553C43.8258 30.4553 45.0964 30.9743 46.3848 31.9943L45.5616 33.0858C44.3985 32.1374 43.2353 31.7258 41.9469 31.7258C40.3006 31.7258 39.2806 32.6027 39.2806 33.748V33.7837C39.2806 34.9648 39.9069 35.6448 42.6806 36.2174C45.4722 36.8437 46.7606 37.8458 46.7606 39.7606V39.7964C46.7606 41.9437 44.9711 43.3395 42.4837 43.3395C40.4795 43.3395 38.869 42.6953 37.3658 41.3353Z" fill="white"/>
<path d="M42.6713 28.9478H41.3292V45.053H42.6713V28.9478Z" fill="white"/>
<path d="M22.068 40.516L20.33 40.8196C20.1144 39.5788 20 38.3028 20 37.0004V36.1204H21.76V37.0004C21.76 38.2016 21.8656 39.3764 22.068 40.516Z" fill="#F50057"/>
<path d="M22.9836 43.9219C23.7976 46.1571 24.9988 48.2119 26.5036 50.0028L25.1572 51.1336C23.5204 49.1888 22.2136 46.9535 21.3292 44.5247L22.9836 43.9219Z" fill="#F4AF00"/>
<path d="M28.9982 52.4974C31.6647 54.7415 34.9163 56.3079 38.4848 56.9327L38.1812 58.6707C34.3003 57.9843 30.7671 56.2815 27.8674 53.8439L28.9982 52.4974Z" fill="#89D3DF"/>
<path d="M64.0003 37.0003C64.0003 49.1313 54.131 59.0007 42 59.0007V57.2407C53.1585 57.2407 62.2403 48.1589 62.2403 37.0003C62.2403 35.7991 62.1347 34.6243 61.9323 33.4847C61.7299 32.3099 61.4219 31.1747 61.0171 30.079C60.2031 27.8438 59.0018 25.789 57.497 23.9981C56.7402 23.0961 55.9042 22.2601 55.0022 21.5033C52.3357 19.2593 49.0841 17.6928 45.5156 17.068C44.376 16.8656 43.2012 16.76 42 16.76C37.1071 16.76 32.4826 18.4849 28.8174 21.6397C28.4302 21.9741 28.0518 22.3217 27.6866 22.6869L27.0661 23.3117L25.8209 22.0665L26.4413 21.4461C26.8065 21.0809 27.1849 20.7245 27.5721 20.3901C31.5762 16.9008 36.6407 15 42 15C43.3024 15 44.5784 15.1144 45.8192 15.33C49.7001 16.0164 53.2333 17.7192 56.133 20.1569C57.1142 20.9753 58.025 21.8861 58.8434 22.8673C60.4803 24.8122 61.7871 27.0474 62.6715 29.4762C63.1071 30.6686 63.4459 31.9051 63.6703 33.1811C63.8859 34.4219 64.0003 35.6979 64.0003 37.0003Z" fill="#63C1A0"/>
<path d="M26.4415 22.6871C26.7848 23.0303 27.3436 23.0303 27.6868 22.6871C28.3512 22.0227 29.0552 21.4111 29.7944 20.8523L28.5404 19.5983C27.81 20.1659 27.106 20.7775 26.4415 21.4419C26.0983 21.7851 26.0983 22.3439 26.4415 22.6871Z" fill="#258B74"/>
<path d="M31.8803 24.6976L21.7073 27.4256L24.431 17.2527L31.8803 24.6976Z" fill="#63C1A0"/>
</g>
</g>
<defs>
<filter id="filter0_d_2099_2445" x="-1.99969" y="-1.99963" width="88" height="88" filterUnits="userSpaceOnUse" color-interpolation-filters="sRGB">
<feFlood flood-opacity="0" result="BackgroundImageFix"/>
<feColorMatrix in="SourceAlpha" type="matrix" values="0 0 0 0 0 0 0 0 0 0 0 0 0 0 0 0 0 0 127 0" result="hardAlpha"/>
<feOffset dy="5"/>
<feGaussianBlur stdDeviation="10"/>
<feColorMatrix type="matrix" values="0 0 0 0 0 0 0 0 0 0 0 0 0 0 0 0 0 0 0.15 0"/>
<feBlend mode="normal" in2="BackgroundImageFix" result="effect1_dropShadow_2099_2445"/>
<feBlend mode="normal" in="SourceGraphic" in2="effect1_dropShadow_2099_2445" result="shape"/>
</filter>
<clipPath id="clip0_2099_2445">
<rect width="48" height="48" fill="white" transform="translate(18.0003 13.0004)"/>
</clipPath>
</defs>
</svg>
