<svg width="40" height="40" viewBox="0 0 40 40" fill="none" xmlns="http://www.w3.org/2000/svg">
<path d="M5 34.125C5 28 10 23 16.125 23H19.875C20.9375 23 22 23.1875 23 23.4375C23.125 26.5625 24.6875 29.25 27 31V36H6.875C5.8125 36 5 35.1875 5 34.125ZM25.5 12C25.5 16.125 22.125 19.5 18 19.5C13.875 19.5 10.5 16.125 10.5 12C10.5 7.875 13.875 4.5 18 4.5C22.125 4.5 25.5 7.875 25.5 12Z" fill="#2A95D5" fill-opacity="0.5"/>
<path d="M33 16C36.875 16 40 19.125 40 23C40 26.125 37.9375 28.75 35.125 29.6875L36.4375 31.3125C36.75 31.6875 36.75 32.25 36.375 32.625L35 34L36.3125 35.3125C36.6875 35.6875 36.6875 36.3125 36.3125 36.6875L33.6875 39.3125C33.3125 39.6875 32.6875 39.6875 32.3125 39.3125L30.3125 37.3125C30.125 37.125 30 36.875 30 36.5625V29.3125C27.625 28.1875 26 25.8125 26 23C26 19.125 29.125 16 33 16ZM33 20C31.875 20 31 20.875 31 22C31 23.125 31.875 24 33 24C34.125 24 35 23.125 35 22C35 20.875 34.125 20 33 20Z" fill="#2A95D5"/>
</svg>
