<svg width="48" height="48" viewBox="0 0 48 48" fill="none" xmlns="http://www.w3.org/2000/svg">
<path d="M25 29H15V37H25V29Z" fill="#A81947"/>
<path d="M37.4167 4H2.58333C1.70888 4 1 4.72754 1 5.625V28.375C1 29.2725 1.70888 30 2.58333 30H37.4167C38.2911 30 39 29.2725 39 28.375V5.625C39 4.72754 38.2911 4 37.4167 4Z" fill="#E01A59"/>
<path d="M37 28V6L3 6V28L37 28Z" fill="#181818"/>
<path d="M31 36H9V37H31V36Z" fill="#C11D51"/>
<path d="M18.8125 25H43.1875C43.6344 25 44 25.3477 44 25.7727V42H18V25.7727C18 25.3477 18.3656 25 18.8125 25Z" fill="#43C2D0"/>
<path d="M43 41V26H19V41H43Z" fill="#181818"/>
<path fill-rule="evenodd" clip-rule="evenodd" d="M37 30.0436L29.4114 38L26 34.6066L27.0779 33.5345L29.3827 35.8271L35.8942 29L37 30.0436Z" fill="#63C1A0"/>
<path fill-rule="evenodd" clip-rule="evenodd" d="M27 14.0436L19.4114 22L16 18.6066L17.0779 17.5345L19.3827 19.8271L25.8942 13L27 14.0436Z" fill="#FDA509"/>
<path d="M15 41H47C47 42.105 46.2463 43 45.3158 43H16.6842C15.7537 43 15 42.105 15 41Z" fill="#89D3DF"/>
</svg>
