<svg width="48" height="48" viewBox="0 0 48 48" fill="none" xmlns="http://www.w3.org/2000/svg">
<path d="M0 26C0 20.1652 2.31785 14.5695 6.44365 10.4437C10.5695 6.31785 16.1652 4 22 4C27.8348 4 33.4305 6.31785 37.5563 10.4437C41.6821 14.5695 44 20.1652 44 26C44 31.8348 41.6821 37.4305 37.5563 41.5563C33.4305 45.6821 27.8348 48 22 48C16.1652 48 10.5695 45.6821 6.44365 41.5563C2.31785 37.4305 0 31.8348 0 26Z" fill="#F1F9FB"/>
<path d="M0 26C0 20.1652 2.31785 14.5695 6.44365 10.4437C10.5695 6.31785 16.1652 4 22 4C27.8348 4 33.4306 6.31785 37.5564 10.4437C41.6822 14.5695 44 20.1652 44 26C44 31.8348 41.6822 37.4306 37.5564 41.5564C33.4306 45.6822 27.8348 48 22 48C16.1652 48 10.5695 45.6822 6.44365 41.5564C2.31785 37.4306 0 31.8348 0 26V26ZM20.625 6.96175C18.7825 7.52275 16.9537 9.21675 15.4357 12.063C15.0425 12.8 14.6767 13.603 14.3495 14.461C16.2882 14.8927 18.3975 15.1678 20.625 15.2503V6.96175ZM11.6848 13.7323C12.0753 12.6763 12.5208 11.6862 13.0075 10.7677C13.483 9.86865 14.0321 9.01047 14.6493 8.202C12.3081 9.1722 10.1812 10.5945 8.39025 12.3875C9.38575 12.8935 10.4885 13.3472 11.6848 13.735V13.7323ZM9.64975 24.625C9.74875 21.6825 10.1667 18.8858 10.8487 16.353C9.36017 15.877 7.91933 15.2629 6.545 14.5188C4.35475 17.4595 3.05476 20.9671 2.7995 24.625H9.647H9.64975ZM13.4997 17.0872C12.8514 19.5506 12.4824 22.0791 12.3997 24.625H20.625V18.0003C18.1225 17.9178 15.7217 17.6015 13.4997 17.0872ZM23.375 17.9975V24.625H31.5975C31.5157 22.0792 31.1477 19.5507 30.5002 17.0872C28.2782 17.6015 25.8775 17.915 23.375 18.0003V17.9975ZM12.4025 27.375C12.4988 30.0892 12.8865 32.6385 13.4997 34.9128C15.8402 34.3816 18.2262 34.0768 20.625 34.0025V27.375H12.4025ZM23.375 27.375V33.9998C25.8775 34.0823 28.2782 34.3985 30.5002 34.9128C31.1135 32.6385 31.5013 30.0892 31.6003 27.375H23.375ZM14.3495 37.539C14.6795 38.397 15.0425 39.2 15.4357 39.937C16.9537 42.7832 18.7852 44.4745 20.625 45.0383V36.7525C18.3975 36.835 16.2882 37.11 14.3495 37.5417V37.539ZM14.652 43.798C14.0339 42.9897 13.4838 42.1315 13.0075 41.2322C12.501 40.2737 12.0591 39.2824 11.6848 38.265C10.5535 38.6286 9.45203 39.0791 8.39025 39.6125C10.1812 41.4055 12.3081 42.8278 14.6493 43.798H14.652ZM10.8487 35.647C10.1348 32.9444 9.73159 30.1691 9.647 27.375H2.7995C3.05461 31.0329 4.35461 34.5406 6.545 37.4813C7.8375 36.7718 9.28125 36.1558 10.8487 35.647V35.647ZM29.3508 43.798C31.6907 42.8284 33.8167 41.407 35.607 39.6153C34.5461 39.0819 33.4456 38.6314 32.3153 38.2678C31.9408 39.2842 31.4989 40.2746 30.9925 41.2322C30.5171 42.1314 29.968 42.9896 29.3508 43.798V43.798ZM23.375 36.7498V45.0383C25.2175 44.4773 27.0463 42.7832 28.5643 39.937C28.9575 39.2 29.3232 38.397 29.6505 37.539C27.5869 37.0865 25.4864 36.8233 23.375 36.7525V36.7498ZM33.1513 35.647C34.7188 36.1558 36.1625 36.7718 37.455 37.4813C39.6454 34.5406 40.9454 31.0329 41.2005 27.375H34.353C34.2684 30.1691 33.8652 32.9444 33.1513 35.647V35.647ZM41.2005 24.625C40.9454 20.9671 39.6454 17.4594 37.455 14.5188C36.1625 15.2283 34.7188 15.8443 33.1513 16.353C33.8333 18.883 34.2512 21.6825 34.353 24.625H41.2005ZM30.9925 10.7677C31.4793 11.6862 31.9247 12.6763 32.318 13.7323C33.4474 13.3685 34.547 12.918 35.607 12.3848C33.8164 10.594 31.6905 9.17363 29.3508 8.20475C29.9503 8.983 30.5003 9.8465 30.9925 10.7677V10.7677ZM29.6505 14.461C29.3381 13.6401 28.9753 12.8392 28.5643 12.063C27.0463 9.21675 25.2175 7.5255 23.375 6.96175V15.2475C25.6025 15.165 27.7117 14.89 29.6505 14.4582V14.461Z" fill="#89D3DF"/>
<path d="M35.0007 0.649902C28.1909 0.649902 22.6507 6.19011 22.6507 12.9999C22.6507 19.8097 28.1909 25.3499 35.0007 25.3499C41.8105 25.3499 47.3507 19.8097 47.3507 12.9999C47.3507 6.19011 41.8105 0.649902 35.0007 0.649902Z" fill="#F1F9FB"/>
<path d="M35 0C27.8318 0 22 5.8318 22 13C22 20.1682 27.8318 26 35 26C42.1682 26 48 20.1682 48 13C48 5.8318 42.1682 0 35 0ZM35 23.4C29.2657 23.4 24.6 18.7343 24.6 13C24.6 7.2657 29.2657 2.6 35 2.6C40.7343 2.6 45.4 7.2657 45.4 13C45.4 18.7343 40.7343 23.4 35 23.4Z" fill="#431F43"/>
<path d="M36.2986 6.49951H33.6986V13.5377L37.9795 17.8186L39.8177 15.9804L36.2986 12.4613V6.49951Z" fill="#E01A59"/>
</svg>
