<svg width="84" height="84" viewBox="0 0 84 84" fill="none" xmlns="http://www.w3.org/2000/svg">
<g filter="url(#filter0_d_2099_2440)">
<g clip-path="url(#clip0_2099_2440)">
<path d="M53.6667 16.9999H30.3333C25.731 16.9999 22 20.7308 22 25.3332V48.6665C22 53.2689 25.731 56.9999 30.3333 56.9999H53.6667C58.269 56.9999 62 53.2689 62 48.6665V25.3332C62 20.7308 58.269 16.9999 53.6667 16.9999Z" stroke="#C1BABF" stroke-width="2" stroke-miterlimit="10"/>
<rect x="20" y="30.9999" width="4" height="12" rx="2" fill="#E01A59"/>
<rect x="48" y="15" width="4" height="12" rx="2" transform="rotate(90 48 15)" fill="#E01A59"/>
<rect x="60" y="30.9999" width="4" height="12" rx="2" fill="#E01A59"/>
<rect x="48" y="55" width="4" height="12" rx="2" transform="rotate(90 48 55)" fill="#E01A59"/>
<path d="M42 16.9999C30.9542 16.9999 22 25.954 22 36.9999C22 48.0457 30.9542 56.9999 42 56.9999C53.0458 56.9999 62 48.0457 62 36.9999C62 25.954 53.0458 16.9999 42 16.9999ZM42 49.4999C35.0958 49.4999 29.5 43.904 29.5 36.9999C29.5 30.0957 35.0958 24.4999 42 24.4999C48.9042 24.4999 54.5 30.0957 54.5 36.9999C54.5 43.904 48.9042 49.4999 42 49.4999Z" fill="white"/>
<path d="M37.7252 25.25L35.1586 18.2C29.6169 20.2166 25.2211 24.6166 23.2044 30.1541L30.2544 32.7208C31.5169 29.2583 34.2627 26.5083 37.7252 25.25Z" fill="#E01A59"/>
<path d="M53.7504 32.7252L60.8004 30.1585C58.7837 24.6168 54.3837 20.221 48.8462 18.2043L46.2795 25.2543C49.742 26.5168 52.492 29.2627 53.7504 32.7252Z" fill="#E01A59"/>
<path d="M46.2751 48.7496L48.8418 55.7996C54.3835 53.783 58.7793 49.383 60.796 43.8455L53.746 41.2788C52.4835 44.7413 49.7376 47.4913 46.2751 48.7496Z" fill="#E01A59"/>
<path d="M30.2501 41.275L23.2001 43.8417C25.2167 49.3834 29.6167 53.7792 35.1542 55.7959L37.7209 48.7459C34.2584 47.4834 31.5084 44.7375 30.2501 41.275Z" fill="#E01A59"/>
<path opacity="0.2" d="M42 21.5833C33.4875 21.5833 26.5833 28.4874 26.5833 36.9999C26.5833 45.5124 33.4875 52.4166 42 52.4166C50.5125 52.4166 57.4166 45.5124 57.4166 36.9999C57.4166 28.4874 50.5125 21.5833 42 21.5833ZM42 49.4999C35.0958 49.4999 29.5 43.9041 29.5 36.9999C29.5 30.0958 35.0958 24.4999 42 24.4999C48.9041 24.4999 54.5 30.0958 54.5 36.9999C54.5 43.9041 48.9041 49.4999 42 49.4999Z" fill="#2A0C27"/>
<path opacity="0.1" d="M42 16.9999C30.9542 16.9999 22 25.954 22 36.9999C22 48.0457 30.9542 56.9999 42 56.9999C53.0458 56.9999 62 48.0457 62 36.9999C62 25.954 53.0458 16.9999 42 16.9999ZM42 56.1665C31.4125 56.1665 22.8333 47.5874 22.8333 36.9999C22.8333 26.4124 31.4125 17.8332 42 17.8332C52.5875 17.8332 61.1667 26.4124 61.1667 36.9999C61.1667 47.5874 52.5875 56.1665 42 56.1665Z" fill="#2A0C27"/>
</g>
</g>
<defs>
<filter id="filter0_d_2099_2440" x="-2" y="-2.00012" width="88" height="88" filterUnits="userSpaceOnUse" color-interpolation-filters="sRGB">
<feFlood flood-opacity="0" result="BackgroundImageFix"/>
<feColorMatrix in="SourceAlpha" type="matrix" values="0 0 0 0 0 0 0 0 0 0 0 0 0 0 0 0 0 0 127 0" result="hardAlpha"/>
<feOffset dy="5"/>
<feGaussianBlur stdDeviation="10"/>
<feColorMatrix type="matrix" values="0 0 0 0 0 0 0 0 0 0 0 0 0 0 0 0 0 0 0.15 0"/>
<feBlend mode="normal" in2="BackgroundImageFix" result="effect1_dropShadow_2099_2440"/>
<feBlend mode="normal" in="SourceGraphic" in2="effect1_dropShadow_2099_2440" result="shape"/>
</filter>
<clipPath id="clip0_2099_2440">
<rect width="48" height="48" fill="white" transform="translate(18 12.9999)"/>
</clipPath>
</defs>
</svg>
