<svg width="48" height="48" viewBox="0 0 48 48" fill="none" xmlns="http://www.w3.org/2000/svg">
<path fill-rule="evenodd" clip-rule="evenodd" d="M31.502 10.8795C33.8226 10.8795 35.7155 8.99577 35.7155 6.68635C35.7155 4.37734 33.8226 2.49365 31.502 2.49365C29.1818 2.49365 27.2889 4.37734 27.2889 6.68635C27.2889 8.99619 29.1818 10.8795 31.502 10.8795Z" fill="#E01A59"/>
<path fill-rule="evenodd" clip-rule="evenodd" d="M27.3605 9.03571C29.6811 9.03571 31.5736 7.15202 31.5736 4.84302C31.5736 2.53359 29.6811 0.649902 27.3605 0.649902C25.0399 0.649902 23.1475 2.53359 23.1475 4.84302C23.1475 7.15244 25.0399 9.03571 27.3605 9.03571Z" fill="#E01A59"/>
<path fill-rule="evenodd" clip-rule="evenodd" d="M21.0401 8.38581C23.3607 8.38581 25.2531 6.50212 25.2531 4.1927C25.2531 1.88369 23.3611 0 21.0401 0C18.7194 0 16.827 1.88369 16.827 4.1927C16.8274 6.50212 18.7194 8.38581 21.0401 8.38581Z" fill="#E01A59"/>
<path fill-rule="evenodd" clip-rule="evenodd" d="M15.375 10.4459C17.6957 10.4459 19.5885 8.56218 19.5885 6.25275C19.5885 3.94333 17.6957 2.06006 15.375 2.06006C13.0548 2.06006 11.162 3.94333 11.162 6.25275C11.162 8.5626 13.0544 10.4459 15.375 10.4459Z" fill="#E01A59"/>
<path fill-rule="evenodd" clip-rule="evenodd" d="M12.1079 15.1085C14.4285 15.1085 16.3213 13.2253 16.3213 10.9158C16.3213 8.60641 14.4285 6.72314 12.1079 6.72314C9.78766 6.72314 7.89441 8.60683 7.89441 10.9163C7.89441 13.2257 9.78724 15.1085 12.1079 15.1085Z" fill="#E01A59"/>
<path fill-rule="evenodd" clip-rule="evenodd" d="M35.0987 15.2174C37.4193 15.2174 39.3117 13.3341 39.3117 11.0247C39.3117 8.71523 37.4193 6.83154 35.0987 6.83154C32.778 6.83154 30.8856 8.71523 30.8856 11.0247C30.8856 13.3341 32.778 15.2174 35.0987 15.2174Z" fill="#E01A59"/>
<path fill-rule="evenodd" clip-rule="evenodd" d="M35.3166 21.0728C37.6372 21.0728 39.5296 19.1891 39.5296 16.8797C39.5296 14.5707 37.6372 12.687 35.3166 12.687C32.9959 12.687 31.1035 14.5707 31.1035 16.8797C31.1035 19.1896 32.9955 21.0728 35.3166 21.0728Z" fill="#E01A59"/>
<path fill-rule="evenodd" clip-rule="evenodd" d="M32.2647 28.1216C34.5853 28.1216 36.4782 26.238 36.4782 23.929C36.4782 21.6195 34.5853 19.7358 32.2647 19.7358C29.9445 19.7358 28.0516 21.6195 28.0516 23.929C28.0516 26.238 29.9445 28.1216 32.2647 28.1216Z" fill="#E01A59"/>
<path fill-rule="evenodd" clip-rule="evenodd" d="M11.7788 20.4224C14.0994 20.4224 15.9922 18.5387 15.9922 16.2297C15.9922 13.9203 14.0994 12.0366 11.7788 12.0366C9.45814 12.0366 7.56531 13.9203 7.56531 16.2297C7.56573 18.5387 9.45814 20.4224 11.7788 20.4224Z" fill="#E01A59"/>
<path fill-rule="evenodd" clip-rule="evenodd" d="M14.8311 28.6641C17.1517 28.6641 19.0441 26.7804 19.0441 24.471C19.0441 22.1616 17.1517 20.2783 14.8311 20.2783C12.5105 20.2783 10.618 22.1616 10.618 24.471C10.618 26.7804 12.5105 28.6641 14.8311 28.6641Z" fill="#E01A59"/>
<path fill-rule="evenodd" clip-rule="evenodd" d="M34.7112 25.0783C37.0319 25.0783 38.9247 23.195 38.9247 20.8856C38.9247 18.5761 37.0319 16.6929 34.7112 16.6929C32.391 16.6929 30.4982 18.5761 30.4982 20.8856C30.4982 23.195 32.391 25.0783 34.7112 25.0783Z" fill="#E01A59"/>
<path fill-rule="evenodd" clip-rule="evenodd" d="M12.3901 24.7842C14.7107 24.7842 16.6032 22.9006 16.6032 20.5911C16.6032 18.2817 14.7107 16.3984 12.3901 16.3984C10.0695 16.3984 8.17664 18.2817 8.17664 20.5911C8.17664 22.9006 10.0695 24.7842 12.3901 24.7842Z" fill="#E01A59"/>
<path fill-rule="evenodd" clip-rule="evenodd" d="M28.9743 26.3147V38.3217C26.0673 41.8646 21.3115 41.7419 18.4045 38.3217V26.3147C18.4045 19.8313 28.9743 19.8313 28.9743 26.3147Z" fill="#E6A875"/>
<path fill-rule="evenodd" clip-rule="evenodd" d="M28.9747 26.3147V34.3536C26.9745 35.8045 25.0473 36.6171 23.6896 36.6171C22.3324 36.6171 20.4043 35.8045 18.4045 34.3536V26.3147C18.405 19.8313 28.9747 19.8313 28.9747 26.3147Z" fill="#B88053"/>
<path fill-rule="evenodd" clip-rule="evenodd" d="M23.689 4.75781C5.95098 4.75781 12.3299 26.0873 13.4888 27.7849C14.7663 29.6573 20.8231 34.6201 23.689 34.6201C26.5544 34.6201 32.6117 29.6573 33.8892 27.7849C35.0481 26.0873 41.4266 4.75781 23.689 4.75781Z" fill="#E6A875"/>
<path d="M12.8273 20.9069C12.2974 19.3049 11.1131 18.2534 10.1822 18.5584C9.25139 18.8634 8.92641 20.4093 9.4564 22.0114C9.98638 23.6134 11.1706 24.6649 12.1015 24.3599C13.0323 24.0549 13.3573 22.5089 12.8273 20.9069Z" fill="#E6A875"/>
<path d="M38.1229 22.0117C38.653 20.4097 38.3282 18.8636 37.3973 18.5585C36.4665 18.2534 35.2821 19.3048 34.7519 20.9069C34.2218 22.5089 34.5466 24.0549 35.4775 24.36C36.4083 24.6651 37.5927 23.6137 38.1229 22.0117Z" fill="#E6A875"/>
<path fill-rule="evenodd" clip-rule="evenodd" d="M22.2362 11.9634C24.5569 11.9634 26.4497 10.0802 26.4497 7.77075C26.4497 5.46132 24.5569 3.57764 22.2362 3.57764C19.916 3.57764 18.0232 5.46132 18.0232 7.77075C18.0232 10.0802 19.916 11.9634 22.2362 11.9634Z" fill="#E01A59"/>
<path fill-rule="evenodd" clip-rule="evenodd" d="M28.0126 11.7466C30.3332 11.7466 32.2261 9.86296 32.2261 7.55395C32.2261 5.24453 30.3332 3.36084 28.0126 3.36084C25.692 3.36084 23.7996 5.24453 23.7996 7.55395C23.7996 9.86296 25.692 11.7466 28.0126 11.7466Z" fill="#E01A59"/>
<path fill-rule="evenodd" clip-rule="evenodd" d="M17.9872 13.2652C20.3079 13.2652 22.2007 11.3815 22.2007 9.07209C22.2007 6.76266 20.3079 4.87939 17.9872 4.87939C15.6666 4.87939 13.7742 6.76266 13.7742 9.07209C13.7742 11.3815 15.6666 13.2652 17.9872 13.2652Z" fill="#E01A59"/>
<path fill-rule="evenodd" clip-rule="evenodd" d="M14.8522 14.7235C16.8264 14.7235 18.4362 13.1212 18.4362 11.1569C18.4362 9.19228 16.8264 7.59033 14.8522 7.59033C12.878 7.59033 11.2683 9.19228 11.2683 11.1569C11.2687 13.1216 12.878 14.7235 14.8522 14.7235Z" fill="#E01A59"/>
<path fill-rule="evenodd" clip-rule="evenodd" d="M31.3907 14.3492C33.7114 14.3492 35.6042 12.4659 35.6042 10.1565C35.6042 7.84707 33.7114 5.96338 31.3907 5.96338C29.0701 5.96338 27.1772 7.84707 27.1772 10.1565C27.1772 12.4659 29.0701 14.3492 31.3907 14.3492Z" fill="#E01A59"/>
<path fill-rule="evenodd" clip-rule="evenodd" d="M34.8116 17.1921C36.4486 17.1921 37.7836 15.8636 37.7836 14.2345C37.7836 12.6054 36.4486 11.2769 34.8116 11.2769C33.175 11.2769 31.8396 12.6054 31.8396 14.2345C31.8396 15.8636 33.175 17.1921 34.8116 17.1921Z" fill="#E01A59"/>
<path fill-rule="evenodd" clip-rule="evenodd" d="M12.9454 17.7598C14.5295 17.7598 15.8213 16.4743 15.8213 14.8982C15.8213 13.3221 14.5295 12.0361 12.9454 12.0361C11.3616 12.0361 10.0698 13.3217 10.0698 14.8982C10.0694 16.4743 11.3612 17.7598 12.9454 17.7598Z" fill="#E01A59"/>
<path fill-rule="evenodd" clip-rule="evenodd" d="M12.3467 19.7117C13.3604 19.7117 14.1875 18.8886 14.1875 17.8798C14.1875 16.8705 13.3604 16.0479 12.3467 16.0479C11.333 16.0479 10.5059 16.8705 10.5059 17.8798C10.5059 18.8886 11.333 19.7117 12.3467 19.7117Z" fill="#E01A59"/>
<path fill-rule="evenodd" clip-rule="evenodd" d="M35.3386 19.9285C36.3524 19.9285 37.1794 19.1054 37.1794 18.0966C37.1794 17.0877 36.3524 16.2646 35.3386 16.2646C34.3249 16.2646 33.4978 17.0877 33.4978 18.0966C33.4978 19.1054 34.3249 19.9285 35.3386 19.9285Z" fill="#E01A59"/>
<path fill-rule="evenodd" clip-rule="evenodd" d="M12.5639 21.3383C13.2777 21.3383 13.8599 20.759 13.8599 20.0486C13.8599 19.3386 13.2777 18.7593 12.5639 18.7593C11.8505 18.7593 11.2683 19.3386 11.2683 20.0486C11.2687 20.759 11.8505 21.3383 12.5639 21.3383Z" fill="#E01A59"/>
<path fill-rule="evenodd" clip-rule="evenodd" d="M35.1183 21.2295C35.8322 21.2295 36.4143 20.6501 36.4143 19.9397C36.4143 19.2297 35.8322 18.6504 35.1183 18.6504C34.4049 18.6504 33.8228 19.2297 33.8228 19.9397C33.8228 20.6505 34.4049 21.2295 35.1183 21.2295Z" fill="#E01A59"/>
<path fill-rule="evenodd" clip-rule="evenodd" d="M18.0029 25.9194C19.491 27.081 27.889 27.0172 29.3771 25.9194C28.084 32.0317 19.7179 32.2195 18.0029 25.9194Z" fill="white"/>
<path d="M33.8742 38.1861V40.4869H12.9033V38.4677C14.4718 37.7064 16.2908 36.8656 18.4036 35.939C21.131 39.2518 26.8704 38.7872 28.9737 35.9519C30.8245 36.7622 32.448 37.5053 33.8742 38.1861Z" fill="#F1F9FB"/>
<path d="M3.32619 44.1981C4.54628 43.1238 7.53171 40.8026 17.0462 36.5415C18.5192 39.6736 26.395 41.0794 30.595 36.6701C39.9837 40.8836 42.8399 43.1288 44.0537 44.1981C44.8171 44.8703 45.2 46.1219 45.2 48.0001H2C2 46.1219 2.56285 44.8703 3.32619 44.1981Z" fill="#2A95D5"/>
</svg>
