<svg width="43" height="48" viewBox="0 0 43 48" fill="none" xmlns="http://www.w3.org/2000/svg">
<rect x="16.2773" y="2.50439" width="9.18261" height="6.67826" fill="#FDA509"/>
<rect width="14.1913" height="3.33913" transform="matrix(1 0 0 -1 13.7725 3.33936)" fill="#FFE464"/>
<rect x="36.2169" y="8.2417" width="5.0087" height="7.09565" transform="rotate(45 36.2169 8.2417)" fill="#258B74"/>
<rect width="10.8522" height="2.92174" transform="matrix(0.707107 0.707107 0.707107 -0.707107 33.2637 7.06104)" fill="#63C1A0"/>
<circle cx="20.8696" cy="27.1303" r="20.8696" fill="#E01A59"/>
<circle cx="20.8697" cy="27.1304" r="15.8609" fill="#F1F9FB"/>
<path d="M20.8697 11.2695C23.6538 11.2695 26.3889 12.0024 28.8001 13.3945C31.2113 14.7866 33.2135 16.7888 34.6056 19.2C35.9977 21.6111 36.7305 24.3462 36.7305 27.1304C36.7305 29.9146 35.9977 32.6497 34.6056 35.0608L20.8697 27.1304L20.8697 11.2695Z" fill="#2A95D5"/>
</svg>
