<svg width="48" height="48" viewBox="0 0 48 48" fill="none" xmlns="http://www.w3.org/2000/svg">
<path d="M24.0004 8.57178L0.000366211 20.308H48.0004L24.0004 8.57178Z" fill="#431F43"/>
<rect x="0.000366211" y="20.3076" width="48" height="12.9231" fill="#431F43"/>
<path d="M39.2954 33.2308H8.702V0H32.702L39.2954 6.59341V33.2308Z" fill="#FDA509"/>
<path d="M13.4398 7.68018H27.8398V10.5602H13.4398V7.68018Z" fill="white"/>
<path d="M13.4398 13.9204H34.5598V16.8004H13.4398V13.9204Z" fill="white"/>
<path d="M13.4398 20.1602H27.8398V23.0402H13.4398V20.1602Z" fill="white"/>
<path d="M39.2947 6.59341H32.7013V0L39.2947 6.59341Z" fill="#FFE464"/>
<rect y="33.231" width="48" height="14.7692" fill="#C11D51"/>
<path d="M24 33.2307L0 20.3076V47.9999L24 33.2307Z" fill="#E01A59"/>
<path d="M24.0012 33.2307L48.0012 20.3076V47.9999L24.0012 33.2307Z" fill="#E01A59"/>
</svg>
