<svg width="86" height="79" viewBox="0 0 86 79" fill="none" xmlns="http://www.w3.org/2000/svg">
<g filter="url(#filter0_d_2099_2407)">
<path d="M44 40H34V48H44V40Z" fill="#A81947"/>
<path d="M56.4167 15H21.5833C20.7089 15 20 15.7275 20 16.625V39.375C20 40.2725 20.7089 41 21.5833 41H56.4167C57.2911 41 58 40.2725 58 39.375V16.625C58 15.7275 57.2911 15 56.4167 15Z" fill="#E01A59"/>
<path d="M56 39V17L22 17V39H56Z" fill="#181818"/>
<path d="M50 47H28V48H50V47Z" fill="#C11D51"/>
<path d="M37.8125 36H62.1875C62.6344 36 63 36.3477 63 36.7727V53H37V36.7727C37 36.3477 37.3656 36 37.8125 36Z" fill="#43C2D0"/>
<path d="M62 52V37H38V52H62Z" fill="#181818"/>
<path fill-rule="evenodd" clip-rule="evenodd" d="M56 41.0436L48.4114 49L45 45.6066L46.0779 44.5345L48.3827 46.8271L54.8942 40L56 41.0436Z" fill="#63C1A0"/>
<path fill-rule="evenodd" clip-rule="evenodd" d="M46 25.0436L38.4114 33L35 29.6066L36.0779 28.5345L38.3827 30.8271L44.8942 24L46 25.0436Z" fill="#FDA509"/>
<path d="M34 52H66C66 53.105 65.2463 54 64.3158 54H35.6842C34.7537 54 34 53.105 34 52Z" fill="#89D3DF"/>
</g>
<defs>
<filter id="filter0_d_2099_2407" x="-1" y="-4" width="88" height="88" filterUnits="userSpaceOnUse" color-interpolation-filters="sRGB">
<feFlood flood-opacity="0" result="BackgroundImageFix"/>
<feColorMatrix in="SourceAlpha" type="matrix" values="0 0 0 0 0 0 0 0 0 0 0 0 0 0 0 0 0 0 127 0" result="hardAlpha"/>
<feOffset dy="5"/>
<feGaussianBlur stdDeviation="10"/>
<feColorMatrix type="matrix" values="0 0 0 0 0 0 0 0 0 0 0 0 0 0 0 0 0 0 0.15 0"/>
<feBlend mode="normal" in2="BackgroundImageFix" result="effect1_dropShadow_2099_2407"/>
<feBlend mode="normal" in="SourceGraphic" in2="effect1_dropShadow_2099_2407" result="shape"/>
</filter>
</defs>
</svg>
