<svg width="48" height="48" viewBox="0 0 48 48" fill="none" xmlns="http://www.w3.org/2000/svg">
<path d="M39 2H20V38H46V9L39 2Z" fill="#63C1A0"/>
<path opacity="0.3" fill-rule="evenodd" clip-rule="evenodd" d="M39 9L46 16V9H39Z" fill="#258B74"/>
<path fill-rule="evenodd" clip-rule="evenodd" d="M46 9H39V2L46 9Z" fill="#258B74"/>
<path opacity="0.6" d="M24 10H19V38H32V18L24 10Z" fill="#258B74"/>
<path d="M22 8H2V46H29.9616L30 16L22 8Z" fill="#FDA509"/>
<path opacity="0.3" fill-rule="evenodd" clip-rule="evenodd" d="M22 16L30 24V16H22Z" fill="#DD6400"/>
<path fill-rule="evenodd" clip-rule="evenodd" d="M30 16H22V8L30 16Z" fill="#DD6400"/>
<path d="M25 22H7V23H25V22Z" fill="white"/>
<path d="M25 26H7V27H25V26Z" fill="white"/>
<path d="M25 30H7V31H25V30Z" fill="white"/>
<path d="M25 34H7V35H25V34Z" fill="white"/>
<path d="M25 38H7V39H25V38Z" fill="white"/>
</svg>
