<svg width="40" height="40" viewBox="0 0 40 40" fill="none" xmlns="http://www.w3.org/2000/svg">
<path d="M16 4H26V12C26 13.125 26.875 14 28 14H36V32C36 34.25 34.1875 36 32 36H15.9375C15.75 36 15.5 36 15.3125 36C15.375 35.9375 15.375 35.9375 15.4375 35.9375C15.75 35.75 16 35.375 16 35V28.4375L16.9375 28.3125C17.625 28.1875 18.125 27.6875 18.25 27L18.375 25.9375C18.375 25.8125 18.4375 25.6875 18.5625 25.625L19.4375 24.9375C19.9375 24.5625 20.125 23.8125 19.875 23.1875L19.5 22.25C19.4375 22.125 19.4375 21.9375 19.5 21.8125L19.875 20.8125C20.125 20.1875 19.9375 19.5 19.375 19.0625L18.5625 18.4375C18.4375 18.375 18.375 18.25 18.375 18.125L18.25 17.0625C18.125 16.375 17.625 15.875 16.9375 15.75L15.875 15.625C15.75 15.625 15.625 15.5625 15.5625 15.4375L14.875 14.5625C14.5 14.0625 13.75 13.875 13.125 14.125L12.1875 14.5C12.125 14.5625 12.0625 14.5625 12 14.5625V8C12 5.8125 13.75 4 16 4Z" fill="#2A95D5" fill-opacity="0.5"/>
<path d="M36 14H28C26.875 14 26 13.125 26 12V4L36 14ZM10.8125 14.125L11.75 14.5C11.875 14.5625 12.0625 14.5625 12.1875 14.5L13.1875 14.125C13.8125 13.875 14.5 14.0625 14.9375 14.625L15.5625 15.4375C15.625 15.5625 15.75 15.625 15.875 15.625L16.9375 15.75C17.625 15.875 18.125 16.375 18.25 17.0625L18.375 18.125C18.375 18.25 18.4375 18.375 18.5625 18.4375L19.4375 19.0625C19.9375 19.5 20.125 20.25 19.875 20.875L19.5 21.8125C19.4375 21.9375 19.4375 22.125 19.5 22.1875L19.875 23.1875C20.125 23.8125 19.9375 24.5625 19.375 24.9375L18.5625 25.625C18.4375 25.6875 18.375 25.8125 18.375 25.9375L18.25 27C18.125 27.6875 17.625 28.1875 16.9375 28.3125L16 28.4375V35C16 35.375 15.75 35.75 15.4375 35.9375C15.125 36.0625 14.75 36.0625 14.4375 35.875L12 34.25L9.5 35.875C9.25 36.0625 8.8125 36.0625 8.5 35.9375C8.1875 35.75 8 35.375 8 35V28.4375L7 28.3125C6.3125 28.1875 5.8125 27.6875 5.6875 27L5.5625 25.9375C5.5625 25.8125 5.5 25.6875 5.375 25.625L4.5625 24.9375C4 24.5625 3.8125 23.8125 4.0625 23.1875L4.5 22.25C4.5 22.125 4.5 21.9375 4.5 21.8125L4.0625 20.875C3.8125 20.25 4 19.5 4.5625 19.125L5.375 18.4375C5.5 18.375 5.5625 18.25 5.5625 18.125L5.75 17.0625C5.8125 16.375 6.3125 15.875 7 15.75L8.0625 15.625C8.1875 15.625 8.3125 15.5625 8.375 15.4375L9.0625 14.625C9.4375 14.0625 10.1875 13.875 10.8125 14.125ZM8 22C8 23.4375 8.75 24.75 10 25.5C11.1875 26.1875 12.75 26.1875 14 25.5C15.1875 24.75 16 23.4375 16 22C16 20.625 15.1875 19.3125 14 18.5625C12.75 17.875 11.1875 17.875 10 18.5625C8.75 19.3125 8 20.625 8 22Z" fill="#2A95D5"/>
</svg>
