<svg width="48" height="48" viewBox="0 0 48 48" fill="none" xmlns="http://www.w3.org/2000/svg">
<path d="M23 38C32.9411 38 41 29.9411 41 20C41 10.0589 32.9411 2 23 2C13.0589 2 5 10.0589 5 20C5 29.9411 13.0589 38 23 38Z" fill="#89D3DF"/>
<path d="M15.5 38.5L2.5 25.5L22 6L33 8L35 19L15.5 38.5Z" fill="#2A95D5"/>
<g opacity="0.3" style="mix-blend-mode:multiply">
<path d="M15.5 38.5L9 32L33 8L35 19L15.5 38.5Z" fill="#2A95D5"/>
</g>
<path d="M29 14C30.1046 14 31 13.1046 31 12C31 10.8954 30.1046 10 29 10C27.8954 10 27 10.8954 27 12C27 13.1046 27.8954 14 29 14Z" fill="#2B478B"/>
<path d="M29 12L37 4" stroke="white" stroke-width="1.5" stroke-miterlimit="10" stroke-linecap="round"/>
<path d="M12 21L20 29" stroke="white" stroke-width="0.75" stroke-miterlimit="10"/>
<path d="M9 24L17 32" stroke="white" stroke-width="0.75" stroke-miterlimit="10"/>
<path d="M15 18L23 26" stroke="white" stroke-width="0.75" stroke-miterlimit="10"/>
<path d="M32 22C25.3726 22 20 27.3726 20 34L32 22Z" fill="#2A95D5" fill-opacity="0.4"/>
<path d="M34 46C40.6274 46 46 40.6274 46 34C46 27.3726 40.6274 22 34 22C27.3726 22 22 27.3726 22 34C22 40.6274 27.3726 46 34 46Z" fill="#FDA509"/>
<path d="M34 45C40.0751 45 45 40.0751 45 34C45 27.9249 40.0751 23 34 23V45Z" fill="#ED8405"/>
<path d="M28 31.715V31.685C28 30.2 29.05 29 30.565 29C32.08 29 33.1 30.185 33.1 31.655V31.685C33.1 33.17 32.05 34.37 30.535 34.37C29.02 34.37 28 33.185 28 31.715ZM36.715 29.12H38.5L34.3 34.775L30.835 39.62H29.05L33.25 33.965L36.715 29.12ZM29.575 31.655V31.685C29.575 32.39 29.965 33.005 30.565 33.005C31.21 33.005 31.525 32.39 31.525 31.715V31.685C31.525 30.98 31.135 30.365 30.535 30.365C29.89 30.365 29.575 30.95 29.575 31.655ZM34.45 37.085V37.055C34.45 35.57 35.5 34.37 37.015 34.37C38.53 34.37 39.55 35.555 39.55 37.025V37.055C39.55 38.54 38.5 39.74 36.985 39.74C35.47 39.74 34.45 38.555 34.45 37.085ZM37.975 37.085V37.055C37.975 36.35 37.585 35.735 36.985 35.735C36.34 35.735 36.025 36.32 36.025 37.025V37.055C36.025 37.76 36.415 38.375 37.015 38.375C37.66 38.375 37.975 37.76 37.975 37.085Z" fill="white"/>
</svg>
