<svg width="40" height="40" viewBox="0 0 40 40" fill="none" xmlns="http://www.w3.org/2000/svg">
<path d="M20.8125 4.1875L32.5625 9.1875C33.9375 9.8125 35 11.125 35 12.75C34.9375 19 32.375 30.3125 21.625 35.5C20.5625 36 19.375 36 18.3125 35.5C7.5625 30.3125 5 19 5 12.75C4.9375 11.125 6 9.8125 7.375 9.1875L19.125 4.1875C19.375 4.0625 19.6875 4 20 4C20.25 4 20.5625 4.0625 20.8125 4.1875ZM23.5 17C23.5 15.125 21.875 13.5 20 13.5C18.0625 13.5 16.5 15.125 16.5 17C16.5 18.4375 17.3125 19.625 18.5 20.1875V24.5C18.5 25.375 19.125 26 20 26C20.8125 26 21.5 25.375 21.5 24.5V20.1875C22.625 19.625 23.5 18.4375 23.5 17Z" fill="#2A95D5" fill-opacity="0.5"/>
<path d="M21.5 20.1875V24.5C21.5 25.375 20.8125 26 20 26C19.125 26 18.5 25.375 18.5 24.5V20.1875C17.3125 19.625 16.5 18.4375 16.5 17C16.5 15.125 18.0625 13.5 20 13.5C21.875 13.5 23.5 15.125 23.5 17C23.5 18.4375 22.625 19.625 21.5 20.1875Z" fill="#2A95D5"/>
</svg>
