<svg width="40" height="40" viewBox="0 0 40 40" fill="none" xmlns="http://www.w3.org/2000/svg">
<path d="M3.8125 21L7.125 15.4375C7.6875 14.5625 8.625 14 9.6875 14H15.625C14.125 16.5 12.875 19.8125 12 24H5.5625C4 24 3 22.3125 3.8125 21ZM16 28C20.1875 27.125 23.5 25.875 26 24.375V30.3125C26 31.375 25.4375 32.3125 24.5625 32.875L19.0625 36.1875C17.6875 37 16 36 16 34.5V28Z" fill="#2A95D5" fill-opacity="0.5"/>
<path d="M12 24C15.75 6.3125 26 5.3125 32.25 6.25C33 6.375 33.625 7 33.75 7.75C34.6875 14 33.6875 24.25 16 28C16 25.8125 14.1875 24 12 24ZM29 14C29 12.3125 27.6875 11 26 11C24.3125 11 23 12.3125 23 14C23 15.6875 24.3125 17 26 17C27.6875 17 29 15.6875 29 14Z" fill="#2A95D5"/>
</svg>
