<svg width="48" height="48" viewBox="0 0 48 48" fill="none" xmlns="http://www.w3.org/2000/svg">
<g clip-path="url(#clip0_2099_2440)">
<path d="M35.6667 4H12.3333C7.73096 4 4 7.73096 4 12.3333V35.6667C4 40.269 7.73096 44 12.3333 44H35.6667C40.269 44 44 40.269 44 35.6667V12.3333C44 7.73096 40.269 4 35.6667 4Z" stroke="#C1BABF" stroke-width="2" stroke-miterlimit="10"/>
<rect x="2" y="18" width="4" height="12" rx="2" fill="#E01A59"/>
<rect x="30" y="2.00012" width="4" height="12" rx="2" transform="rotate(90 30 2.00012)" fill="#E01A59"/>
<rect x="42" y="18" width="4" height="12" rx="2" fill="#E01A59"/>
<rect x="30" y="42.0001" width="4" height="12" rx="2" transform="rotate(90 30 42.0001)" fill="#E01A59"/>
<path d="M24 4C12.9542 4 4 12.9542 4 24C4 35.0458 12.9542 44 24 44C35.0458 44 44 35.0458 44 24C44 12.9542 35.0458 4 24 4ZM24 36.5C17.0958 36.5 11.5 30.9042 11.5 24C11.5 17.0958 17.0958 11.5 24 11.5C30.9042 11.5 36.5 17.0958 36.5 24C36.5 30.9042 30.9042 36.5 24 36.5Z" fill="white"/>
<path d="M19.7252 12.2501L17.1586 5.20007C11.6169 7.21674 7.22107 11.6167 5.20441 17.1542L12.2544 19.7209C13.5169 16.2584 16.2627 13.5084 19.7252 12.2501Z" fill="#E01A59"/>
<path d="M35.7504 19.7253L42.8004 17.1586C40.7837 11.617 36.3837 7.22113 30.8462 5.20447L28.2795 12.2545C31.742 13.517 34.492 16.2628 35.7504 19.7253Z" fill="#E01A59"/>
<path d="M28.2751 35.7498L30.8418 42.7998C36.3835 40.7831 40.7793 36.3831 42.796 30.8456L35.746 28.2789C34.4835 31.7414 31.7376 34.4914 28.2751 35.7498Z" fill="#E01A59"/>
<path d="M12.2501 28.2751L5.20007 30.8418C7.21674 36.3835 11.6167 40.7793 17.1542 42.796L19.7209 35.746C16.2584 34.4835 13.5084 31.7376 12.2501 28.2751Z" fill="#E01A59"/>
<path opacity="0.2" d="M24 8.58337C15.4875 8.58337 8.58331 15.4875 8.58331 24C8.58331 32.5125 15.4875 39.4167 24 39.4167C32.5125 39.4167 39.4166 32.5125 39.4166 24C39.4166 15.4875 32.5125 8.58337 24 8.58337ZM24 36.5C17.0958 36.5 11.5 30.9042 11.5 24C11.5 17.0959 17.0958 11.5 24 11.5C30.9041 11.5 36.5 17.0959 36.5 24C36.5 30.9042 30.9041 36.5 24 36.5Z" fill="#2A0C27"/>
<path opacity="0.1" d="M24 4C12.9542 4 4 12.9542 4 24C4 35.0458 12.9542 44 24 44C35.0458 44 44 35.0458 44 24C44 12.9542 35.0458 4 24 4ZM24 43.1667C13.4125 43.1667 4.83333 34.5875 4.83333 24C4.83333 13.4125 13.4125 4.83333 24 4.83333C34.5875 4.83333 43.1667 13.4125 43.1667 24C43.1667 34.5875 34.5875 43.1667 24 43.1667Z" fill="#2A0C27"/>
</g>
<defs>
<clipPath id="clip0_2099_2440">
<rect width="48" height="48" fill="white"/>
</clipPath>
</defs>
</svg>
