<svg width="40" height="40" viewBox="0 0 40 40" fill="none" xmlns="http://www.w3.org/2000/svg">
<path d="M6 8C6 5.8125 7.8125 4 10 4H26C28.1875 4 30 5.8125 30 8V17.0625C27.75 17.25 25.75 18 24 19.25V19C24 18.4375 23.5625 18 23 18H21C20.4375 18 20 18.4375 20 19V21C20 21.5625 20.4375 22 21 22H21.25C20.375 23.1875 19.75 24.5625 19.375 26.0625C19.25 26 19.125 26 19 26H17C15.875 26 15 26.875 15 28V33H19.6875C20.0625 34.0625 20.625 35.125 21.25 36H10C7.8125 36 6 34.1875 6 32V8ZM12 11V13C12 13.5625 12.4375 14 13 14H15C15.5625 14 16 13.5625 16 13V11C16 10.4375 15.5625 10 15 10H13C12.4375 10 12 10.4375 12 11ZM12 19V21C12 21.5625 12.4375 22 13 22H15C15.5625 22 16 21.5625 16 21V19C16 18.4375 15.5625 18 15 18H13C12.4375 18 12 18.4375 12 19ZM20 11V13C20 13.5625 20.4375 14 21 14H23C23.5625 14 24 13.5625 24 13V11C24 10.4375 23.5625 10 23 10H21C20.4375 10 20 10.4375 20 11Z" fill="#2A95D5" fill-opacity="0.5"/>
<path d="M31 38C26 38 22 34 22 29C22 24 26 20 31 20C36 20 40 24 40 29C40 34 36 38 31 38ZM34.8125 26.5625C35.125 26.125 35.0625 25.5 34.5625 25.1875C34.125 24.875 33.5 25 33.1875 25.4375L29.875 30L28.1875 28.3125C27.8125 27.9375 27.1875 27.9375 26.8125 28.3125C26.375 28.6875 26.375 29.3125 26.8125 29.6875L29.3125 32.1875C29.5 32.4375 29.8125 32.5 30.0625 32.5C30.375 32.5 30.625 32.3125 30.8125 32.0625L34.8125 26.5625Z" fill="#2A95D5"/>
</svg>
