<svg width="79" height="84" viewBox="0 0 79 84" fill="none" xmlns="http://www.w3.org/2000/svg">
<g filter="url(#filter0_d_2099_2429)">
<path d="M45 15H33V18H45V15Z" fill="#FFE464"/>
<path d="M43 18H35V22H43V18Z" fill="#FDA509"/>
<path d="M50.512 21.6668L57.1777 28.3325L58.8442 26.6661L52.1785 20.0004L50.512 21.6668Z" fill="#33C49E"/>
<path d="M48.8453 25.5562L53.2891 30L56.0664 27.2226L51.6226 22.7788L48.8453 25.5562Z" fill="#258B74"/>
<path d="M39 59C49.4934 59 58 50.4934 58 40C58 29.5066 49.4934 21 39 21C28.5066 21 20 29.5066 20 40C20 50.4934 28.5066 59 39 59Z" fill="#331433"/>
<path d="M39 56C47.8366 56 55 48.8366 55 40C55 31.1634 47.8366 24 39 24C30.1634 24 23 31.1634 23 40C23 48.8366 30.1634 56 39 56Z" fill="white"/>
<path d="M39 24C47.8358 24 55 31.1642 55 40C55 48.8358 47.8358 56 39 56V24Z" fill="#E6E5E5"/>
<path d="M39 41V24C43.5742 24 47.9361 26.04 51 29.6075L39 41Z" fill="#F50057"/>
<path d="M39 25.9104C46.7707 25.9104 53.0896 32.2293 53.0896 40C53.0896 47.7707 46.7707 54.0896 39 54.0896C31.2293 54.0896 24.9104 47.7707 24.9104 40C24.9104 32.2293 31.2293 25.9104 39 25.9104ZM39 24C30.1642 24 23 31.1642 23 40C23 48.8358 30.1642 56 39 56C47.8358 56 55 48.8358 55 40C55 31.1642 47.8358 24 39 24Z" fill="#42C1CF"/>
<path d="M39 43C40.6569 43 42 41.6569 42 40C42 38.3431 40.6569 37 39 37C37.3431 37 36 38.3431 36 40C36 41.6569 37.3431 43 39 43Z" fill="#F50057" stroke="white" stroke-width="2" stroke-miterlimit="10"/>
</g>
<defs>
<filter id="filter0_d_2099_2429" x="-5" y="-2" width="88" height="88" filterUnits="userSpaceOnUse" color-interpolation-filters="sRGB">
<feFlood flood-opacity="0" result="BackgroundImageFix"/>
<feColorMatrix in="SourceAlpha" type="matrix" values="0 0 0 0 0 0 0 0 0 0 0 0 0 0 0 0 0 0 127 0" result="hardAlpha"/>
<feOffset dy="5"/>
<feGaussianBlur stdDeviation="10"/>
<feColorMatrix type="matrix" values="0 0 0 0 0 0 0 0 0 0 0 0 0 0 0 0 0 0 0.15 0"/>
<feBlend mode="normal" in2="BackgroundImageFix" result="effect1_dropShadow_2099_2429"/>
<feBlend mode="normal" in="SourceGraphic" in2="effect1_dropShadow_2099_2429" result="shape"/>
</filter>
</defs>
</svg>
