<svg width="48" height="48" viewBox="0 0 48 48" fill="none" xmlns="http://www.w3.org/2000/svg">
<path d="M30 2H18V5H30V2Z" fill="#FFE464"/>
<path d="M28 5H20V9H28V5Z" fill="#FDA509"/>
<path d="M35.512 8.66682L42.1777 15.3325L43.8442 13.6661L37.1785 7.0004L35.512 8.66682Z" fill="#33C49E"/>
<path d="M33.8453 12.5562L38.2891 17L41.0664 14.2226L36.6226 9.77883L33.8453 12.5562Z" fill="#258B74"/>
<path d="M24 46C34.4934 46 43 37.4934 43 27C43 16.5066 34.4934 8 24 8C13.5066 8 5 16.5066 5 27C5 37.4934 13.5066 46 24 46Z" fill="#331433"/>
<path d="M24 43C32.8366 43 40 35.8366 40 27C40 18.1634 32.8366 11 24 11C15.1634 11 8 18.1634 8 27C8 35.8366 15.1634 43 24 43Z" fill="white"/>
<path d="M24 11C32.8358 11 40 18.1642 40 27C40 35.8358 32.8358 43 24 43V11Z" fill="#E6E5E5"/>
<path d="M24 28V11C28.5742 11 32.9361 13.04 36 16.6075L24 28Z" fill="#F50057"/>
<path d="M24 12.9104C31.7707 12.9104 38.0896 19.2293 38.0896 27C38.0896 34.7707 31.7707 41.0896 24 41.0896C16.2293 41.0896 9.91045 34.7707 9.91045 27C9.91045 19.2293 16.2293 12.9104 24 12.9104ZM24 11C15.1642 11 8 18.1642 8 27C8 35.8358 15.1642 43 24 43C32.8358 43 40 35.8358 40 27C40 18.1642 32.8358 11 24 11Z" fill="#42C1CF"/>
<path d="M24 30C25.6569 30 27 28.6569 27 27C27 25.3431 25.6569 24 24 24C22.3431 24 21 25.3431 21 27C21 28.6569 22.3431 30 24 30Z" fill="#F50057" stroke="white" stroke-width="2" stroke-miterlimit="10"/>
</svg>
