<svg width="40" height="40" viewBox="0 0 40 40" fill="none" xmlns="http://www.w3.org/2000/svg">
<path d="M8 10H32V25H8V10ZM12.4375 16.4375C11.875 17 11.875 18 12.4375 18.5625L15.4375 21.5625C16 22.125 17 22.125 17.5625 21.5625C18.125 21 18.125 20 17.5625 19.4375L15.625 17.5L17.5625 15.5625C18.125 15 18.125 14 17.5625 13.4375C17 12.875 16 12.875 15.4375 13.4375L12.4375 16.4375ZM22.4375 13.4375C21.875 14 21.875 15 22.4375 15.5625L24.375 17.5L22.4375 19.4375C21.875 20 21.875 21 22.4375 21.5625C23 22.125 24 22.125 24.5625 21.5625L27.5625 18.5625C28.125 17.9375 28.125 17 27.5625 16.4375L24.5625 13.4375C24 12.875 23 12.875 22.4375 13.4375Z" fill="#2A95D5" fill-opacity="0.5"/>
<path d="M8 6H32C34.1875 6 36 7.8125 36 10V25H32V10H8V25H4V10C4 7.8125 5.8125 6 8 6ZM1.1875 28H38.8125C39.4375 28 40 28.5625 40 29.1875C40 31.875 37.875 34 35.1875 34H4.8125C2.125 34 0 31.875 0 29.1875C0 28.5625 0.5625 28 1.1875 28Z" fill="#2A95D5"/>
</svg>
