<svg width="48" height="48" viewBox="0 0 48 48" fill="none" xmlns="http://www.w3.org/2000/svg">
<g clip-path="url(#clip0_2099_2445)">
<path d="M24 41C33.3888 41 41 33.3888 41 24C41 14.6112 33.3888 7 24 7C14.6112 7 7 14.6112 7 24C7 33.3888 14.6112 41 24 41Z" fill="#331433"/>
<path d="M24 38.3158C31.9064 38.3158 38.3158 31.9064 38.3158 24C38.3158 16.0936 31.9064 9.6842 24 9.6842C16.0936 9.6842 9.6842 16.0936 9.6842 24C9.6842 31.9064 16.0936 38.3158 24 38.3158Z" fill="#FDA509"/>
<path opacity="0.5" d="M24 10.579C31.4129 10.579 37.4211 16.5871 37.4211 24C37.4211 31.4129 31.4129 37.4211 24 37.4211V10.579Z" fill="#DD6400"/>
<path d="M19.3655 28.335L20.2424 27.2971C21.5487 28.496 22.8013 29.0686 24.5371 29.0686C26.2729 29.0686 27.3287 28.1739 27.3287 26.9392V26.9034C27.3287 25.7402 26.7024 25.096 24.0719 24.5234C21.1908 23.8971 19.8666 22.9665 19.8666 20.9086V20.8729C19.8666 18.9223 21.6024 17.455 23.9824 17.455C25.8255 17.455 27.0961 17.9739 28.3845 18.9939L27.5613 20.0855C26.3982 19.1371 25.235 18.7255 23.9466 18.7255C22.3003 18.7255 21.2803 19.6023 21.2803 20.7476V20.7834C21.2803 21.9644 21.9066 22.6444 24.6803 23.2171C27.4719 23.8434 28.7603 24.8455 28.7603 26.7602V26.796C28.7603 28.9434 26.9708 30.3392 24.4834 30.3392C22.4792 30.3392 20.8687 29.695 19.3655 28.335Z" fill="white"/>
<path d="M24.671 15.9474H23.3289V32.0527H24.671V15.9474Z" fill="white"/>
<path d="M4.06773 27.5157L2.3297 27.8193C2.1141 26.5784 1.99969 25.3024 1.99969 24V23.12H3.75972V24C3.75972 25.2012 3.86532 26.376 4.06773 27.5157Z" fill="#F50057"/>
<path d="M4.98328 30.9215C5.7973 33.1567 6.99851 35.2116 8.50334 37.0024L7.15692 38.1332C5.52009 36.1884 4.21327 33.9532 3.32886 31.5243L4.98328 30.9215Z" fill="#F4AF00"/>
<path d="M10.9979 39.4971C13.6644 41.7411 16.916 43.3075 20.4845 43.9323L20.1809 45.6704C16.3 44.984 12.7668 43.2811 9.86713 40.8435L10.9979 39.4971Z" fill="#89D3DF"/>
<path d="M46 24C46 36.131 36.1307 46.0003 23.9997 46.0003V44.2403C35.1582 44.2403 44.24 35.1585 44.24 24C44.24 22.7988 44.1344 21.6239 43.932 20.4843C43.7296 19.3095 43.4216 18.1743 43.0168 17.0787C42.2027 14.8434 41.0015 12.7886 39.4967 10.9978C38.7399 10.0958 37.9039 9.25975 37.0019 8.50293C34.3354 6.2589 31.0838 4.69248 27.5153 4.06767C26.3757 3.86526 25.2009 3.75966 23.9997 3.75966C19.1068 3.75966 14.4823 5.48449 10.8171 8.63934C10.4299 8.97374 10.0515 9.32135 9.68625 9.68655L9.06584 10.3114L7.82062 9.06614L8.44103 8.44573C8.80623 8.08053 9.18464 7.72412 9.57184 7.38972C13.5759 3.90046 18.6404 1.99963 23.9997 1.99963C25.3021 1.99963 26.5781 2.11404 27.8189 2.32964C31.6998 3.01605 35.233 4.71888 38.1327 7.15651C39.1139 7.97493 40.0247 8.88574 40.8431 9.86695C42.4799 11.8118 43.7868 14.047 44.6712 16.4759C45.1068 17.6683 45.4456 18.9047 45.67 20.1807C45.8856 21.4215 46 22.6976 46 24Z" fill="#63C1A0"/>
<path d="M8.44124 9.68675C8.78445 10.03 9.34326 10.03 9.68646 9.68675C10.3509 9.02234 11.0549 8.41073 11.7941 7.85192L10.5401 6.5979C9.80966 7.16551 9.10565 7.77712 8.44124 8.44153C8.09804 8.78473 8.09804 9.34354 8.44124 9.68675Z" fill="#258B74"/>
<path d="M13.88 11.6972L3.70703 14.4253L6.43067 4.25232L13.88 11.6972Z" fill="#63C1A0"/>
</g>
<defs>
<clipPath id="clip0_2099_2445">
<rect width="48" height="48" fill="white"/>
</clipPath>
</defs>
</svg>
