<svg width="84" height="84" viewBox="0 0 84 84" fill="none" xmlns="http://www.w3.org/2000/svg">
<g filter="url(#filter0_d_2099_2435)">
<path d="M57 15H38V51H64V22L57 15Z" fill="#63C1A0"/>
<path opacity="0.3" fill-rule="evenodd" clip-rule="evenodd" d="M57 22L64 29V22H57Z" fill="#258B74"/>
<path fill-rule="evenodd" clip-rule="evenodd" d="M64 22H57V15L64 22Z" fill="#258B74"/>
<path opacity="0.6" d="M42 23H37V51H50V31L42 23Z" fill="#258B74"/>
<path d="M40 21H20V59H47.9616L48 29L40 21Z" fill="#FDA509"/>
<path opacity="0.3" fill-rule="evenodd" clip-rule="evenodd" d="M40 29L48 37V29H40Z" fill="#DD6400"/>
<path fill-rule="evenodd" clip-rule="evenodd" d="M48 29H40V21L48 29Z" fill="#DD6400"/>
<path d="M43 35H25V36H43V35Z" fill="white"/>
<path d="M43 39H25V40H43V39Z" fill="white"/>
<path d="M43 43H25V44H43V43Z" fill="white"/>
<path d="M43 47H25V48H43V47Z" fill="white"/>
<path d="M43 51H25V52H43V51Z" fill="white"/>
</g>
<defs>
<filter id="filter0_d_2099_2435" x="-2" y="-2" width="88" height="88" filterUnits="userSpaceOnUse" color-interpolation-filters="sRGB">
<feFlood flood-opacity="0" result="BackgroundImageFix"/>
<feColorMatrix in="SourceAlpha" type="matrix" values="0 0 0 0 0 0 0 0 0 0 0 0 0 0 0 0 0 0 127 0" result="hardAlpha"/>
<feOffset dy="5"/>
<feGaussianBlur stdDeviation="10"/>
<feColorMatrix type="matrix" values="0 0 0 0 0 0 0 0 0 0 0 0 0 0 0 0 0 0 0.15 0"/>
<feBlend mode="normal" in2="BackgroundImageFix" result="effect1_dropShadow_2099_2435"/>
<feBlend mode="normal" in="SourceGraphic" in2="effect1_dropShadow_2099_2435" result="shape"/>
</filter>
</defs>
</svg>
