<svg width="255" height="32" viewBox="0 0 255 32" fill="none" xmlns="http://www.w3.org/2000/svg">
<path d="M12.9246 18.328L11.534 23.5173L0.00456238 23.5181L1.39524 18.3287L12.9246 18.328Z" fill="#63C1A0"/>
<path d="M9.9277 29.5114H4.55502L7.55176 18.327H12.9244L9.9277 29.5114Z" fill="#89D3DF"/>
<path d="M27.9791 23.5164L18.3196 23.5179L18.3204 23.5164H16.5049L17.8956 18.3278L29.3691 18.327L27.9791 23.5164Z" fill="#FDA509"/>
<path d="M20.2707 29.5114H14.8988L17.8955 18.327H23.2674L20.2707 29.5114Z" fill="#E01A59"/>
<path d="M30.6135 13.6831L20.6924 13.6846L20.6931 13.6831H19.14L20.5307 8.49447L32.0034 8.49373L30.6135 13.6831Z" fill="#63C1A0"/>
<path d="M27.5124 2.4894L24.5119 13.6834H19.14L22.1404 2.4894H27.5124Z" fill="#89D3DF"/>
<path d="M15.5588 8.49422L14.1682 13.6836L2.63802 13.6843L4.0287 8.49571L15.5588 8.49422Z" fill="#FDA509"/>
<path d="M17.1687 2.4894L14.1683 13.6842H8.79557L11.796 2.4894H17.1687Z" fill="#E01A59"/>
<path d="M42 7.40576H45.796V24.5942H42V7.40576Z" fill="white"/>
<path d="M57.7492 15.7545C58.6859 15.7545 59.4007 15.5335 59.8937 15.0915C60.4031 14.6495 60.6578 14.0602 60.6578 13.3235V13.2744C60.6578 12.4559 60.3949 11.842 59.869 11.4328C59.3432 11.0235 58.6119 10.8189 57.6753 10.8189H53.904V15.7545H57.7492ZM50.108 7.40576H57.9957C60.1812 7.40576 61.8574 7.98689 63.0241 9.14916C64.0101 10.1314 64.503 11.441 64.503 13.078V13.1271C64.503 14.5185 64.158 15.6562 63.4678 16.5402C62.794 17.4078 61.9067 18.0462 60.8057 18.4555L65.0207 24.5942H60.5838L56.8865 19.0939H53.904V24.5942H50.108V7.40576Z" fill="white"/>
<path d="M76.3508 21.4021C77.1067 21.4021 77.8051 21.263 78.4459 20.9847C79.0868 20.7064 79.6291 20.3217 80.0728 19.8306C80.5329 19.3395 80.8862 18.7747 81.1327 18.1363C81.3956 17.4815 81.5271 16.7858 81.5271 16.0491V16C81.5271 15.2634 81.3956 14.5676 81.1327 13.9128C80.8862 13.258 80.5247 12.6851 80.0481 12.194C79.588 11.7029 79.0375 11.3182 78.3966 11.0399C77.7558 10.7452 77.0574 10.5979 76.3015 10.5979C75.5291 10.5979 74.8225 10.7371 74.1817 11.0153C73.5572 11.2936 73.0149 11.6783 72.5548 12.1694C72.1111 12.6605 71.7578 13.2335 71.4949 13.8883C71.2484 14.5267 71.1252 15.2142 71.1252 15.9509V16C71.1252 16.7366 71.2484 17.4324 71.4949 18.0872C71.7578 18.742 72.1193 19.3149 72.5795 19.806C73.056 20.2971 73.6065 20.69 74.2309 20.9847C74.8718 21.263 75.5784 21.4021 76.3508 21.4021ZM76.3015 24.8889C74.9704 24.8889 73.7462 24.6597 72.6288 24.2014C71.5113 23.7266 70.5418 23.0964 69.7202 22.3106C68.915 21.5085 68.2823 20.5754 67.8222 19.5114C67.3785 18.4309 67.1567 17.2769 67.1567 16.0491V16C67.1567 14.7723 67.3867 13.6264 67.8468 12.5623C68.307 11.4819 68.9396 10.5406 69.7448 9.73848C70.5665 8.91998 71.536 8.28155 72.6534 7.82319C73.7873 7.34846 75.0197 7.1111 76.3508 7.1111C77.6818 7.1111 78.9061 7.34846 80.0235 7.82319C81.1409 8.28155 82.1022 8.9118 82.9074 9.71393C83.7291 10.4997 84.3617 11.4328 84.8054 12.5132C85.2655 13.5772 85.4956 14.7231 85.4956 15.9509V16C85.4956 17.2277 85.2655 18.3818 84.8054 19.4623C84.3453 20.5263 83.7044 21.4676 82.8828 22.2861C82.0776 23.0882 81.108 23.7266 79.9742 24.2014C78.8568 24.6597 77.6325 24.8889 76.3015 24.8889Z" fill="white"/>
<path d="M88.8629 7.40576H92.363L100.448 17.989V7.40576H104.195V24.5942H100.966L92.6095 13.6673V24.5942H88.8629V7.40576Z" fill="white"/>
<path d="M111.832 11.7029C111.832 11.31 111.914 10.9417 112.079 10.5979C112.259 10.2541 112.506 9.95948 112.818 9.71393C113.147 9.46838 113.533 9.27194 113.977 9.12461C114.437 8.97728 114.946 8.90361 115.505 8.90361C116.392 8.90361 117.238 9.05094 118.044 9.3456C118.865 9.64026 119.679 10.115 120.484 10.7698L121.618 9.27194C120.73 8.56803 119.81 8.04419 118.857 7.70042C117.92 7.34028 116.819 7.16021 115.554 7.16021C114.732 7.16021 113.977 7.28298 113.286 7.52853C112.596 7.75771 111.996 8.08511 111.487 8.51073C110.978 8.91998 110.583 9.41108 110.304 9.98403C110.024 10.557 109.885 11.1872 109.885 11.8748C109.885 12.595 110 13.2171 110.23 13.7409C110.46 14.2648 110.813 14.7231 111.29 15.116C111.766 15.5089 112.366 15.8445 113.089 16.1228C113.829 16.4011 114.691 16.6466 115.677 16.8594C116.581 17.0559 117.321 17.2605 117.896 17.4733C118.487 17.6861 118.947 17.9235 119.276 18.1854C119.605 18.4473 119.835 18.742 119.966 19.0694C120.098 19.3804 120.163 19.7405 120.163 20.1498C120.163 21.0338 119.81 21.7459 119.103 22.2861C118.413 22.8263 117.485 23.0964 116.318 23.0964C115.119 23.0964 114.059 22.8999 113.138 22.5071C112.218 22.0978 111.306 21.4839 110.402 20.6654L109.195 22.0896C110.23 23.0227 111.314 23.7184 112.448 24.1768C113.599 24.6188 114.864 24.8398 116.244 24.8398C117.099 24.8398 117.887 24.7252 118.611 24.496C119.334 24.2668 119.95 23.9394 120.459 23.5138C120.985 23.0882 121.396 22.5726 121.692 21.9669C121.987 21.3612 122.135 20.69 122.135 19.9534C122.135 18.6274 121.675 17.5879 120.755 16.8349C119.851 16.0819 118.438 15.4925 116.515 15.0669C115.562 14.8705 114.782 14.6658 114.174 14.453C113.566 14.2239 113.089 13.9783 112.744 13.7164C112.399 13.4381 112.161 13.1353 112.029 12.8079C111.898 12.4805 111.832 12.1121 111.832 11.7029Z" fill="white"/>
<path d="M142.93 15.9754C142.93 14.7804 142.717 13.6509 142.29 12.5869C141.879 11.5064 141.287 10.5652 140.515 9.76304C139.743 8.94454 138.814 8.29792 137.73 7.82319C136.661 7.34846 135.47 7.1111 134.155 7.1111C132.841 7.1111 131.641 7.35665 130.557 7.84775C129.472 8.32248 128.544 8.96909 127.771 9.78759C126.999 10.6061 126.399 11.5555 125.972 12.636C125.545 13.7 125.331 14.8295 125.331 16.0246C125.331 17.2196 125.536 18.3573 125.947 19.4377C126.375 20.5017 126.974 21.443 127.747 22.2615C128.519 23.0637 129.439 23.7021 130.507 24.1768C131.592 24.6515 132.792 24.8889 134.106 24.8889C135.421 24.8889 136.62 24.6515 137.705 24.1768C138.789 23.6857 139.718 23.0309 140.49 22.2124C141.263 21.3939 141.862 20.4526 142.29 19.3886C142.717 18.3082 142.93 17.1705 142.93 15.9754ZM140.909 16.0246C140.909 17.0068 140.737 17.9317 140.392 18.7993C140.063 19.6505 139.603 20.3953 139.011 21.0338C138.42 21.6722 137.705 22.1797 136.867 22.5562C136.045 22.9163 135.141 23.0964 134.155 23.0964C133.169 23.0964 132.257 22.9081 131.419 22.5316C130.598 22.1551 129.883 21.6476 129.275 21.0092C128.667 20.3708 128.19 19.6178 127.845 18.7502C127.517 17.8825 127.352 16.9576 127.352 15.9754C127.352 14.9932 127.517 14.0765 127.845 13.2253C128.19 12.3577 128.659 11.6047 129.25 10.9662C129.842 10.3278 130.548 9.82852 131.37 9.46838C132.208 9.09187 133.12 8.90361 134.106 8.90361C135.092 8.90361 135.996 9.09187 136.818 9.46838C137.656 9.84489 138.379 10.3524 138.987 10.9908C139.595 11.6292 140.063 12.3822 140.392 13.2498C140.737 14.1175 140.909 15.0424 140.909 16.0246Z" fill="white"/>
<path d="M159.436 7.40576H147.037V24.5942H148.985V17.105H158.327V15.337H148.985V9.19827H159.436V7.40576Z" fill="white"/>
<path d="M169.745 9.19827H175.538V7.40576H161.981V9.19827H167.773V24.5942H169.745V9.19827Z" fill="white"/>
<path d="M184.915 21.7213L179.985 7.40576H177.865L184.028 24.717H185.655L190.412 10.7698L195.144 24.717H196.796L202.958 7.40576H200.912L195.983 21.7213L191.25 7.35665H189.648L184.915 21.7213Z" fill="white"/>
<path d="M212.487 7.28298H210.663L202.8 24.5942H204.797L206.842 20.0516H216.234L218.255 24.5942H220.35L212.487 7.28298ZM215.47 18.3082H207.607L211.55 9.54204L215.47 18.3082Z" fill="white"/>
<path d="M238.024 24.5942L232.725 17.5715C233.399 17.4569 234.023 17.2605 234.598 16.9822C235.173 16.7039 235.666 16.3601 236.077 15.9509C236.504 15.5253 236.833 15.0342 237.063 14.4776C237.293 13.9046 237.408 13.258 237.408 12.5377C237.408 11.7684 237.26 11.0726 236.964 10.4506C236.669 9.81215 236.25 9.27194 235.707 8.82995C235.165 8.37159 234.508 8.01963 233.735 7.77408C232.98 7.52853 232.125 7.40576 231.172 7.40576H223.753V24.5942H225.7V17.9153H230.63L235.633 24.5942H238.024ZM235.436 12.6114C235.436 13.168 235.321 13.6673 235.091 14.1093C234.878 14.5513 234.574 14.9278 234.179 15.2388C233.785 15.5335 233.316 15.7626 232.774 15.9263C232.232 16.09 231.64 16.1719 230.999 16.1719H225.7V9.19827H231.024C232.421 9.19827 233.505 9.50112 234.278 10.1068C235.05 10.6961 235.436 11.531 235.436 12.6114Z" fill="white"/>
<path d="M254.038 7.40576H241.565V24.5942H254.161V22.8263H243.513V16.8103H252.929V15.0424H243.513V9.17372H254.038V7.40576Z" fill="white"/>
</svg>
