<svg width="96" height="96" viewBox="0 0 96 96" fill="none" xmlns="http://www.w3.org/2000/svg">
<path d="M84.3701 19.8037L59.3091 19.8037L59.3091 76.0344L84.3701 76.0344L84.3701 19.8037Z" fill="#455A64"/>
<path d="M90.948 18.24L84.3695 18.24L84.3695 77.76L90.948 77.76L90.948 18.24Z" fill="#263238"/>
<path d="M6.52222 44.5537L61.03 44.5537V51.2889L6.52222 51.2889V44.5537Z" fill="#331433"/>
<rect x="14.6672" y="39.6975" width="46.3629" height="6.57853" fill="#E01A59"/>
<rect x="14.6672" y="44.5537" width="46.3629" height="1.72295" fill="#D62027"/>
<rect x="18.1154" y="19.8037" width="42.917" height="4.85558" fill="#FFAC06"/>
<rect x="21.4012" y="32.9606" width="39.6278" height="6.73516" fill="#89D3DF"/>
<rect x="21.4012" y="52.8562" width="39.6278" height="6.57853" fill="#89D3DF"/>
<rect x="26.2585" y="59.4393" width="34.7722" height="6.73516" fill="#44B3E6"/>
<rect x="4.80005" y="24.66" width="56.2307" height="6.73516" fill="#FFAC06"/>
<rect x="9.81189" y="29.6737" width="51.2185" height="6.57853" fill="#EA952F"/>
<rect x="11.3785" y="47.8387" width="49.6522" height="6.73516" fill="#9575CD"/>
<rect x="14.6672" y="66.1669" width="46.3629" height="6.57853" fill="#63C1A0"/>
<rect x="9.81189" y="29.6737" width="51.2185" height="1.72295" fill="#E2821A"/>
<rect x="11.3785" y="47.8387" width="49.6522" height="3.44589" fill="#7E57C2"/>
<rect x="18.1154" y="24.66" width="42.917" height="1.72295" fill="#DDA028"/>
<rect x="21.4012" y="32.9606" width="39.6278" height="3.28926" fill="#819C3C"/>
<rect x="21.4012" y="52.8562" width="39.6278" height="1.72295" fill="#44B3E6"/>
<rect x="18.1154" y="69.4631" width="42.917" height="6.57853" fill="#819C3C"/>
<rect x="18.1154" y="69.4631" width="42.917" height="3.28926" fill="#258B74"/>
</svg>
