<svg width="96" height="96" viewBox="0 0 96 96" fill="none" xmlns="http://www.w3.org/2000/svg">
<path d="M27.4971 14.88H14.88V27.4971H18.0343V18.0343H27.4971V14.88Z" fill="#BFBFBF"/>
<path d="M68.5031 14.88H81.1203V27.4971H77.966V18.0343H68.5031V14.88Z" fill="#BFBFBF"/>
<path d="M27.497 21.1893H21.1884V27.4979H27.497V21.1893Z" fill="#F30057"/>
<path d="M74.8117 21.1893H68.5031V27.4979H74.8117V21.1893Z" fill="#89D3DF"/>
<path d="M27.4971 81.1203H14.88V68.5032H18.0343V77.966H27.4971V81.1203Z" fill="#BFBFBF"/>
<path d="M68.5031 81.1203H81.1203V68.5032H77.966V77.966H68.5031V81.1203Z" fill="#BFBFBF"/>
<path d="M27.497 68.5032H21.1884V74.8117H27.497V68.5032Z" fill="#F30057"/>
<path d="M40.1144 30.6506H30.6516V40.1135H40.1144V30.6506Z" fill="#FFA100"/>
<path d="M74.8113 30.6506H65.3484V40.1135H74.8113V30.6506Z" fill="#2A0B27"/>
<path d="M74.8113 40.1138H65.3484V65.3481H74.8113V40.1138Z" fill="#BF0000"/>
<path d="M40.1144 40.1138H30.6516V65.3481H40.1144V40.1138Z" fill="#00A28A"/>
<path d="M30.6513 40.1138H21.1884V65.3481H30.6513V40.1138Z" fill="#71D4E0"/>
<path d="M65.3481 21.1893H40.1138V30.6522H65.3481V21.1893Z" fill="#34C39D"/>
<path d="M65.3481 30.6506H40.1138V40.1135H65.3481V30.6506Z" fill="#5A7F00"/>
<path d="M40.1144 65.3494H30.6516V74.8122H40.1144V65.3494Z" fill="#34C39D"/>
<path d="M74.8113 65.3494H65.3484V74.8122H74.8113V65.3494Z" fill="#F40057"/>
<path d="M65.3481 65.3494H40.1138V74.8122H65.3481V65.3494Z" fill="#FFA100"/>
<path d="M65.3481 40.1138H40.1138V65.3481H65.3481V40.1138Z" fill="#2A0B27"/>
<path d="M62.1948 55.8862H55.8863V62.1948H62.1948V55.8862Z" fill="white"/>
</svg>
