<svg width="96" height="96" viewBox="0 0 96 96" fill="none" xmlns="http://www.w3.org/2000/svg">
<path d="M33.5775 43.8725V35.8538H28.7228V43.8725H33.5775Z" fill="#FDA509"/>
<path d="M28.7234 38.7994V43.8729H33.5781V38.7994H36.2862V46.8182H26.0184V38.7994H28.7234Z" fill="#009480"/>
<path d="M12.1481 30.1282V38.147H17.0028V30.1282H12.1481Z" fill="#FDA509"/>
<path d="M19.7103 27.1819V35.2006H17.0021V30.1272H12.1474V35.2006H9.4425V27.1819H19.7103Z" fill="#63C1A0"/>
<path d="M2.40002 30.1282L2.40002 38.147H5.95389V30.1282H2.40002Z" fill="#FDA509"/>
<path d="M8.65883 27.1819H2.40002V35.2006H8.65883V27.1819Z" fill="#FDA509"/>
<path d="M34.2488 30.1319V38.1506H39.1035V30.1319H34.2488Z" fill="#FDA509"/>
<path d="M41.8096 27.1819V35.2006H39.1047V30.1272H34.25V35.2006H31.545V27.1819H41.8096Z" fill="#63C1A0"/>
<path d="M22.5291 43.8689V35.8501H17.6744V43.8689H22.5291Z" fill="#FDA509"/>
<path d="M17.6741 38.7994V43.8729H22.5288V38.7994H25.2337V46.8182H14.9691V38.7994H17.6741Z" fill="#63C1A0"/>
<path d="M11.4807 43.8725V35.8538H6.62596L6.62596 43.8725H11.4807Z" fill="#FDA509"/>
<path d="M6.62206 38.7994V43.8729H11.48V38.7994H14.1849V46.8182H2.40002V38.7994H6.62206Z" fill="#FDA509"/>
<path d="M23.2003 30.1319V38.1506H28.055V30.1319H23.2003Z" fill="#FDA509"/>
<path d="M30.7597 27.1819V35.2006H28.0547V30.1272H23.1968V35.2006H20.4919V27.1819H30.7597Z" fill="#009480"/>
<path d="M55.6791 43.8689V35.8501H50.8244V43.8689H55.6791Z" fill="#FDA509"/>
<path d="M50.8249 38.7994V43.8729H55.6796V38.7994H58.3846V46.8182H48.12V38.7994H50.8249Z" fill="#009480"/>
<path d="M56.3503 30.1319V38.1506H61.205V30.1319H56.3503Z" fill="#FDA509"/>
<path d="M63.9097 27.1819V35.2006H61.2048V30.1272H56.3501V35.2006H53.6419V27.1819H63.9097Z" fill="#63C1A0"/>
<path d="M44.6307 43.8725V35.8538H39.776V43.8725H44.6307Z" fill="#FDA509"/>
<path d="M39.7751 38.7994V43.8729H44.6298V38.7994H47.3347V46.8182H37.0669V38.7994H39.7751Z" fill="#63C1A0"/>
<path d="M45.2982 30.1282V38.147H50.1529V30.1282H45.2982Z" fill="#FDA509"/>
<path d="M52.8613 27.1819V35.2006H50.1531V30.1272H45.2984V35.2006H42.5934V27.1819H52.8613Z" fill="#009480"/>
<path d="M66.7312 43.8726V35.8539H61.8765V43.8726H66.7312Z" fill="#FDA509"/>
<path d="M61.8734 38.7994V43.8729H66.7313V38.7994H69.4363V46.8182H59.1685V38.7994H61.8734Z" fill="#63C1A0"/>
<path d="M79.0481 23.9146L84.1988 30.0582L87.9182 26.9368L82.7675 20.7932L79.0481 23.9146Z" fill="#FDA509"/>
<path d="M82.9419 16.8L88.0935 22.9425L86.0212 24.6832L82.7643 20.7981L79.0426 23.9178L82.3027 27.806L80.2305 29.5467L75.0788 23.4011L82.9419 16.8Z" fill="#63C1A0"/>
<path d="M68.2426 29.0255L70.9838 36.5607L75.5457 34.8994L72.8045 27.3643L68.2426 29.0255Z" fill="#FDA509"/>
<path d="M74.3398 23.67L77.0835 31.2076L74.54 32.1312L72.8066 27.3645L68.2424 29.0277L69.979 33.7944L67.4355 34.718L64.695 27.1837L74.3398 23.67Z" fill="#009480"/>
<path d="M78.3301 46.6365L81.0713 39.1013L76.5094 37.4401L73.7682 44.9753L78.3301 46.6365Z" fill="#FDA509"/>
<path d="M75.5009 40.2068L73.7676 44.9735L78.3317 46.6367L80.0651 41.87L82.6054 42.7936L79.865 50.3312L70.2169 46.8175L72.9606 39.2832L75.5009 40.2068Z" fill="#009480"/>
<path d="M88.29 53.1919L93.4332 47.042L89.7099 43.9251L84.5667 50.075L88.29 53.1919Z" fill="#FDA509"/>
<path d="M87.8214 46.1863L84.5677 50.0778L88.2894 53.1942L91.5431 49.3027L93.6186 51.0402L88.4766 57.1923L80.6006 50.601L85.7458 44.4489L87.8214 46.1863Z" fill="#63C1A0"/>
<path d="M63.91 43.0067V31.1255L62.9126 30.1276H24.6432V43.8721H63.045L63.91 43.0067Z" fill="#E6900C"/>
<path d="M50.282 56.6425H36.1376C34.9368 54.4529 33.1712 52.6185 31.0408 51.33C29.1525 50.19 26.9769 49.4795 24.6432 49.3342V43.8732H63.045L50.282 56.6425Z" fill="#FDA509"/>
<path d="M31.0408 22.668C33.1712 21.3794 34.9368 19.5483 36.1376 17.3588H50.1465L59.2006 26.4142L62.9126 30.128H24.6432V24.667C26.9769 24.5217 29.1525 23.808 31.0408 22.668Z" fill="#FDA509"/>
<path d="M48.3322 79.1069V26.5312H27.406V79.1069H48.3322ZM44.7364 75.5092H31.0051V68.2333H44.7364V75.5092ZM44.7364 30.1289V43.9606H31.0051V30.1289H44.7364Z" fill="#E01A59"/>
<path d="M56.2923 41.147V32.8538H33.7909V41.147H56.2923Z" fill="#800050"/>
</svg>
