<svg width="96" height="96" viewBox="0 0 96 96" fill="none" xmlns="http://www.w3.org/2000/svg">
<path d="M74.6759 53.0639L71.4647 57.5296L76.6709 64.6342L83.0399 50.6494L74.6759 53.0639Z" fill="#258B74"/>
<path d="M44.6248 20.9586L38.2237 20.4244L46.2357 33.5866L49.3508 27.3901L44.6248 20.9586Z" fill="#63C1A0"/>
<path d="M76.6712 64.6339L71.4651 57.5293L69.3207 54.602L65.2667 49.0786L65.2454 49.0893L65.2667 49.0786L53.4035 32.925L50.235 40.1578L56.6574 50.6811H56.636L60.562 57.1234L65.7041 65.5741L68.5846 61.5571L65.7041 65.5741L76.6712 64.6339Z" fill="#63C1A0"/>
<path d="M23.1484 67.905L12.48 70.9819L22.3482 81.1207L26.5409 72.7768L23.1484 67.905Z" fill="#331433"/>
<path d="M44.6238 52.9123L35.6944 54.5682L16.3419 58.1686L12.48 70.9782L23.1484 67.9014L29.9761 65.9356L40.1858 62.9976L60.5624 57.1216L56.6364 50.6794L44.6238 52.9123Z" fill="#E01A59"/>
<path d="M79.4131 46.4587L65.2669 49.0762L69.3209 54.5996L74.6764 53.0612L83.0404 50.6467L79.4131 46.4587Z" fill="#E01A59"/>
<path d="M58.1726 22.0896L52.2623 21.5981L49.3499 27.3887L46.2347 33.5852L35.6944 54.5678L44.6238 52.9118L50.2354 40.1556L53.4039 32.9228L58.1726 22.0896Z" fill="#FDA509"/>
<path d="M29.976 65.9362L26.5408 72.7737L28.2264 75.1882L26.5408 72.7737L22.3481 81.1176L32.2804 80.9787L40.1856 62.9982L29.976 65.9362Z" fill="#FDA509"/>
<path d="M55.6345 14.88L40.8695 15.8415L38.2237 20.4248L58.1736 22.0914L55.6345 14.88Z" fill="#89D3DF"/>
</svg>
