<svg width="96" height="96" viewBox="0 0 96 96" fill="none" xmlns="http://www.w3.org/2000/svg">
<path d="M24.6612 77.7607H12.6075V48.0018H83.0687V77.7607H24.6612Z" fill="#F7F7F7"/>
<path d="M50.8216 48.0018H48.8335V66.5912H50.8216V48.0018Z" fill="#90A4AE"/>
<path d="M57.7818 48.0018H52.8103V66.5912H57.7818V48.0018Z" fill="#90A4AE"/>
<path d="M68.6941 48.0018H66.7059V66.5912H68.6941V48.0018Z" fill="#90A4AE"/>
<path d="M64.7406 48.0018H62.7525V66.5912H64.7406V48.0018Z" fill="#90A4AE"/>
<path d="M50.8216 68.5443H48.8335V70.3831H50.8216V68.5443Z" fill="#90A4AE"/>
<path d="M68.6941 68.5443H66.7059V70.3831H68.6941V68.5443Z" fill="#90A4AE"/>
<path d="M70.6838 48.0018V70.3802H75.6529V48.0018H70.6838Z" fill="#90A4AE"/>
<path d="M57.7818 68.5443H52.8103V70.3831H57.7818V68.5443Z" fill="#90A4AE"/>
<path d="M64.7406 68.5443H62.7525V70.3831H64.7406V68.5443Z" fill="#90A4AE"/>
<path d="M35.9346 48.0018H33.9441V66.5912H35.9346V48.0018Z" fill="#90A4AE"/>
<path d="M28.9731 48.0018H26.985V66.5912H28.9731V48.0018Z" fill="#90A4AE"/>
<path d="M46.8449 48.0018H41.8734V66.5912H46.8449V48.0018Z" fill="#90A4AE"/>
<path d="M39.8856 48.0018H37.8975V66.5912H39.8856V48.0018Z" fill="#90A4AE"/>
<path d="M28.9731 68.5443H26.985V70.3831H28.9731V68.5443Z" fill="#90A4AE"/>
<path d="M24.9965 48.0018H20.025V70.3802H24.9965V48.0018Z" fill="#90A4AE"/>
<path d="M46.8449 68.5443H41.8734V70.3831H46.8449V68.5443Z" fill="#90A4AE"/>
<path d="M39.8856 68.5443H37.8975V70.3831H39.8856V68.5443Z" fill="#90A4AE"/>
<path d="M35.9345 68.5443H33.9441V70.3831H35.9345V68.5443Z" fill="#90A4AE"/>
<path d="M24.6612 48.0011H12.6075V18.24H83.0687V48.0011H24.6612Z" fill="#331433"/>
<path d="M24.9965 25.62H20.025V47.9983H24.9965V25.62Z" fill="#FDA509"/>
<path d="M28.9731 25.62H26.985V47.9983H28.9731V25.62Z" fill="#FDA509"/>
<path d="M35.9345 25.62H33.9441V47.9983H35.9345V25.62Z" fill="#5A7F00"/>
<path d="M39.8856 25.62H37.8975V47.9983H39.8856V25.62Z" fill="#89D3DF"/>
<path d="M46.8449 25.62H41.8734V47.9983H46.8449V25.62Z" fill="#E01A59"/>
<path d="M50.8216 25.62H48.8335V47.9983H50.8216V25.62Z" fill="#7458BC"/>
<path d="M57.7808 25.62H52.8094V47.9983H57.7808V25.62Z" fill="#89D3DF"/>
<path d="M64.7406 25.62H62.7525V47.9983H64.7406V25.62Z" fill="#35A08C"/>
<path d="M68.6941 25.62H66.7059V47.9983H68.6941V25.62Z" fill="#35A08C"/>
<path d="M75.6529 25.62H70.6838V47.9983H75.6529V25.62Z" fill="#63C1A0"/>
<path d="M83.0687 45.2006H12.6075V50.8004H83.0687V45.2006Z" fill="#E01A59"/>
<path d="M87.9962 47.1843H7.68001V48.8164H87.9962V47.1843Z" fill="#E01A59"/>
</svg>
