<svg width="96" height="96" viewBox="0 0 96 96" fill="none" xmlns="http://www.w3.org/2000/svg">
<path d="M0.47998 55.0652L18.5198 40.9821L78.8846 36.06L73.7522 43.8266L0.47998 55.0652Z" fill="#258B74"/>
<path d="M35.6417 50.7127L0.47998 55.0632L19.4796 42.6393L35.6417 50.7127Z" fill="#331433"/>
<path d="M19.4794 42.6446L89.4691 77.6432L95.5195 76.8066L79.6911 38.3081L19.4794 42.6446Z" fill="#89D3DF"/>
<path d="M88.023 58.5763L61.6378 63.7215L84.3233 37.3401L91.6811 36.615L88.023 58.5763Z" fill="#E01A59"/>
<path d="M67.3682 33.0063L50.1628 35.809L66.019 18.6304L70.2195 18.24L67.3682 33.0063Z" fill="#FDA509"/>
<path d="M18.5212 40.9785L52.3199 33.5465L67.3833 32.9888L78.886 36.0564L18.5212 40.9785Z" fill="#63C1A0"/>
<path d="M89.4696 77.636L61.6378 63.7202L88.023 58.575L95.52 76.7994L89.4696 77.636Z" fill="#D62027"/>
</svg>
