<svg width="96" height="96" viewBox="0 0 96 96" fill="none" xmlns="http://www.w3.org/2000/svg">
<path d="M66.1859 32.0533H29.3859V14.88H58.8259L66.1859 22.24V32.0533Z" fill="#FDA509"/>
<path d="M29.3866 25.92H24.48V32.0534H29.3866V25.92Z" fill="#E01A59"/>
<path d="M71.0942 25.92H66.1875V32.0534H71.0942V25.92Z" fill="#E01A59"/>
<path d="M82.1333 32.0531H13.44V49.2264H82.1333V32.0531Z" fill="#89D3DF"/>
<path d="M66.1859 32.0531H29.3859V46.7731H66.1859V32.0531Z" fill="#888908"/>
<path d="M55.1469 38.1863H40.4269V40.6396H55.1469V38.1863Z" fill="white"/>
<path d="M82.1333 49.2263H13.44V66.3997H82.1333V49.2263Z" fill="#63C1A0"/>
<path d="M58.8262 14.88L66.1862 22.24H58.8262V14.88Z" fill="#E01A59"/>
<path d="M71.0933 56.5875H24.48V60.2675H71.0933V56.5875Z" fill="#009380"/>
<path d="M29.3859 58.4269H35.5193V81.1202H33.0659C31.0358 81.1202 29.3859 79.4703 29.3859 77.4402V58.4269Z" fill="#5B105E"/>
<path d="M41.6534 58.4269H35.52V81.1202H41.6534V58.4269Z" fill="#E01A59"/>
<path d="M47.7865 58.4269H41.6531V81.1202H47.7865V58.4269Z" fill="#FDA509"/>
<path d="M53.9196 58.4269H47.7863V81.1202H53.9196V58.4269Z" fill="#89D3DF"/>
<path d="M60.0536 58.4269H53.9203V81.1202H60.0536V58.4269Z" fill="#63C1A0"/>
<path d="M66.1868 58.4269H60.0535V81.1202H66.1868V58.4269Z" fill="#009380"/>
<path d="M36.7465 71.9194V77.4394C36.7465 79.4726 35.0997 81.1194 33.0665 81.1194H69.8665C71.8997 81.1194 73.5465 79.4726 73.5465 77.4394V71.9194H36.7465Z" fill="#D3D3D3"/>
<path d="M73.5472 70.6931H36.7472V71.9198H73.5472V70.6931Z" fill="white"/>
<path d="M75.3871 41.2536C76.742 41.2536 77.8404 40.1552 77.8404 38.8003C77.8404 37.4453 76.742 36.3469 75.3871 36.3469C74.0322 36.3469 72.9338 37.4453 72.9338 38.8003C72.9338 40.1552 74.0322 41.2536 75.3871 41.2536Z" fill="white"/>
<path opacity="0.15" d="M66.1859 58.4269H29.3859V66.4002H66.1859V58.4269Z" fill="black"/>
</svg>
