<svg width="128" height="128" viewBox="0 0 128 128" fill="none" xmlns="http://www.w3.org/2000/svg">
<path d="M52.0807 73.3744L46.6918 93.483L2.01562 93.4859L7.40449 73.3773L52.0807 73.3744Z" fill="#63C1A0"/>
<path d="M40.4694 116.71H19.6504L31.2627 73.3706H52.0818L40.4694 116.71Z" fill="#89D3DF"/>
<path d="M110.42 93.4792L72.9891 93.485L72.992 93.4792H65.957L71.3459 73.3735L115.805 73.3706L110.42 93.4792Z" fill="#FDA509"/>
<path d="M80.5515 116.71H59.7354L71.3477 73.3706H92.1639L80.5515 116.71Z" fill="#E01A59"/>
<path d="M120.63 55.3751L82.1855 55.3809L82.1884 55.3751H76.1699L81.5588 35.2694L126.015 35.2665L120.63 55.3751Z" fill="#63C1A0"/>
<path d="M108.613 12L96.9861 55.3766H76.1699L87.7967 12H108.613Z" fill="#89D3DF"/>
<path d="M62.2935 35.2684L56.9047 55.377L12.2256 55.3799L17.6145 35.2742L62.2935 35.2684Z" fill="#FDA509"/>
<path d="M68.5308 12L56.904 55.3795H36.085L47.7117 12H68.5308Z" fill="#E01A59"/>
</svg>
