<svg viewBox="100 130 800 315" fill="none" xmlns="http://www.w3.org/2000/svg">
<path fill-rule="evenodd" clip-rule="evenodd" d="M593.81 140.791C611.178 143.754 626.909 150.597 640.282 160.417L640.288 160.411C645.415 155.175 652.5 152.06 659.819 151.718C665.586 151.449 671.549 152.878 676.861 156.376C678.693 154.544 680.526 152.712 682.357 150.879C687.616 145.301 695.131 141.773 703.446 141.772H737.696C745.724 141.772 753.336 145.096 758.777 150.859C761.667 153.918 764.046 157.517 766.592 160.865L775.03 171.964L794.437 152.55C796.388 150.617 798.261 148.619 800.555 147.082C805.259 143.76 811.04 141.773 817.26 141.772H853.642C869.644 141.772 882.638 154.741 882.641 170.763V339.933C882.641 348.281 879.085 355.756 873.568 360.976C863.033 371.511 852.503 382.051 841.972 392.59C838.995 395.561 836.021 398.535 833.048 401.509C827.588 406.972 822.132 412.438 816.672 417.9C813.476 421.098 810.431 424.513 806.55 426.903C802.001 429.704 796.714 431.25 791.319 431.25H759.894C750.849 431.249 742.318 427.025 736.834 419.83L736.832 419.828L721.312 399.457L703.447 417.393C699.959 420.895 696.65 424.563 692.375 427.128C688.058 429.717 682.973 431.25 677.507 431.25H641.124C629.358 431.248 619.228 424.238 614.683 414.165C610.806 416.76 607.02 419.675 602.638 421.373C592.178 425.427 580.801 422.802 572.988 415.889C565.928 420.5 558.354 424.336 550.432 427.232C542.119 430.271 533.445 432.309 524.648 433.316C513.525 434.588 502.179 434.261 491.156 432.325C471.803 428.925 454.503 420.7 440.259 408.937C437.323 411.811 434.534 414.831 431.653 417.76C428.518 420.947 425.311 424.273 421.497 426.658C417.103 429.406 411.857 431.047 406.158 431.048H362.98C353.305 431.046 344.266 426.217 338.886 418.177L338.884 418.173L332.125 408.069L321.041 419.199C319.06 421.188 317.156 423.301 314.883 424.964C310.011 428.741 303.84 431.048 297.135 431.048H260.146C251.816 431.046 244.308 427.529 239.02 421.903C236.548 424.391 233.761 426.56 230.621 428.147C226.724 430.116 222.298 431.25 217.595 431.25H180.515C172.41 431.248 164.586 427.777 159.142 421.816C151.436 413.377 151.617 402.813 151.617 400.394V354.266C149.54 353.78 147.473 353.056 145.452 352.069L125.745 342.436L125.739 342.432C107.18 333.352 104.379 309.264 118.098 295.751L131.619 282.221L124.762 263.336V263.332C121.295 253.777 123.224 243.934 128.385 236.667C129.115 235.587 130.067 234.361 131.296 233.13L189.339 175.061C195.357 169.064 201.164 163.801 209.952 162.454L209.96 162.452C210.018 162.443 210.075 162.429 210.132 162.42L218.381 154.17C221.159 151.392 223.826 148.401 227.234 146.373C231.764 143.461 237.162 141.773 242.894 141.772H279.311C287.551 141.618 295.594 144.883 301.197 150.98C306.872 145.293 314.326 141.773 322.47 141.772H399.791C411.782 141.772 423.262 143.217 434.091 146.557L434.093 146.555C441.08 148.586 447.821 151.544 454.063 155.284C456.318 153.029 458.474 150.604 460.945 148.579C464.532 145.637 468.823 143.713 473.485 143.143C479.725 141.974 486.5 142.813 492.511 146.023C496.573 148.192 499.698 151.46 502.793 154.785L507.942 160.316C521.217 150.564 536.784 143.715 553.917 140.681C567.211 138.326 580.509 138.521 593.81 140.791Z" fill="url(#paint0_linear_706_1402)"/>
<path fill-rule="evenodd" clip-rule="evenodd" d="M593.81 140.791C611.178 143.754 626.909 150.597 640.282 160.417L640.288 160.411C645.415 155.175 652.5 152.06 659.819 151.718C665.586 151.449 671.549 152.878 676.861 156.376C678.693 154.544 680.526 152.712 682.357 150.879C687.616 145.301 695.131 141.773 703.446 141.772H737.696C745.724 141.772 753.336 145.096 758.777 150.859C761.667 153.918 764.046 157.517 766.592 160.865L775.03 171.964L794.437 152.55C796.388 150.617 798.261 148.619 800.555 147.082C805.259 143.76 811.04 141.773 817.26 141.772H853.642C869.644 141.772 882.638 154.741 882.641 170.763V339.933C882.641 348.281 879.085 355.756 873.568 360.976C863.033 371.511 852.503 382.051 841.972 392.59C838.995 395.561 836.021 398.535 833.048 401.509C827.588 406.972 822.132 412.438 816.672 417.9C813.476 421.098 810.431 424.513 806.55 426.903C802.001 429.704 796.714 431.25 791.319 431.25H759.894C750.849 431.249 742.318 427.025 736.834 419.83L736.832 419.828L721.312 399.457L703.447 417.393C699.959 420.895 696.65 424.563 692.375 427.128C688.058 429.717 682.973 431.25 677.507 431.25H641.124C629.358 431.248 619.228 424.238 614.683 414.165C610.806 416.76 607.02 419.675 602.638 421.373C592.178 425.427 580.801 422.802 572.988 415.889C565.928 420.5 558.354 424.336 550.432 427.232C542.119 430.271 533.445 432.309 524.648 433.316C513.525 434.588 502.179 434.261 491.156 432.325C471.803 428.925 454.503 420.7 440.259 408.937C437.323 411.811 434.534 414.831 431.653 417.76C428.518 420.947 425.311 424.273 421.497 426.658C417.103 429.406 411.857 431.047 406.158 431.048H362.98C353.305 431.046 344.266 426.217 338.886 418.177L338.884 418.173L332.125 408.069L321.041 419.199C319.06 421.188 317.156 423.301 314.883 424.964C310.011 428.741 303.84 431.048 297.135 431.048H260.146C251.816 431.046 244.308 427.529 239.02 421.903C236.548 424.391 233.761 426.56 230.621 428.147C226.724 430.116 222.298 431.25 217.595 431.25H180.515C172.41 431.248 164.586 427.777 159.142 421.816C151.436 413.377 151.617 402.813 151.617 400.394V354.266C149.54 353.78 147.473 353.056 145.452 352.069L125.745 342.436L125.739 342.432C107.18 333.352 104.379 309.264 118.098 295.751L131.619 282.221L124.762 263.336V263.332C121.295 253.777 123.224 243.934 128.385 236.667C129.115 235.587 130.067 234.361 131.296 233.13L189.339 175.061C195.357 169.064 201.164 163.801 209.952 162.454L209.96 162.452C210.018 162.443 210.075 162.429 210.132 162.42L218.381 154.17C221.159 151.392 223.826 148.401 227.234 146.373C231.764 143.461 237.162 141.773 242.894 141.772H279.311C287.551 141.618 295.594 144.883 301.197 150.98C306.872 145.293 314.326 141.773 322.47 141.772H399.791C411.782 141.772 423.262 143.217 434.091 146.557L434.093 146.555C441.08 148.586 447.821 151.544 454.063 155.284C456.318 153.029 458.474 150.604 460.945 148.579C464.532 145.637 468.823 143.713 473.485 143.143C479.725 141.974 486.5 142.813 492.511 146.023C496.573 148.192 499.698 151.46 502.793 154.785L507.942 160.316C521.217 150.564 536.784 143.715 553.917 140.681C567.211 138.326 580.509 138.521 593.81 140.791Z" fill="white" fill-opacity="0.3"/>
<path d="M583.047 161.317C606.668 163.519 626.723 174.437 641.067 190.609L641.784 189.892C642.01 189.631 642.252 189.388 642.511 189.165L645.277 186.396C645.47 186.175 645.678 185.97 645.895 185.777L648.756 182.917C648.941 182.707 649.138 182.509 649.344 182.325L652.235 179.434C652.412 179.235 652.601 179.051 652.797 178.876L655.782 175.887C655.913 175.744 656.05 175.608 656.191 175.478L656.367 175.305C656.514 175.159 656.68 175.04 656.851 174.94C659.389 173.116 663.051 173.015 665.686 175.329L666.075 175.698L677.219 186.998L677.257 186.964C677.483 186.696 677.734 186.451 677.997 186.22L680.817 183.4C681.024 183.165 681.247 182.944 681.483 182.737L684.3 179.917C684.49 179.702 684.693 179.499 684.908 179.309L687.779 176.435C687.965 176.227 688.162 176.031 688.371 175.846L691.262 172.952C691.427 172.769 691.599 172.593 691.783 172.428L694.741 169.466C694.894 169.298 695.056 169.139 695.225 168.986L698.132 166.075C699.431 164.6 701.332 163.671 703.451 163.67H737.697C739.913 163.67 742.004 164.708 743.347 166.474L772.781 205.192L812.422 165.534C812.569 165.386 812.737 165.271 812.909 165.172C814.111 164.233 815.621 163.671 817.264 163.67H853.643C857.562 163.67 860.743 166.848 860.744 170.768V339.932C860.744 342.05 859.81 343.943 858.336 345.24L851.909 351.668C851.789 351.798 851.666 351.924 851.537 352.044L848.433 355.151C848.323 355.268 848.208 355.38 848.091 355.489L844.953 358.63C844.854 358.736 844.751 358.838 844.646 358.938L841.477 362.11C841.388 362.204 841.295 362.294 841.2 362.383L824.088 379.506C824.05 379.544 824.011 379.58 823.973 379.618L796.368 407.239C796.361 407.246 796.351 407.249 796.344 407.256C795.061 408.549 793.286 409.352 791.32 409.352H759.898C757.683 409.352 755.593 408.317 754.251 406.556L723.519 366.221L721.027 368.72C720.774 369.021 720.494 369.296 720.195 369.552L717.409 372.348C717.24 372.537 717.063 372.716 716.875 372.886L713.808 375.966C713.726 376.053 713.641 376.137 713.554 376.22L682.805 407.087C682.664 407.229 682.503 407.338 682.339 407.435C681.073 408.62 679.378 409.352 677.507 409.352H641.128C637.209 409.352 634.031 406.174 634.031 402.255V371.097L623.204 381.93C623.197 381.938 623.184 381.94 623.177 381.947C622.838 382.291 622.457 382.613 622.027 382.901L596.255 400.149C591.537 403.304 585.204 399.918 585.212 394.238L585.232 375.898C584.946 376.183 584.665 376.462 584.434 376.686C584.182 376.932 583.919 377.184 583.65 377.44C583.636 377.454 583.62 377.467 583.606 377.481C583.552 377.538 583.498 377.596 583.444 377.653L582.416 378.712C582.36 378.768 582.075 379.062 581.909 379.229C581.578 379.56 581.239 379.889 580.972 380.149C580.72 380.394 580.457 380.647 580.188 380.903C580.173 380.916 580.158 380.93 580.144 380.943C580.09 381 580.036 381.058 579.981 381.116L578.953 382.174C578.898 382.231 578.612 382.525 578.446 382.691C578.115 383.023 577.776 383.351 577.51 383.611C577.257 383.856 576.994 384.109 576.725 384.365C576.706 384.384 576.684 384.401 576.664 384.419C576.615 384.471 576.568 384.526 576.519 384.578L575.491 385.636C575.435 385.693 575.15 385.987 574.984 386.154C574.653 386.485 574.314 386.814 574.047 387.073C573.795 387.319 573.532 387.572 573.263 387.827C572.989 388.087 572.719 388.339 572.465 388.575C572.243 388.78 571.994 389.012 571.738 389.244C571.425 389.527 571.116 389.799 570.828 390.052C570.599 390.254 570.316 390.503 570.03 390.749C569.821 390.929 569.604 391.115 569.381 391.303C569.06 391.574 568.744 391.836 568.458 392.071C568.152 392.322 567.825 392.589 567.488 392.859C567.203 393.085 566.919 393.306 566.642 393.521L565.739 394.218C565.534 394.374 565.252 394.587 564.979 394.789C564.59 395.077 564.175 395.371 563.886 395.577C563.802 395.638 563.425 395.915 563.193 396.078C562.781 396.367 562.343 396.659 562.034 396.869C561.97 396.912 561.907 396.958 561.787 397.041L561.364 397.329C560.975 397.588 560.58 397.84 560.262 398.046C560.016 398.204 559.72 398.395 559.42 398.583C559.102 398.783 558.737 399.003 558.527 399.131C558.228 399.314 557.869 399.536 557.503 399.753C557.246 399.905 556.957 400.071 556.783 400.172C555.127 401.133 553.429 402.049 551.687 402.911C551.272 403.117 550.863 403.31 550.487 403.489C550.224 403.614 549.957 403.74 549.689 403.865C549.353 404.02 549.017 404.17 548.742 404.294C547.027 405.065 545.271 405.794 543.474 406.465C543.137 406.591 542.805 406.71 542.49 406.823C532.872 410.286 522.423 412.169 511.382 412.169C481.542 412.168 456.535 398.702 440.393 377.748L439.453 378.695C439.081 379.179 438.647 379.616 438.158 379.993L435.963 382.198C435.613 382.647 435.208 383.052 434.756 383.408L432.457 385.714C432.131 386.124 431.76 386.496 431.348 386.827L428.954 389.231C428.654 389.601 428.315 389.94 427.943 390.245L425.448 392.75C425.173 393.082 424.867 393.388 424.535 393.667L421.87 396.341C421.658 396.586 421.429 396.817 421.184 397.031L418.266 399.959C418.146 400.09 418.021 400.216 417.891 400.338L414.665 403.574C414.642 403.598 414.618 403.621 414.594 403.645L411.169 407.087C411.144 407.111 411.113 407.128 411.088 407.151C409.847 408.366 408.145 409.149 406.154 409.15H362.986C360.616 409.149 358.402 407.966 357.086 405.998L335.469 373.687L333.755 375.408C333.473 375.748 333.161 376.06 332.822 376.341L330.205 378.969C329.973 379.237 329.726 379.491 329.457 379.723L326.604 382.586C326.458 382.746 326.306 382.898 326.147 383.043L322.999 386.201C322.946 386.255 322.895 386.311 322.84 386.363L302.198 407.087C302.068 407.217 301.921 407.322 301.772 407.415C300.529 408.493 298.911 409.15 297.136 409.15H260.152C256.232 409.149 253.055 405.971 253.054 402.052V376.791L250.512 379.34C250.381 379.483 250.245 379.621 250.103 379.753L246.907 382.958C246.866 383.001 246.825 383.045 246.782 383.087L222.873 407.087C222.745 407.215 222.602 407.319 222.454 407.412C221.185 408.611 219.48 409.352 217.595 409.352H180.52C178.95 409.352 177.505 408.828 176.337 407.956C176.304 407.933 176.271 407.908 176.239 407.885C176.157 407.821 176.075 407.756 175.996 407.689C173.884 406.024 173.517 403.196 173.517 400.396V320.716C173.436 320.795 173.345 320.865 173.26 320.939L166.917 327.286C166.742 327.482 166.559 327.667 166.366 327.841L163.468 330.738C161.435 333.016 158.041 333.848 155.069 332.395L135.363 322.762C130.797 320.528 130.102 314.518 133.578 311.242L156.959 287.847L145.348 255.864C144.457 253.409 145.001 250.914 146.423 249.095C146.523 248.922 146.641 248.756 146.788 248.608L209.348 186.021C209.484 185.885 209.634 185.771 209.791 185.676C210.757 184.867 211.946 184.303 213.271 184.1C216.259 183.643 218.899 183.029 221.227 182.301L237.988 165.534C238.197 165.324 238.439 165.167 238.694 165.053C239.871 164.183 241.327 163.671 242.901 163.67H279.509C279.875 163.655 280.249 163.66 280.625 163.704C284.429 163.986 287.03 167.189 287.016 170.653C287.016 170.643 287.019 170.632 287.019 170.622V196.141L317.613 165.534C317.776 165.37 317.964 165.243 318.157 165.138C319.352 164.217 320.849 163.671 322.475 163.67H399.791C410.177 163.671 419.531 164.936 427.963 167.579L429.854 168.13L430.006 168.174L430.154 168.225C439.428 171.394 447.637 176.362 454.128 182.852C454.688 183.412 455.23 183.985 455.761 184.563L474.784 165.534C475.304 165.013 476.009 164.797 476.687 164.871C479.15 164.084 482.023 164.614 484.048 166.788L505.147 189.449C505.634 189.972 506.018 190.535 506.314 191.116C507.185 190.22 508.077 189.344 508.985 188.486C524.936 171.659 547.255 161.087 573.144 160.828C576.435 160.795 579.774 161.012 583.047 161.317Z" fill="#321532"/>
<g clip-path="url(#clip0_706_1402)">
<path d="M242.764 170.597H280.096V340.106H242.764V170.597Z" fill="#E01A59"/>
<path d="M280.105 170.607V340.098H242.768C257.095 299.537 269.41 243.052 280.105 170.607Z" fill="url(#paint1_linear_706_1402)"/>
<path d="M426.229 174.23C435.309 177.055 443.18 181.696 449.233 187.75C458.92 197.436 463.763 210.351 463.763 226.495V226.898C463.763 254.343 449.032 271.495 427.439 279.365L468.808 339.904H425.22L388.896 285.621H359.636V339.904H322.304V170.597H399.793C409.681 170.597 418.359 171.808 426.027 174.23M397.574 252.93C415.937 252.93 426.229 243.446 426.229 228.916V228.513C426.229 212.369 415.332 204.297 396.968 204.297H360.04V252.93H397.775H397.574Z" fill="url(#paint2_linear_706_1402)"/>
<path d="M703.481 170.597H737.786L817.092 274.926V170.597H853.819V340.106H822.137L740.006 232.347V340.106H703.279V170.597H703.481Z" fill="url(#paint3_linear_706_1402)"/>
<path d="M242.761 170.597C240.138 181.696 230.25 188.557 214.106 190.979L223.994 218.221C247.201 213.378 270.205 191.988 280.093 170.597H242.761Z" fill="#FDA509"/>
<path d="M242.778 170.597C250.042 189.97 229.863 215.598 224.011 218.221C247.217 213.378 270.205 191.988 280.093 170.597H242.778Z" fill="url(#paint4_linear_706_1402)"/>
<mask id="mask0_706_1402" style="mask-type:alpha" maskUnits="userSpaceOnUse" x="489" y="168" width="169" height="175">
<path d="M489.963 256.099V255.696C489.963 207.349 525.342 168.068 574.082 168.068C622.821 168.068 657.823 206.946 657.823 255.092V255.495C657.823 303.64 622.445 342.922 573.705 342.922C524.966 342.922 489.963 304.043 489.963 256.099ZM621.504 256.099V255.696C621.504 226.688 601.556 202.515 573.705 202.515C545.854 202.515 526.283 226.285 526.283 255.092V255.495C526.283 284.503 546.23 308.676 574.082 308.676C601.933 308.676 621.504 284.906 621.504 256.099Z" fill="#FDA509"/>
</mask>
<g mask="url(#mask0_706_1402)">
<path d="M574.114 168.071C525.481 168.071 489.962 207.102 489.962 255.331C489.962 280.757 535.531 308.684 574.074 308.684C546.024 308.684 526.286 284.39 526.286 255.331V254.927C526.286 225.869 546.274 202.519 573.784 202.519C628.471 202.519 655.913 240.114 657.729 259.688C657.729 258.478 657.857 256.954 657.857 255.541V255.129C657.857 206.9 622.949 168.071 574.114 168.071Z" fill="#FDA509"/>
<path d="M489.962 255.331C489.962 207.101 525.478 167.751 574.111 167.751V167.953C622.946 167.953 657.857 206.9 657.857 255.129V255.532C657.857 256.945 657.729 258.477 657.729 259.688C655.913 240.114 628.471 202.518 573.784 202.518C515.322 202.518 491.947 241.324 489.962 255.331Z" fill="url(#paint5_linear_706_1402)"/>
<path d="M489.963 255.445C489.963 255.527 489.962 255.609 489.962 255.692V256.095C489.962 304.039 524.965 342.918 573.704 342.918C621.773 342.918 656.847 304.709 657.802 257.472C657.798 257.571 657.794 257.669 657.789 257.767C657.758 258.449 657.729 259.105 657.729 259.687C655.923 240.224 628.782 202.945 574.715 202.521C602.037 203.098 621.503 227.036 621.503 255.692V256.095C621.503 284.901 601.932 308.672 574.081 308.672C572.744 308.672 571.425 308.616 570.126 308.507C532.555 306.701 490.095 279.968 489.963 255.445Z" fill="#63C1A0"/>
<path d="M489.963 255.445C489.963 255.527 489.962 255.609 489.962 255.692V256.095C489.962 304.039 524.965 342.918 573.704 342.918C621.773 342.918 656.847 304.709 657.802 257.472C657.798 257.571 657.794 257.669 657.789 257.767C657.758 258.449 657.729 259.105 657.729 259.687C655.923 240.224 628.782 202.945 574.715 202.521C602.037 203.098 621.503 227.036 621.503 255.692V256.095C621.503 284.902 601.932 308.672 574.081 308.672C572.744 308.672 571.425 308.616 570.126 308.507C532.555 306.701 490.095 279.968 489.963 255.445Z" fill="url(#paint6_linear_706_1402)"/>
</g>
<path d="M200.446 254.08L220.625 263.944L227.545 237.619L200.446 254.08Z" fill="#89D3DF"/>
<path d="M478.768 171.276L473.193 193.034L500.374 194.482L478.768 171.276Z" fill="#63C1A0"/>
<path d="M654.499 309.791L654.463 332.252L680.859 314.586L654.499 309.791Z" fill="#FDA509"/>
<path d="M676.685 196.312L660.911 180.322L657.499 200.745L676.685 196.312Z" fill="#E01A59"/>
</g>
<path d="M882.874 595.363V547.27C883.027 504.489 849.347 467.997 807.472 463.805C803.374 463.395 799.271 463.403 795.159 463.411L794.444 463.412L789.457 463.42C785.254 463.426 781.08 463.597 776.909 464.166C764.435 465.865 752.852 470.336 742.788 476.915C737.5 470.545 729.528 466.423 720.437 466.419H669.342C663.671 466.421 658.3 468.072 653.768 470.948C650.736 472.871 648.326 475.458 645.768 477.947L645.35 478.353C641.811 481.796 638.272 485.24 634.903 488.846C631.911 476.162 620.577 466.422 606.594 466.419H388.156C385.311 466.42 382.578 466.828 380.003 467.577C377.422 466.826 374.684 466.419 371.835 466.419H343.297C336.662 466.422 330.523 468.661 325.636 472.402C320.73 468.645 314.606 466.419 307.978 466.419H253.483C245.737 466.422 238.65 469.475 233.447 474.427L233.443 474.431C220.322 486.927 207.823 500.166 194.951 512.923C194.951 512.923 180.969 526.907 173.978 533.9C168.567 539.164 165.16 546.587 165.158 554.755V617.227C156.642 625.756 128.227 654.3 128.227 654.3C128.227 654.3 119.327 663.071 116.123 668.664C109.017 681.065 107.537 696.262 112.114 709.807C118.782 729.538 137.347 743.924 159.529 743.926C167.666 743.926 175.35 741.964 182.129 738.515C185.797 740.197 189.891 741.141 194.241 741.143H222.778C229.131 741.142 235.024 739.089 239.799 735.639C244.594 739.105 250.474 741.14 256.808 741.143H312.593C315.443 741.143 318.178 740.736 320.755 739.987C323.333 740.737 326.069 741.142 328.914 741.143H427.909C433.866 741.141 439.391 739.339 443.973 736.295C446.575 734.567 448.717 732.358 450.908 730.158C456.19 736.807 464.339 741.138 473.656 741.143H502.21C510.437 741.139 517.843 737.702 523.076 732.301L581.733 673.642C586.939 668.571 590.267 661.518 590.517 653.745L603.561 653.578V712.045C603.561 727.834 616.307 741.134 632.639 741.143H661.193C668.917 741.14 675.892 738.11 681.031 733.308C681.929 732.468 682.783 731.578 683.655 730.711C696.111 738.829 710.886 743.724 726.8 744.132L727.084 744.138H742.091L742.373 744.132C762.361 743.621 780.586 736.024 794.645 723.834C818.515 703.137 840.431 680.266 861.036 657.602C871.613 645.969 878.994 631.296 881.717 615.022C883.024 607.203 882.864 599.489 882.874 595.363Z" fill="url(#paint7_linear_706_1402)"/>
<path d="M882.874 595.363V547.27C883.027 504.489 849.347 467.997 807.472 463.805C803.374 463.395 799.271 463.403 795.159 463.411L794.444 463.412L789.457 463.42C785.254 463.426 781.08 463.597 776.909 464.166C764.435 465.865 752.852 470.336 742.788 476.915C737.5 470.545 729.528 466.423 720.437 466.419H669.342C663.671 466.421 658.3 468.072 653.768 470.948C650.736 472.871 648.326 475.458 645.768 477.947L645.35 478.353C641.811 481.796 638.272 485.24 634.903 488.846C631.911 476.162 620.577 466.422 606.594 466.419H388.156C385.311 466.42 382.578 466.828 380.003 467.577C377.422 466.826 374.684 466.419 371.835 466.419H343.297C336.662 466.422 330.523 468.661 325.636 472.402C320.73 468.645 314.606 466.419 307.978 466.419H253.483C245.737 466.422 238.65 469.475 233.447 474.427L233.443 474.431C220.322 486.927 207.823 500.166 194.951 512.923C194.951 512.923 180.969 526.907 173.978 533.9C168.567 539.164 165.16 546.587 165.158 554.755V617.227C156.642 625.756 128.227 654.3 128.227 654.3C128.227 654.3 119.327 663.071 116.123 668.664C109.017 681.065 107.537 696.262 112.114 709.807C118.782 729.538 137.347 743.924 159.529 743.926C167.666 743.926 175.35 741.964 182.129 738.515C185.797 740.197 189.891 741.141 194.241 741.143H222.778C229.131 741.142 235.024 739.089 239.799 735.639C244.594 739.105 250.474 741.14 256.808 741.143H312.593C315.443 741.143 318.178 740.736 320.755 739.987C323.333 740.737 326.069 741.142 328.914 741.143H427.909C433.866 741.141 439.391 739.339 443.973 736.295C446.575 734.567 448.717 732.358 450.908 730.158C456.19 736.807 464.339 741.138 473.656 741.143H502.21C510.437 741.139 517.843 737.702 523.076 732.301L581.733 673.642C586.939 668.571 590.267 661.518 590.517 653.745L603.561 653.578V712.045C603.561 727.834 616.307 741.134 632.639 741.143H661.193C668.917 741.14 675.892 738.11 681.031 733.308C681.929 732.468 682.783 731.578 683.655 730.711C696.111 738.829 710.886 743.724 726.8 744.132L727.084 744.138H742.091L742.373 744.132C762.361 743.621 780.586 736.024 794.645 723.834C818.515 703.137 840.431 680.266 861.036 657.602C871.613 645.969 878.994 631.296 881.717 615.022C883.024 607.203 882.864 599.489 882.874 595.363Z" fill="white" fill-opacity="0.3"/>
<path d="M670.215 355.623C665.321 350.965 658.806 348.344 652.01 348.344C645.46 348.344 639.14 350.777 634.284 355.173L630.262 359.151L630.256 359.158L628.077 361.337L622.818 356.078C612.508 345.769 595.792 345.765 585.478 356.07L552.139 389.412C541.832 399.723 541.831 416.439 552.139 426.751L552.141 426.755L557.402 432.014L552.143 437.276C547.199 442.22 544.409 448.933 544.409 455.945C544.409 462.95 547.192 469.668 552.143 474.619L568.698 491.177C579.017 501.497 595.74 501.482 606.046 491.176L611.304 485.916L616.565 491.177C626.872 501.483 643.593 501.497 653.912 491.179L687.244 457.845C697.553 447.533 697.552 430.816 687.244 420.504L681.981 415.239L687.24 409.981L687.244 409.98C697.397 399.823 697.545 383.465 687.716 373.125L670.215 355.623Z" fill="url(#paint8_linear_706_1402)"/>
<path d="M670.215 355.623C665.321 350.965 658.806 348.344 652.01 348.344C645.46 348.344 639.14 350.777 634.284 355.173L630.262 359.151L630.256 359.158L628.077 361.337L622.818 356.078C612.508 345.769 595.792 345.765 585.478 356.07L552.139 389.412C541.832 399.723 541.831 416.439 552.139 426.751L552.141 426.755L557.402 432.014L552.143 437.276C547.199 442.22 544.409 448.933 544.409 455.945C544.409 462.95 547.192 469.668 552.143 474.619L568.698 491.177C579.017 501.497 595.74 501.482 606.046 491.176L611.304 485.916L616.565 491.177C626.872 501.483 643.593 501.497 653.912 491.179L687.244 457.845C697.553 447.533 697.552 430.816 687.244 420.504L681.981 415.239L687.24 409.981L687.244 409.98C697.397 399.823 697.545 383.465 687.716 373.125L670.215 355.623Z" fill="white" fill-opacity="0.3"/>
<path d="M652.011 368.378C653.701 368.378 655.324 369.052 656.519 370.247L673.074 386.803C675.562 389.292 675.563 393.326 673.075 395.815L653.649 415.241L673.075 434.669C675.563 437.158 675.563 441.192 673.075 443.681L648.133 468.625C648.127 468.631 648.12 468.635 648.115 468.64L639.746 477.012C637.257 479.501 633.22 479.499 630.731 477.01L611.305 457.586L591.88 477.01C589.391 479.499 585.354 479.501 582.865 477.012L566.31 460.454C565.115 459.258 564.443 457.636 564.443 455.946C564.443 454.256 565.115 452.637 566.31 451.442L585.735 432.014L566.309 412.588C563.821 410.099 563.821 406.065 566.309 403.576L582.865 387.018L582.867 387.015L584.542 385.341L584.544 385.337L586.22 383.663L586.221 383.66L587.897 381.986L587.899 381.983L589.574 380.309L589.576 380.305L591.251 378.632L591.253 378.628L592.929 376.954L592.93 376.951L594.606 375.277L594.608 375.274L596.283 373.6L596.285 373.596L597.96 371.922L597.962 371.919L599.638 370.245C602.127 367.756 606.164 367.756 608.653 370.245L628.079 389.673L630.731 387.019L630.734 387.015L632.408 385.342L632.412 385.337L634.085 383.665L634.089 383.66L635.763 381.988L635.766 381.983L637.44 380.31L637.443 380.305L639.117 378.633L639.121 378.628L640.795 376.956L640.798 376.951L642.472 375.279L642.475 375.274L644.149 373.601L644.152 373.596L645.826 371.924L645.83 371.919L647.504 370.247L647.731 370.026C648.9 368.967 650.427 368.378 652.011 368.378Z" fill="#321532"/>
<path d="M644.696 415.181C644.663 415.214 644.663 415.267 644.696 415.3L668.509 439.113C668.542 439.146 668.542 439.199 668.509 439.232L652.07 455.671C652.037 455.704 651.984 455.704 651.951 455.671L628.138 431.858C628.105 431.825 628.052 431.825 628.019 431.858L604.206 455.671C604.173 455.704 604.12 455.704 604.087 455.671L587.648 439.232C587.615 439.199 587.615 439.146 587.648 439.113L611.461 415.3C611.494 415.267 611.494 415.214 611.461 415.181L587.648 391.368C587.615 391.335 587.615 391.282 587.648 391.249L604.087 374.81C604.12 374.777 604.173 374.777 604.206 374.81L628.019 398.623C628.052 398.656 628.105 398.656 628.138 398.623L651.951 374.81C651.984 374.777 652.037 374.777 652.07 374.81L668.509 391.249C668.542 391.282 668.542 391.335 668.509 391.368L644.696 415.181Z" fill="url(#paint9_linear_706_1402)"/>
<path d="M644.696 415.181C644.663 415.214 644.663 415.267 644.696 415.3L668.509 439.113C668.542 439.146 668.542 439.199 668.509 439.232L652.07 455.671C652.037 455.704 651.984 455.704 651.951 455.671L628.138 431.858C628.105 431.825 628.052 431.825 628.019 431.858L604.206 455.671C604.173 455.704 604.12 455.704 604.087 455.671L587.648 439.232C587.615 439.199 587.615 439.146 587.648 439.113L611.461 415.3C611.494 415.267 611.494 415.214 611.461 415.181L587.648 391.368C587.615 391.335 587.615 391.282 587.648 391.249L604.087 374.81C604.12 374.777 604.173 374.777 604.206 374.81L628.019 398.623C628.052 398.656 628.105 398.656 628.138 398.623L651.951 374.81C651.984 374.777 652.037 374.777 652.07 374.81L668.509 391.249C668.542 391.282 668.542 391.335 668.509 391.368L644.696 415.181Z" fill="url(#paint10_linear_706_1402)"/>
<path d="M799.464 485.456C833.375 485.456 860.986 513.451 860.822 547.27V595.308C860.81 600.124 860.909 605.751 859.967 611.386C857.963 623.366 852.53 634.178 844.719 642.768C824.335 665.19 803.097 687.319 780.199 707.173C769.843 716.153 756.476 721.712 741.809 722.087H727.365C709.453 721.629 693.477 713.44 682.56 700.732L666.347 716.822C665.073 718.209 663.246 719.091 661.186 719.091L632.651 719.091C628.712 719.089 625.612 715.881 625.612 712.046V616.232L619.273 622.577C619.13 622.734 618.98 622.884 618.823 623.027L612.736 629.128C612.714 629.152 612.687 629.174 612.665 629.198L612.247 629.61C611 630.758 609.349 631.451 607.567 631.474L580.459 631.821C575.291 631.885 571.938 626.622 573.89 622.024L603.627 552.001C604.038 551.034 604.656 550.191 605.414 549.513C623.443 531.496 639.305 515.649 650.682 504.284C651.008 503.877 651.383 503.508 651.787 503.185L663.796 491.183L665.03 489.955C666.235 489.018 667.743 488.471 669.35 488.47H720.429C724.367 488.472 727.467 491.681 727.468 495.516V521.01C727.838 520.675 728.221 520.353 728.599 520.027C730.622 517.667 732.83 515.472 735.182 513.444C737.205 511.085 739.412 508.89 741.764 506.862C752.681 494.131 768.677 485.933 786.608 485.475H786.769L799.464 485.456Z" fill="#321532"/>
<path d="M307.977 488.47C311.322 488.47 314.157 490.815 314.856 494.012L318.436 510.436C318.537 510.328 318.643 510.222 318.751 510.121L338.274 490.592C338.32 490.544 338.367 490.497 338.415 490.45C339.672 489.229 341.391 488.471 343.307 488.47H371.836C375.775 488.47 378.874 491.68 378.875 495.516V495.587C379.577 495.294 380.343 495.121 381.144 495.072C381.373 491.437 384.378 488.472 388.164 488.47H606.59C610.529 488.471 613.628 491.68 613.629 495.516V521.01C613.629 522.787 612.96 524.424 611.855 525.671C611.669 525.881 611.473 526.082 611.264 526.269L598.568 538.971C598.454 539.094 598.331 539.21 598.208 539.325L572.051 565.494C571.098 566.445 569.87 567.127 568.483 567.403V652.803C568.483 654.816 567.628 656.654 566.246 657.946L507.331 716.861C506.058 718.227 504.244 719.091 502.201 719.091H473.666C469.728 719.089 466.627 715.882 466.627 712.046V683.099C466.518 683.21 443.633 706.215 433.033 716.861C431.76 718.227 429.946 719.091 427.903 719.091H328.921C324.982 719.09 321.882 715.883 321.882 712.046L317.983 716.566C316.704 718.102 314.78 719.091 312.593 719.091H256.815C253.47 719.09 250.634 716.748 249.936 713.55L246.581 698.193L227.862 716.906L227.828 716.941C227.753 717.021 227.677 717.101 227.598 717.176C226.349 718.36 224.66 719.091 222.777 719.091H194.248C190.309 719.09 187.209 715.882 187.209 712.046L187.209 705.637C185.748 707.321 184.09 708.828 182.272 710.124C180.988 711.922 179.497 713.562 177.837 715.009C172.936 719.281 166.544 721.875 159.529 721.875C144.495 721.873 132.308 709.981 131.56 695.133L131.521 693.687C131.521 687.091 133.782 681.008 137.57 676.195C156.958 656.615 187.082 626.477 187.209 626.351V554.759C187.21 552.746 188.066 550.909 189.446 549.616L195.759 543.304C195.83 543.229 195.903 543.15 195.977 543.079L215.699 523.357C215.843 523.218 215.994 523.084 216.149 522.958L221.87 517.211C221.951 517.119 222.029 517.023 222.115 516.935L222.275 516.781C222.338 516.72 222.403 516.662 222.468 516.605L222.494 516.581L228.71 510.346L241.907 497.149L241.978 497.071L248.406 490.65C248.486 490.566 248.567 490.479 248.651 490.399C249.903 489.207 251.602 488.471 253.491 488.47H307.977Z" fill="#321532"/>
<path fill-rule="evenodd" clip-rule="evenodd" d="M799.48 492.039C829.724 492.04 854.407 517.057 854.243 547.271V595.293C854.23 600.325 854.312 605.322 853.479 610.304C849.189 635.947 827.376 655.586 800.892 656.262H786.781C760.727 655.597 739.196 636.581 734.418 611.55C733.423 606.335 733.442 601.116 733.428 595.833V547.271C733.429 517.244 757.189 492.813 786.781 492.057L799.48 492.039ZM792.859 517.416C775.622 517.416 760.584 527.972 760.583 547.271V601.048C760.584 620.282 775.68 630.164 792.696 630.164C809.711 630.164 824.806 620.282 824.806 601.048V547.271C824.805 528.01 810.13 517.416 792.859 517.416Z" fill="url(#paint11_linear_706_1402)"/>
<path fill-rule="evenodd" clip-rule="evenodd" d="M799.48 492.039C829.724 492.04 854.407 517.057 854.243 547.271V595.293C854.23 600.325 854.312 605.322 853.479 610.304C849.189 635.947 827.376 655.586 800.892 656.262H786.781C760.727 655.597 739.196 636.581 734.418 611.55C733.423 606.335 733.442 601.116 733.428 595.833V547.271C733.429 517.244 757.189 492.813 786.781 492.057L799.48 492.039ZM792.859 517.416C775.622 517.416 760.584 527.972 760.583 547.271V601.048C760.584 620.282 775.68 630.164 792.696 630.164C809.711 630.164 824.806 620.282 824.806 601.048V547.271C824.805 528.01 810.13 517.416 792.859 517.416Z" fill="url(#paint12_linear_706_1402)"/>
<path d="M218.778 612.834C230.611 612.834 240.2 622.509 240.201 634.442C240.201 646.375 230.611 656.052 218.778 656.052C206.946 656.052 197.352 646.376 197.352 634.442C197.353 622.508 206.946 612.834 218.778 612.834Z" fill="url(#paint13_linear_706_1402)"/>
<path d="M218.778 612.834C230.611 612.834 240.2 622.509 240.201 634.442C240.201 646.375 230.611 656.052 218.778 656.052C206.946 656.052 197.352 646.376 197.352 634.442C197.353 622.508 206.946 612.834 218.778 612.834Z" fill="url(#paint14_linear_706_1402)"/>
<path d="M307.986 495.056C308.2 495.056 308.385 495.207 308.431 495.418L337.964 630.835C338.214 631.979 339.219 632.795 340.381 632.795C341.748 632.795 342.856 631.678 342.857 630.299V495.517C342.857 495.263 343.061 495.056 343.313 495.056H371.845C372.097 495.056 372.302 495.263 372.302 495.517V652.807C372.301 653.061 372.097 653.267 371.845 653.267H316.061C315.847 653.267 315.663 653.116 315.617 652.906L285.741 515.923C285.575 515.161 284.904 514.617 284.131 514.617C283.221 514.618 282.484 515.361 282.484 516.278V652.807C282.484 653.061 282.279 653.267 282.027 653.267H253.496C253.244 653.267 253.039 653.061 253.039 652.807V495.517C253.039 495.263 253.244 495.056 253.496 495.056H307.986Z" fill="url(#paint15_linear_706_1402)"/>
<path d="M307.986 495.056C308.2 495.056 308.385 495.207 308.431 495.418L337.964 630.835C338.214 631.979 339.219 632.795 340.381 632.795C341.748 632.795 342.856 631.678 342.857 630.299V495.517C342.857 495.263 343.061 495.056 343.313 495.056H371.845C372.097 495.056 372.302 495.263 372.302 495.517V652.807C372.301 653.061 372.097 653.267 371.845 653.267H316.061C315.847 653.267 315.663 653.116 315.617 652.906L285.741 515.923C285.575 515.161 284.904 514.617 284.131 514.617C283.221 514.618 282.484 515.361 282.484 516.278V652.807C282.484 653.061 282.279 653.267 282.027 653.267H253.496C253.244 653.267 253.039 653.061 253.039 652.807V495.517C253.039 495.263 253.244 495.056 253.496 495.056H307.986Z" fill="url(#paint16_linear_706_1402)"/>
<path d="M606.594 495.056C606.846 495.056 607.05 495.263 607.05 495.517V521.009C607.05 521.263 606.846 521.47 606.594 521.47H562.361C562.108 521.47 561.904 521.676 561.904 521.931V652.807C561.904 653.061 561.699 653.267 561.447 653.267H532.916C532.664 653.267 532.459 653.061 532.459 652.807V521.931C532.459 521.676 532.254 521.47 532.002 521.47H417.61C417.358 521.47 417.153 521.676 417.153 521.931V560.493C417.153 560.747 417.358 560.954 417.61 560.954H480.082C480.334 560.954 480.539 561.161 480.539 561.415V586.907C480.539 587.161 480.334 587.367 480.082 587.368H417.61C417.358 587.368 417.153 587.574 417.153 587.828V626.393C417.153 626.647 417.358 626.854 417.61 626.854H487.151C487.402 626.854 487.605 627.059 487.606 627.312V652.807C487.605 653.061 487.403 653.267 487.151 653.267H388.167C387.915 653.267 387.71 653.061 387.71 652.807V495.517C387.71 495.263 387.915 495.056 388.167 495.056H606.594Z" fill="url(#paint17_linear_706_1402)"/>
<path d="M606.594 495.056C606.846 495.056 607.05 495.263 607.05 495.517V521.009C607.05 521.263 606.846 521.47 606.594 521.47H562.361C562.108 521.47 561.904 521.676 561.904 521.931V652.807C561.904 653.061 561.699 653.267 561.447 653.267H532.916C532.664 653.267 532.459 653.061 532.459 652.807V521.931C532.459 521.676 532.254 521.47 532.002 521.47H417.61C417.358 521.47 417.153 521.676 417.153 521.931V560.493C417.153 560.747 417.358 560.954 417.61 560.954H480.082C480.334 560.954 480.539 561.161 480.539 561.415V586.907C480.539 587.161 480.334 587.367 480.082 587.368H417.61C417.358 587.368 417.153 587.574 417.153 587.828V626.393C417.153 626.647 417.358 626.854 417.61 626.854H487.151C487.402 626.854 487.605 627.059 487.606 627.312V652.807C487.605 653.061 487.403 653.267 487.151 653.267H388.167C387.915 653.267 387.71 653.061 387.71 652.807V495.517C387.71 495.263 387.915 495.056 388.167 495.056H606.594Z" fill="url(#paint18_linear_706_1402)"/>
<path d="M720.43 495.056C720.682 495.056 720.887 495.263 720.887 495.517V652.807C720.887 653.061 720.682 653.267 720.43 653.267H691.901C691.649 653.267 691.444 653.061 691.444 652.807V518.212C691.444 516.942 690.422 515.911 689.163 515.911C688.243 515.911 687.412 516.469 687.057 517.325L667.148 565.365C667.078 565.535 666.914 565.646 666.732 565.648L639.625 565.998C639.295 566.002 639.069 565.661 639.199 565.355L668.935 495.335C669.007 495.166 669.172 495.056 669.355 495.056H720.43Z" fill="url(#paint19_linear_706_1402)"/>
<path d="M720.43 495.056C720.682 495.056 720.887 495.263 720.887 495.517V652.807C720.887 653.061 720.682 653.267 720.43 653.267H691.901C691.649 653.267 691.444 653.061 691.444 652.807V518.212C691.444 516.942 690.422 515.911 689.163 515.911C688.243 515.911 687.412 516.469 687.057 517.325L667.148 565.365C667.078 565.535 666.914 565.646 666.732 565.648L639.625 565.998C639.295 566.002 639.069 565.661 639.199 565.355L668.935 495.335C669.007 495.166 669.172 495.056 669.355 495.056H720.43Z" fill="url(#paint20_linear_706_1402)"/>
<path d="M197.172 817.087L210.72 817.087L221.086 880.736H211.084L209.266 868.097V868.279H197.9L196.081 880.736H186.807L197.172 817.087ZM208.084 859.641L203.628 828.18H203.446L199.082 859.641H208.084Z" fill="#431F43"/>
<path d="M248.524 817.087L263.8 817.087C268.771 817.087 272.499 818.421 274.984 821.088C277.469 823.755 278.712 827.665 278.712 832.817V865.006C278.712 870.158 277.469 874.068 274.984 876.735C272.499 879.402 268.771 880.736 263.8 880.736H248.524V817.087ZM263.618 871.643C265.255 871.643 266.497 871.158 267.346 870.188C268.255 869.219 268.71 867.642 268.71 865.46V832.363C268.71 830.181 268.255 828.604 267.346 827.635C266.497 826.665 265.255 826.18 263.618 826.18H258.526L258.526 871.643H263.618Z" fill="#431F43"/>
<path d="M289.475 817.087L316.753 817.087V826.18H299.477V843.001H313.207V852.094H299.477V871.643H316.753V880.736H289.475V817.087Z" fill="#431F43"/>
<path d="M340.612 881.645C335.823 881.645 332.156 880.281 329.61 877.554C327.125 874.826 325.882 870.976 325.882 866.006V831.817C325.882 826.847 327.125 822.997 329.61 820.269C332.156 817.542 335.823 816.178 340.612 816.178C345.401 816.178 349.038 817.542 351.523 820.269C354.069 822.997 355.342 826.847 355.342 831.817V838.546H345.886V831.181C345.886 827.241 344.219 825.27 340.885 825.27C337.551 825.27 335.884 827.241 335.884 831.181V866.733C335.884 870.613 337.551 872.553 340.885 872.553C344.219 872.553 345.886 870.613 345.886 866.733V857.004H355.342V866.006C355.342 870.976 354.069 874.826 351.523 877.554C349.038 880.281 345.401 881.645 340.612 881.645Z" fill="#431F43"/>
<path d="M373.067 817.087L386.615 817.087L396.981 880.736H386.979L385.16 868.097V868.279H373.794L371.976 880.736H362.701L373.067 817.087ZM383.978 859.641L379.523 828.18H379.341L374.976 859.641H383.978Z" fill="#431F43"/>
<path d="M405.845 817.087L421.12 817.087C426.091 817.087 429.819 818.421 432.305 821.088C434.79 823.755 436.033 827.665 436.033 832.817V865.006C436.033 870.158 434.79 874.068 432.305 876.735C429.819 879.402 426.091 880.736 421.12 880.736H405.845V817.087ZM420.939 871.643C422.575 871.643 423.818 871.158 424.667 870.188C425.576 869.219 426.031 867.642 426.031 865.46V832.363C426.031 830.181 425.576 828.604 424.667 827.635C423.818 826.665 422.575 826.18 420.939 826.18H415.847V871.643H420.939Z" fill="#431F43"/>
<path d="M446.795 817.087L474.073 817.087V826.18L456.797 826.18V843.001L470.527 843.001V852.094H456.797V871.643H474.073V880.736H446.795V817.087Z" fill="#431F43"/>
<path d="M510.233 826.18H499.776V817.087L530.691 817.087V826.18H520.235V880.736H510.233V826.18Z" fill="#431F43"/>
<path d="M553.648 881.645C548.738 881.645 544.979 880.251 542.373 877.463C539.766 874.674 538.463 870.734 538.463 865.642V832.181C538.463 827.089 539.766 823.149 542.373 820.36C544.979 817.572 548.738 816.178 553.648 816.178C558.558 816.178 562.316 817.572 564.923 820.36C567.529 823.149 568.832 827.089 568.832 832.181V865.642C568.832 870.734 567.529 874.674 564.923 877.463C562.316 880.251 558.558 881.645 553.648 881.645ZM553.648 872.553C557.103 872.553 558.83 870.461 558.83 866.279V831.544C558.83 827.362 557.103 825.27 553.648 825.27C550.192 825.27 548.465 827.362 548.465 831.544V866.279C548.465 870.461 550.192 872.553 553.648 872.553Z" fill="#431F43"/>
<path d="M593.793 881.645C588.943 881.645 585.246 880.281 582.7 877.554C580.154 874.765 578.881 870.795 578.881 865.642V832.181C578.881 827.028 580.154 823.088 582.7 820.36C585.246 817.572 588.943 816.178 593.793 816.178C598.642 816.178 602.34 817.572 604.886 820.36C607.432 823.088 608.705 827.028 608.705 832.181V837.637H599.248V831.544C599.248 827.362 597.521 825.27 594.065 825.27C590.61 825.27 588.883 827.362 588.883 831.544V866.37C588.883 870.492 590.61 872.553 594.065 872.553C597.521 872.553 599.248 870.492 599.248 866.37V853.913H594.247V844.82H608.705V865.642C608.705 870.795 607.432 874.765 604.886 877.554C602.34 880.281 598.642 881.645 593.793 881.645Z" fill="#431F43"/>
<path d="M619.138 817.087L646.416 817.087V826.18H629.14V843.001H642.87V852.094H629.14V871.643H646.416V880.736H619.138V817.087Z" fill="#431F43"/>
<path d="M664.001 826.18L653.545 826.18V817.087L684.46 817.087V826.18H674.003V880.736H664.001V826.18Z" fill="#431F43"/>
<path d="M693.314 817.087L703.316 817.087V843.001L714.045 843.001V817.087L724.047 817.087V880.736H714.045V852.094H703.316V880.736H693.314V817.087Z" fill="#431F43"/>
<path d="M735.508 817.087L762.786 817.087V826.18H745.51V843.001H759.24V852.094H745.51V871.643H762.786V880.736H735.508V817.087Z" fill="#431F43"/>
<path d="M772.551 817.087L787.373 817.087C792.525 817.087 796.283 818.299 798.648 820.724C801.012 823.088 802.194 826.756 802.194 831.726V835.636C802.194 842.244 800.011 846.426 795.647 848.184V848.366C798.072 849.093 799.769 850.579 800.739 852.821C801.769 855.064 802.285 858.065 802.285 861.823V873.007C802.285 874.826 802.345 876.311 802.466 877.463C802.588 878.554 802.891 879.645 803.376 880.736H793.192C792.828 879.706 792.586 878.736 792.464 877.826C792.343 876.917 792.283 875.28 792.283 872.916V861.278C792.283 858.368 791.798 856.337 790.828 855.185C789.918 854.034 788.312 853.458 786.009 853.458H782.553V880.736H772.551V817.087ZM786.19 844.365C788.191 844.365 789.676 843.85 790.646 842.819C791.676 841.789 792.192 840.061 792.192 837.637V832.726C792.192 830.423 791.767 828.756 790.919 827.725C790.131 826.695 788.858 826.18 787.1 826.18H782.553V844.365H786.19Z" fill="#431F43"/>
<defs>
<linearGradient id="paint0_linear_706_1402" x1="166.752" y1="-61.4669" x2="931.072" y2="217.681" gradientUnits="userSpaceOnUse">
<stop stop-color="#623DDB"/>
<stop offset="1" stop-color="#CA02B8"/>
</linearGradient>
<linearGradient id="paint1_linear_706_1402" x1="261.164" y1="170.438" x2="261.164" y2="339.947" gradientUnits="userSpaceOnUse">
<stop stop-color="#431F43"/>
<stop offset="1" stop-color="#E01A59"/>
</linearGradient>
<linearGradient id="paint2_linear_706_1402" x1="322.407" y1="171.482" x2="421.099" y2="308.417" gradientUnits="userSpaceOnUse">
<stop stop-color="#AEC3D7"/>
<stop offset="1" stop-color="#F8F9FF"/>
</linearGradient>
<linearGradient id="paint3_linear_706_1402" x1="703.386" y1="171.483" x2="801.357" y2="310.997" gradientUnits="userSpaceOnUse">
<stop stop-color="#AEC3D7"/>
<stop offset="1" stop-color="#F8F9FF"/>
</linearGradient>
<linearGradient id="paint4_linear_706_1402" x1="270.713" y1="165.951" x2="224.011" y2="218.221" gradientUnits="userSpaceOnUse">
<stop stop-color="#EC7600"/>
<stop offset="1" stop-color="#FDA509"/>
</linearGradient>
<linearGradient id="paint5_linear_706_1402" x1="632.374" y1="190.727" x2="495.904" y2="238.074" gradientUnits="userSpaceOnUse">
<stop stop-color="#63C1A0"/>
<stop offset="1" stop-color="#FDA509"/>
</linearGradient>
<linearGradient id="paint6_linear_706_1402" x1="604.428" y1="211.178" x2="604.428" y2="338.382" gradientUnits="userSpaceOnUse">
<stop stop-color="#63C1A0"/>
<stop offset="1" stop-color="#2A95D5"/>
</linearGradient>
<linearGradient id="paint7_linear_706_1402" x1="166.743" y1="272.797" x2="921.898" y2="562.854" gradientUnits="userSpaceOnUse">
<stop stop-color="#623DDB"/>
<stop offset="1" stop-color="#CA02B8"/>
</linearGradient>
<linearGradient id="paint8_linear_706_1402" x1="684.442" y1="413.332" x2="548.448" y2="472.577" gradientUnits="userSpaceOnUse">
<stop stop-color="#B50DBE"/>
<stop offset="1" stop-color="#991DC8"/>
</linearGradient>
<linearGradient id="paint9_linear_706_1402" x1="587.623" y1="415.241" x2="668.534" y2="415.241" gradientUnits="userSpaceOnUse">
<stop stop-color="#FF80EB"/>
<stop offset="1" stop-color="#946DFF"/>
</linearGradient>
<linearGradient id="paint10_linear_706_1402" x1="587.842" y1="393.064" x2="712.814" y2="400.908" gradientUnits="userSpaceOnUse">
<stop stop-color="white" stop-opacity="0"/>
<stop offset="1" stop-color="white"/>
</linearGradient>
<linearGradient id="paint11_linear_706_1402" x1="197.352" y1="574.151" x2="854.244" y2="574.151" gradientUnits="userSpaceOnUse">
<stop stop-color="#FF80EB"/>
<stop offset="1" stop-color="#946DFF"/>
</linearGradient>
<linearGradient id="paint12_linear_706_1402" x1="199.133" y1="529.14" x2="1157.34" y2="769.719" gradientUnits="userSpaceOnUse">
<stop stop-color="white" stop-opacity="0"/>
<stop offset="1" stop-color="white"/>
</linearGradient>
<linearGradient id="paint13_linear_706_1402" x1="197.352" y1="574.151" x2="854.244" y2="574.151" gradientUnits="userSpaceOnUse">
<stop stop-color="#FF80EB"/>
<stop offset="1" stop-color="#946DFF"/>
</linearGradient>
<linearGradient id="paint14_linear_706_1402" x1="199.133" y1="529.14" x2="1157.34" y2="769.719" gradientUnits="userSpaceOnUse">
<stop stop-color="white" stop-opacity="0"/>
<stop offset="1" stop-color="white"/>
</linearGradient>
<linearGradient id="paint15_linear_706_1402" x1="197.352" y1="574.151" x2="854.244" y2="574.151" gradientUnits="userSpaceOnUse">
<stop stop-color="#FF80EB"/>
<stop offset="1" stop-color="#946DFF"/>
</linearGradient>
<linearGradient id="paint16_linear_706_1402" x1="199.133" y1="529.14" x2="1157.34" y2="769.719" gradientUnits="userSpaceOnUse">
<stop stop-color="white" stop-opacity="0"/>
<stop offset="1" stop-color="white"/>
</linearGradient>
<linearGradient id="paint17_linear_706_1402" x1="197.352" y1="574.151" x2="854.244" y2="574.151" gradientUnits="userSpaceOnUse">
<stop stop-color="#FF80EB"/>
<stop offset="1" stop-color="#946DFF"/>
</linearGradient>
<linearGradient id="paint18_linear_706_1402" x1="199.133" y1="529.14" x2="1157.34" y2="769.719" gradientUnits="userSpaceOnUse">
<stop stop-color="white" stop-opacity="0"/>
<stop offset="1" stop-color="white"/>
</linearGradient>
<linearGradient id="paint19_linear_706_1402" x1="197.352" y1="574.151" x2="854.244" y2="574.151" gradientUnits="userSpaceOnUse">
<stop stop-color="#FF80EB"/>
<stop offset="1" stop-color="#946DFF"/>
</linearGradient>
<linearGradient id="paint20_linear_706_1402" x1="199.133" y1="529.14" x2="1157.34" y2="769.719" gradientUnits="userSpaceOnUse">
<stop stop-color="white" stop-opacity="0"/>
<stop offset="1" stop-color="white"/>
</linearGradient>
<clipPath id="clip0_706_1402">
<rect width="657.451" height="185.047" fill="white" transform="translate(196.571 157.868)"/>
</clipPath>
</defs>
</svg>
