<svg width="60" height="48" viewBox="0 0 60 48" fill="none" xmlns="http://www.w3.org/2000/svg">
<g clip-path="url(#clip0_2099_2621)">
<path d="M27.2645 48C40.5193 48 51.2645 37.2548 51.2645 24C51.2645 10.7452 40.5193 0 27.2645 0C14.0096 0 3.26447 10.7452 3.26447 24C3.26447 37.2548 14.0096 48 27.2645 48Z" fill="#0B3D91"/>
<path d="M25.8464 5.02786C25.995 5.02786 26.1155 4.9074 26.1155 4.7588C26.1155 4.61021 25.995 4.48975 25.8464 4.48975C25.6978 4.48975 25.5774 4.61021 25.5774 4.7588C25.5774 4.9074 25.6978 5.02786 25.8464 5.02786Z" fill="white"/>
<path d="M28.6087 5.38651C28.7573 5.38651 28.8777 5.26604 28.8777 5.11745C28.8777 4.96885 28.7573 4.84839 28.6087 4.84839C28.4601 4.84839 28.3396 4.96885 28.3396 5.11745C28.3396 5.26604 28.4601 5.38651 28.6087 5.38651Z" fill="white"/>
<path d="M32.2323 10.2654C32.3809 10.2654 32.5014 10.145 32.5014 9.99635C32.5014 9.84776 32.3809 9.72729 32.2323 9.72729C32.0837 9.72729 31.9632 9.84776 31.9632 9.99635C31.9632 10.145 32.0837 10.2654 32.2323 10.2654Z" fill="white"/>
<path d="M12.3581 35.3772C12.5067 35.3772 12.6272 35.2568 12.6272 35.1082C12.6272 34.9596 12.5067 34.8391 12.3581 34.8391C12.2095 34.8391 12.0891 34.9596 12.0891 35.1082C12.0891 35.2568 12.2095 35.3772 12.3581 35.3772Z" fill="white"/>
<path d="M13.0571 37.5298C13.2057 37.5298 13.3261 37.4094 13.3261 37.2608C13.3261 37.1122 13.2057 36.9917 13.0571 36.9917C12.9085 36.9917 12.788 37.1122 12.788 37.2608C12.788 37.4094 12.9085 37.5298 13.0571 37.5298Z" fill="white"/>
<path d="M9.72081 35.6327C9.83209 35.6327 9.92231 35.5425 9.92231 35.4312C9.92231 35.3199 9.83209 35.2297 9.72081 35.2297C9.60953 35.2297 9.51932 35.3199 9.51932 35.4312C9.51932 35.5425 9.60953 35.6327 9.72081 35.6327Z" fill="white"/>
<path d="M20.6625 39.862C20.7742 39.862 20.8646 39.7715 20.8646 39.6599C20.8646 39.5482 20.7742 39.4578 20.6625 39.4578C20.5509 39.4578 20.4604 39.5482 20.4604 39.6599C20.4604 39.7715 20.5509 39.862 20.6625 39.862Z" fill="white"/>
<path d="M37.8241 36.2963C37.9353 36.2963 38.0255 36.2061 38.0255 36.0948C38.0255 35.9835 37.9353 35.8933 37.8241 35.8933C37.7128 35.8933 37.6226 35.9835 37.6226 36.0948C37.6226 36.2061 37.7128 36.2963 37.8241 36.2963Z" fill="white"/>
<path d="M42.811 30.8803C42.9226 30.8803 43.0131 30.7898 43.0131 30.6782C43.0131 30.5666 42.9226 30.4761 42.811 30.4761C42.6994 30.4761 42.6089 30.5666 42.6089 30.6782C42.6089 30.7898 42.6994 30.8803 42.811 30.8803Z" fill="white"/>
<path d="M18.3667 11.7714C18.478 11.7714 18.5682 11.6812 18.5682 11.5699C18.5682 11.4586 18.478 11.3684 18.3667 11.3684C18.2555 11.3684 18.1653 11.4586 18.1653 11.5699C18.1653 11.6812 18.2555 11.7714 18.3667 11.7714Z" fill="white"/>
<path d="M23.8553 7.74015C23.9666 7.74015 24.0568 7.64994 24.0568 7.53865C24.0568 7.42737 23.9666 7.33716 23.8553 7.33716C23.744 7.33716 23.6538 7.42737 23.6538 7.53865C23.6538 7.64994 23.744 7.74015 23.8553 7.74015Z" fill="white"/>
<path d="M23.2593 7.34562C23.3706 7.34562 23.4608 7.2554 23.4608 7.14412C23.4608 7.03284 23.3706 6.94263 23.2593 6.94263C23.148 6.94263 23.0578 7.03284 23.0578 7.14412C23.0578 7.2554 23.148 7.34562 23.2593 7.34562Z" fill="white"/>
<path d="M22.7211 6.95084C22.8324 6.95084 22.9226 6.86063 22.9226 6.74935C22.9226 6.63806 22.8324 6.54785 22.7211 6.54785C22.6098 6.54785 22.5196 6.63806 22.5196 6.74935C22.5196 6.86063 22.6098 6.95084 22.7211 6.95084Z" fill="white"/>
<path d="M19.2281 12.8119C19.3394 12.8119 19.4296 12.7217 19.4296 12.6104C19.4296 12.4991 19.3394 12.4089 19.2281 12.4089C19.1168 12.4089 19.0266 12.4991 19.0266 12.6104C19.0266 12.7217 19.1168 12.8119 19.2281 12.8119Z" fill="white"/>
<path d="M27.3132 2.3234C27.4245 2.3234 27.5147 2.23319 27.5147 2.1219C27.5147 2.01062 27.4245 1.92041 27.3132 1.92041C27.2019 1.92041 27.1117 2.01062 27.1117 2.1219C27.1117 2.23319 27.2019 2.3234 27.3132 2.3234Z" fill="white"/>
<path d="M28.6399 8.13517C28.7512 8.13517 28.8414 8.04495 28.8414 7.93367C28.8414 7.82239 28.7512 7.73218 28.6399 7.73218C28.5286 7.73218 28.4384 7.82239 28.4384 7.93367C28.4384 8.04495 28.5286 8.13517 28.6399 8.13517Z" fill="white"/>
<path d="M26.5456 7.00016C26.6569 7.00016 26.7471 6.90995 26.7471 6.79866C26.7471 6.68738 26.6569 6.59717 26.5456 6.59717C26.4343 6.59717 26.3441 6.68738 26.3441 6.79866C26.3441 6.90995 26.4343 7.00016 26.5456 7.00016Z" fill="white"/>
<path d="M22.9588 8.54313C23.0701 8.54313 23.1603 8.45291 23.1603 8.34163C23.1603 8.23035 23.0701 8.14014 22.9588 8.14014C22.8475 8.14014 22.7573 8.23035 22.7573 8.34163C22.7573 8.45291 22.8475 8.54313 22.9588 8.54313Z" fill="white"/>
<path d="M38.7791 41.6195C38.8904 41.6195 38.9806 41.5293 38.9806 41.4181C38.9806 41.3068 38.8904 41.2166 38.7791 41.2166C38.6678 41.2166 38.5776 41.3068 38.5776 41.4181C38.5776 41.5293 38.6678 41.6195 38.7791 41.6195Z" fill="white"/>
<path d="M12.0175 36.674C12.1291 36.674 12.2196 36.5835 12.2196 36.4719C12.2196 36.3603 12.1291 36.2698 12.0175 36.2698C11.9058 36.2698 11.8154 36.3603 11.8154 36.4719C11.8154 36.5835 11.9058 36.674 12.0175 36.674Z" fill="white"/>
<path d="M26.044 39.2745C26.1556 39.2745 26.2461 39.1841 26.2461 39.0725C26.2461 38.9608 26.1556 38.8704 26.044 38.8704C25.9324 38.8704 25.8419 38.9608 25.8419 39.0725C25.8419 39.1841 25.9324 39.2745 26.044 39.2745Z" fill="white"/>
<path d="M16.191 36.5119C16.3026 36.5119 16.3931 36.4214 16.3931 36.3098C16.3931 36.1981 16.3026 36.1077 16.191 36.1077C16.0794 36.1077 15.9889 36.1981 15.9889 36.3098C15.9889 36.4214 16.0794 36.5119 16.191 36.5119Z" fill="white"/>
<path d="M17.9354 39.36C18.047 39.36 18.1375 39.2695 18.1375 39.1579C18.1375 39.0463 18.047 38.9558 17.9354 38.9558C17.8238 38.9558 17.7333 39.0463 17.7333 39.1579C17.7333 39.2695 17.8238 39.36 17.9354 39.36Z" fill="white"/>
<path d="M30.7794 37.5658C30.8907 37.5658 30.9809 37.4756 30.9809 37.3643C30.9809 37.2531 30.8907 37.1628 30.7794 37.1628C30.6681 37.1628 30.5779 37.2531 30.5779 37.3643C30.5779 37.4756 30.6681 37.5658 30.7794 37.5658Z" fill="white"/>
<path d="M37.8601 33.5702C37.9713 33.5702 38.0615 33.48 38.0615 33.3687C38.0615 33.2574 37.9713 33.1672 37.8601 33.1672C37.7488 33.1672 37.6586 33.2574 37.6586 33.3687C37.6586 33.48 37.7488 33.5702 37.8601 33.5702Z" fill="white"/>
<path d="M43.2281 36.0229C43.3394 36.0229 43.4296 35.9327 43.4296 35.8214C43.4296 35.7101 43.3394 35.6199 43.2281 35.6199C43.1168 35.6199 43.0266 35.7101 43.0266 35.8214C43.0266 35.9327 43.1168 36.0229 43.2281 36.0229Z" fill="white"/>
<path d="M45.0579 37.1933C45.1692 37.1933 45.2594 37.1031 45.2594 36.9918C45.2594 36.8805 45.1692 36.7903 45.0579 36.7903C44.9466 36.7903 44.8564 36.8805 44.8564 36.9918C44.8564 37.1031 44.9466 37.1933 45.0579 37.1933Z" fill="white"/>
<path d="M45.3575 34.0009C45.4688 34.0009 45.559 33.9107 45.559 33.7994C45.559 33.6881 45.4688 33.5979 45.3575 33.5979C45.2462 33.5979 45.156 33.6881 45.156 33.7994C45.156 33.9107 45.2462 34.0009 45.3575 34.0009Z" fill="white"/>
<path d="M18.6673 29.4801C18.7785 29.4801 18.8687 29.3899 18.8687 29.2786C18.8687 29.1674 18.7785 29.0771 18.6673 29.0771C18.556 29.0771 18.4658 29.1674 18.4658 29.2786C18.4658 29.3899 18.556 29.4801 18.6673 29.4801Z" fill="white"/>
<path d="M18.7432 34.1761C18.8918 34.1761 19.0122 34.0556 19.0122 33.907C19.0122 33.7584 18.8918 33.6379 18.7432 33.6379C18.5946 33.6379 18.4741 33.7584 18.4741 33.907C18.4741 34.0556 18.5946 34.1761 18.7432 34.1761Z" fill="white"/>
<path d="M20.3579 37.5833C20.5065 37.5833 20.6269 37.4628 20.6269 37.3142C20.6269 37.1656 20.5065 37.0452 20.3579 37.0452C20.2093 37.0452 20.0888 37.1656 20.0888 37.3142C20.0888 37.4628 20.2093 37.5833 20.3579 37.5833Z" fill="white"/>
<path d="M39.6938 34.0323C39.8424 34.0323 39.9629 33.9118 39.9629 33.7632C39.9629 33.6146 39.8424 33.4941 39.6938 33.4941C39.5452 33.4941 39.4247 33.6146 39.4247 33.7632C39.4247 33.9118 39.5452 34.0323 39.6938 34.0323Z" fill="white"/>
<path d="M46.6539 33.637C46.8025 33.637 46.923 33.5165 46.923 33.3679C46.923 33.2193 46.8025 33.0989 46.6539 33.0989C46.5053 33.0989 46.3848 33.2193 46.3848 33.3679C46.3848 33.5165 46.5053 33.637 46.6539 33.637Z" fill="white"/>
<path d="M43.2094 32.1665C43.358 32.1665 43.4785 32.0461 43.4785 31.8975C43.4785 31.7489 43.358 31.6284 43.2094 31.6284C43.0608 31.6284 42.9404 31.7489 42.9404 31.8975C42.9404 32.0461 43.0608 32.1665 43.2094 32.1665Z" fill="white"/>
<path d="M39.6938 32.3103C39.8424 32.3103 39.9629 32.1899 39.9629 32.0413C39.9629 31.8927 39.8424 31.7722 39.6938 31.7722C39.5452 31.7722 39.4247 31.8927 39.4247 32.0413C39.4247 32.1899 39.5452 32.3103 39.6938 32.3103Z" fill="white"/>
<path d="M32.4421 4.59009L33.1111 4.52611L32.4433 4.48844C32.4223 4.3593 32.3189 4.25825 32.1886 4.24151L32.1246 3.57544L32.0863 4.24689C31.9655 4.2738 31.8729 4.37484 31.8579 4.5004L31.1739 4.56258L31.8627 4.59965C31.8878 4.71505 31.9811 4.80534 32.0983 4.82686L32.1605 5.51326L32.1969 4.82806C32.3207 4.80713 32.4187 4.71206 32.4421 4.59009Z" fill="white"/>
<path d="M21.1502 12.0386L21.8193 11.9746L21.1514 11.9369C21.1311 11.8078 21.027 11.7067 20.8967 11.69L20.8327 11.0239L20.7951 11.6954C20.6737 11.7223 20.581 11.8233 20.5661 11.9489L19.882 12.0111L20.5708 12.0481C20.596 12.1635 20.6892 12.2538 20.8064 12.2753L20.8686 12.9617L20.9057 12.2765C21.0294 12.2562 21.1275 12.1605 21.1502 12.0386Z" fill="white"/>
<path d="M46.1633 31.7324L46.8323 31.6684L46.1645 31.6308C46.1442 31.5016 46.0401 31.4006 45.9098 31.3838L45.8458 30.7178L45.8081 31.3892C45.6874 31.4161 45.5947 31.5172 45.5797 31.6427L44.8957 31.7049L45.5845 31.742C45.6096 31.8574 45.7029 31.9477 45.8201 31.9692L45.8823 32.6556L45.9193 31.9704C46.0419 31.9501 46.14 31.855 46.1633 31.7324Z" fill="white"/>
<path d="M18.8902 42.0302L19.5592 41.9662L18.8914 41.9285C18.8704 41.7994 18.767 41.6983 18.6367 41.6816L18.5727 41.0161L18.535 41.687C18.4136 41.7139 18.321 41.8149 18.306 41.9405L17.622 42.0027L18.3108 42.0397C18.3359 42.1551 18.4292 42.246 18.5464 42.2669L18.6086 42.9533L18.6456 42.2681C18.7688 42.2478 18.8674 42.1521 18.8902 42.0302Z" fill="white"/>
<path d="M44.038 37.0073L44.7071 36.9434L44.0392 36.9057C44.0189 36.7765 43.9148 36.6755 43.7845 36.6587L43.7205 35.9927L43.6829 36.6635C43.5621 36.6904 43.4694 36.7915 43.4545 36.917L42.7704 36.9792L43.4592 37.0163C43.4843 37.1317 43.5776 37.222 43.6948 37.2435L43.757 37.9299L43.7941 37.2447C43.9166 37.225 44.0153 37.1293 44.038 37.0073Z" fill="white"/>
<path d="M32.9553 18.4C30.1649 19.4846 27.4432 20.4526 25.1467 21.1713C20.48 22.6326 7.71168 26.5883 -0.00132751 31.5749L0.644412 31.826C5.34397 29.1713 8.39867 28.3372 11.335 27.4134C14.5278 26.4089 24.8495 23.9934 29.5233 22.678C31.1024 22.2338 32.9517 21.652 34.9105 20.9441C34.4549 20.3085 33.9742 19.6711 33.4683 19.035C33.2991 18.8203 33.1275 18.6086 32.9553 18.4ZM36.3646 23.0989C35.689 23.5551 35.1227 23.9193 34.7263 24.1489C32.4304 25.4762 21.2369 33.1175 18.6905 34.8753C16.144 36.6332 9.0761 43.3058 6.99539 45.243L6.92364 46.0317C13.6322 40.0048 15.7368 38.5184 18.4035 36.4897C21.7039 33.9785 28.5314 29.3327 30.8519 27.8439C33.0701 26.4209 35.0707 25.1121 36.8662 23.9145C36.8369 23.8654 36.8076 23.8164 36.7784 23.7668C36.6432 23.545 36.5051 23.3225 36.3646 23.0989ZM46.8513 12.0233C43.5831 13.939 38.4322 16.2511 33.4348 18.2128C33.5544 18.3593 33.6734 18.507 33.7918 18.6559C34.3502 19.359 34.877 20.0669 35.3727 20.7755C39.3009 19.3285 43.6112 17.3865 47.0313 15.0362C45.402 16.5799 40.0154 20.6057 36.7311 22.8496C36.9003 23.1252 37.0642 23.4009 37.2226 23.6753C42.1984 20.3456 45.5467 17.8947 47.4976 16.2559C50.1882 13.9958 56.3228 8.9375 58.6546 2.15723C54.5643 7.35962 49.7284 10.3366 46.8513 12.0233Z" fill="#FC3D21"/>
<path d="M24.1753 30.0912C23.6462 29.4251 22.9143 28.533 22.3648 27.8413C21.63 26.9163 20.9502 25.9818 20.3272 25.0484C20.1239 25.0993 19.9212 25.1501 19.7185 25.2009C20.4707 26.3746 21.3059 27.5465 22.216 28.6921C22.8808 29.5292 23.4853 30.203 23.795 30.6221C23.8578 30.707 23.9822 30.8948 24.1502 31.1447C24.3439 31.0132 24.5394 30.8804 24.7367 30.7465C24.546 30.539 24.3577 30.3208 24.1753 30.0912ZM28.0378 33.5973C27.6031 33.186 26.549 32.499 25.4518 31.4682C25.2097 31.6344 24.9651 31.803 24.72 31.9728C25.4285 32.9713 26.3935 34.1976 27.1493 34.5552C28.2877 35.0945 28.5944 34.1247 28.0378 33.5973ZM33.7915 18.6556C27.5182 10.7596 19.8548 6.42183 16.5508 9.04724C13.9846 11.0861 15.0381 17.0448 18.5753 23.3043C18.7583 23.2416 18.9394 23.18 19.1188 23.119C15.5487 17.0203 14.5717 11.3528 16.992 9.4293C20.0336 7.01256 27.3777 11.3671 33.4692 19.0341C34.7302 20.6209 35.8387 22.2138 36.7774 23.7665C40.372 29.7157 41.4752 35.0957 38.9915 37.2918C38.2315 37.9638 35.9092 38.2275 32.8671 36.8583C32.8246 36.9115 32.8928 37.0556 32.946 37.0909C35.572 38.1468 38.0874 38.5492 39.3574 37.5405C42.4091 35.1154 40.0647 26.5516 33.7915 18.6556Z" fill="white"/>
<path d="M6.8868 19.5928H10.9047L14.2769 25.3147C14.2769 25.3147 14.2769 21.1712 14.2769 20.8484C14.2769 20.3461 13.6402 19.6914 13.4159 19.5928C13.685 19.5928 16.0348 19.5928 16.1962 19.5928C16.0258 19.6376 15.4787 20.3013 15.4787 20.8484C15.4787 21.1174 15.4787 27.1264 15.4787 27.4134C15.4787 27.817 16.0617 28.373 16.3397 28.5883H12.4653L9.03926 22.8394C9.03926 22.8394 9.03926 27.1264 9.03926 27.3596C9.03926 27.808 9.47872 28.2385 9.93612 28.6062H6.97648C7.39801 28.4269 7.80159 27.8618 7.83747 27.4134C7.87334 26.965 7.83747 21.1802 7.83747 20.9291C7.83747 20.382 7.30832 19.9336 6.8868 19.5928Z" fill="white"/>
<path d="M43.6401 28.5883H48.9854C48.6895 28.5165 48.3576 28.1668 48.1782 27.7004C47.9989 27.234 45.1648 19.5928 45.1648 19.5928H43.1325C42.5561 20.0077 41.9385 20.4454 41.279 20.9064C41.2772 20.9231 41.2754 20.9399 41.2724 20.956C41.1839 21.4941 39.5935 27.2544 39.4966 27.539C39.3621 27.9336 38.6715 28.373 38.3935 28.6062H41.2724C40.9854 28.2834 40.7522 27.9695 40.806 27.6107C40.8599 27.252 41.0213 26.5345 41.0213 26.5345H43.9989C44.1334 26.8932 44.2339 27.2155 44.2859 27.521C44.3486 27.8887 43.972 28.3013 43.6401 28.5883ZM41.2904 25.3865L42.2948 22.104L43.6222 25.3865H41.2904ZM40.8377 19.9204C40.9854 19.8116 41.1337 19.7022 41.2814 19.5928H40.5011C40.5788 19.6645 40.7074 19.7775 40.8377 19.9204Z" fill="white"/>
<path d="M20.3937 27.6107C20.4475 27.252 20.6089 26.5345 20.6089 26.5345H23.5865C23.721 26.8932 23.8215 27.2155 23.8735 27.521C23.9363 27.8887 23.5596 28.3013 23.2277 28.5883H27.9339C28.0319 28.5225 28.1294 28.4567 28.2268 28.3916C28.0445 28.2301 27.8765 27.988 27.7658 27.7004C27.5865 27.234 24.7524 19.5928 24.7524 19.5928H20.0887C20.3129 19.7991 20.9587 20.3551 20.86 20.956C20.7721 21.4941 19.1811 27.2544 19.0842 27.539C18.9497 27.9336 18.2591 28.373 17.9811 28.6062H20.86C20.573 28.2834 20.3398 27.9695 20.3937 27.6107ZM21.8824 22.104L23.2098 25.3865H20.878L21.8824 22.104Z" fill="white"/>
<path d="M36.6495 24.0579C35.7717 24.6426 34.8456 25.2531 33.8698 25.8905C34.3075 26.1027 34.656 26.3694 34.6895 26.7138C34.7517 27.3607 33.4519 27.6734 32.277 27.5389C32.042 27.512 31.8112 27.4504 31.5912 27.3679C31.3472 27.5251 31.1009 27.6836 30.851 27.8438C30.5969 28.0071 30.2883 28.208 29.9362 28.4399V29.3685C30.1693 28.9111 30.6794 28.5015 31.0752 28.4806C31.2456 28.4716 31.8375 29.0187 34.277 28.8842C35.4608 28.819 37.7478 27.5568 37.7119 26.1039C37.6904 25.2453 37.242 24.5757 36.6495 24.0579ZM29.9356 26.3012V27.2471C30.1514 27.103 30.3643 26.9613 30.5729 26.8232C30.2447 26.5948 30.0121 26.3814 29.9356 26.3012ZM35.8154 23.4642C35.5882 23.3296 35.358 23.2118 35.1374 23.1078C33.9894 22.5697 32.7876 22.471 32.5365 21.7446C32.3595 21.2322 32.8593 20.758 34.0791 20.776C35.2988 20.7939 36.4288 21.5204 36.7338 21.7805V19.4666C36.6441 19.5562 36.2507 20.0077 35.8907 19.9329C35.2001 19.7894 34.0253 19.6023 32.68 19.6101C31.1374 19.619 29.81 20.8112 29.7652 22.3186C29.7024 24.4262 31.3885 25.0002 32.3392 25.332C32.4372 25.3661 32.549 25.4026 32.6704 25.4414C33.5822 24.8483 34.3033 24.3915 34.7254 24.1482C35.0088 23.9849 35.3801 23.7506 35.8154 23.4642Z" fill="white"/>
</g>
<defs>
<clipPath id="clip0_2099_2621">
<rect width="59.2" height="48" fill="white"/>
</clipPath>
</defs>
</svg>
