<svg width="1440" height="234" viewBox="0 0 1440 234" fill="none" xmlns="http://www.w3.org/2000/svg">
<path opacity="0.5" d="M-95.5 81.5C-95.5 81.5 -160.005 121.804 -165 123.8V150H1651.5L1581.5 87.6188L1447 54L1268 101L1001 48L877.646 87.6188C816.877 70.1521 695.089 35.2188 694.09 35.2188C693.091 35.2188 624.58 70.1521 590.45 87.6188L496 54L283 93.8568L161.5 54L21 113.857L-95.5 81.5Z" fill="#1D629B"/>
<path d="M31 74C-51 104 -217 164.8 -225 168V234H1665L1521 59L1387 121.5C1289.67 93.5 1180.1 39 1178.5 39C1176.9 39 985 110 985 110L785 0L561 118L332.5 59L151.5 131.5L31 74Z" fill="#1D629B"/>
</svg>
