<svg width="33" height="48" viewBox="0 0 33 48" fill="none" xmlns="http://www.w3.org/2000/svg">
<path d="M11.9632 39.2458C11.6579 39.2458 11.4034 39.3989 11.3015 39.653L10.0289 42.9617L9.92706 43.3181L9.82546 42.9617L8.80738 39.7548V39.704C8.70552 39.4495 8.45101 39.2458 8.14569 39.2458H6.51671C6.16033 39.2966 5.90581 39.5511 5.90581 39.9585C5.90581 40.0601 5.95662 40.162 5.95662 40.2633L6.16008 40.9761L5.39652 42.9609L5.24386 43.3176L5.142 42.9609L4.17472 39.7543V39.7035H4.12392C4.07312 39.449 3.8186 39.2453 3.51303 39.2453H1.88431C1.52793 39.2961 1.22261 39.5503 1.22261 39.958C1.22261 40.0596 1.27367 40.1615 1.32421 40.2628L3.71649 47.4915C3.81835 47.7963 4.07287 48 4.37844 48C4.68376 48 4.93828 47.7963 5.04014 47.542L6.71992 43.2663L6.87258 42.8591L6.97443 43.2663L8.39969 47.4915C8.45049 47.7963 8.75607 48 9.06139 48C9.36697 48 9.62149 47.7963 9.72334 47.542L12.5739 40.2123C12.6247 40.1107 12.6247 40.0088 12.6247 39.907C12.6249 39.5511 12.3193 39.2458 11.9632 39.2458ZM24.0272 39.2458C23.7219 39.2458 23.4669 39.3989 23.3655 39.653L22.0929 42.9617L21.9913 43.3181L21.8897 42.9617L20.8714 39.7548V39.704C20.7698 39.4495 20.515 39.2458 20.2099 39.2458H18.5807C18.2243 39.2966 17.9698 39.5511 17.9698 39.9585C17.9698 40.0601 17.9698 40.162 18.0206 40.2633L18.2243 40.9761L17.4605 42.9609L17.3076 43.3176L17.206 42.9609L16.2387 39.7543L16.1879 39.7035C16.1371 39.449 15.8826 39.2453 15.5773 39.2453H13.9483C13.5919 39.2961 13.2866 39.5503 13.2866 39.958C13.2866 40.0596 13.3377 40.1615 13.3885 40.2628L15.781 47.4915C15.8826 47.7963 16.1374 48 16.443 48C16.748 48 17.0028 47.7963 17.1044 47.542L18.7847 43.2663L18.9373 42.8591L19.0389 43.2663L20.4647 47.4915C20.5153 47.7963 20.8211 48 21.1262 48C21.4315 48 21.6865 47.7963 21.7881 47.542L24.6384 40.2123C24.6892 40.1107 24.6892 40.0088 24.6892 39.907C24.6889 39.5511 24.3833 39.2458 24.0272 39.2458ZM31.866 39.2458H26.2155C25.8591 39.2458 25.6051 39.5003 25.6051 39.8567V47.3393C25.6557 47.696 25.9102 47.9502 26.2666 47.9502H27.8442C28.2006 47.9502 28.4551 47.696 28.4551 47.3393V43.8274H30.7969C31.1017 43.8274 31.4075 43.5221 31.4075 43.2165C31.4075 42.8601 31.1024 42.5545 30.7969 42.5545H28.4551V40.5697H31.8657C32.2224 40.5697 32.5274 40.2646 32.5274 39.908C32.5277 39.5514 32.2226 39.2458 31.866 39.2458ZM23.1107 15.3217C24.1291 16.4417 24.2304 19.9031 26.8264 18.5286C28.3533 17.7143 28.3533 14.2529 26.2666 12.9803C24.5863 12.013 23.6703 13.3367 23.0594 14.9654C23.0089 15.118 23.0089 15.2199 23.1107 15.3217ZM19.0895 14.7619C17.9698 15.6273 17.2571 18.1215 15.272 17.256C13.6432 16.4417 13.4906 13.2856 16.29 11.8095C18.2243 10.8933 19.1916 12.675 19.1916 14.5582C19.1914 14.609 19.1406 14.7109 19.0895 14.7619ZM21.7365 21.0228C22.8054 20.9212 22.5509 19.9031 21.7365 19.6994C21.0238 19.4449 19.9549 19.2922 19.1406 19.343C17.7661 19.343 17.8172 20.4119 18.5294 20.6156C19.0895 20.7683 19.4454 20.8191 19.9036 21.43C20.311 22.2446 20.1076 21.1754 21.7365 21.0228ZM26.7759 3.30881C28.0993 1.06919 30.4407 1.47637 31.6117 2.59631C32.8846 3.81785 33.1388 5.2431 32.6301 6.21038C31.9681 7.53377 30.2378 9.11195 29.1179 7.58483C28.6093 6.87233 27.5907 6.05772 26.9801 5.854C26.1139 5.44682 25.9615 4.68301 26.7759 3.30881Z" fill="#272728"/>
<path d="M32.1205 13.1329C32.0188 12.7257 31.8149 12.7765 31.8149 13.0821C31.9167 17.1541 29.4737 21.532 24.2817 21.5828C22.9583 21.5828 23.3657 23.67 20.9221 22.6009C19.1913 21.4301 18.1732 23.7716 16.9514 21.2775C16.6461 20.5647 16.2387 20.2594 15.7296 20.1068C10.5884 18.8342 8.95947 11.7587 13.49 6.05766C14.3554 6.61775 14.7116 6.71936 15.6788 5.80314C16.1371 5.3449 17.0022 4.83586 17.4602 4.6832C18.5291 4.27602 19.1402 3.81779 18.1727 1.73083C17.7273 0.74765 17.1205 0.223987 16.4739 0H14.7449C14.2505 0.147127 13.7896 0.389229 13.3879 0.712756C12.0645 1.78163 11.1991 3.46141 12.8275 5.44676C8.24697 8.55179 7.43261 12.3693 7.53421 15.7289C7.63582 19.2411 6.77066 18.9358 7.89059 22.4988C7.9922 22.8043 7.73793 22.8043 7.58527 22.7027C2.80047 19.6485 0.204474 10.2824 7.68713 5.14118C7.83979 4.98852 7.78899 4.78481 7.17809 5.14118C0.713256 8.55179 0.102616 15.169 1.17149 19.6485C1.68053 21.7863 0.916974 22.1937 1.73159 25.0442C3.66588 30.949 5.2946 31.4575 7.63607 31.6107C11.861 31.6107 8.95947 29.2692 9.16319 26.3676C9.16319 26.1636 9.36691 26.1131 9.46851 26.4692C11.81 31.6609 13.439 36.3952 19.5472 35.937C23.0591 35.479 21.1248 33.7482 20.8703 32.7298C18.2746 24.1277 24.586 22.0916 22.8046 30.4902C21.6341 35.3261 25.3498 34.8168 27.9966 33.0862C30.6947 31.3559 34.0547 19.5975 32.1205 13.1329ZM21.8378 23.3642C21.2269 24.8916 18.2238 24.3825 18.1219 22.8554C18.1219 22.8046 18.2238 22.8046 18.2238 22.8554C19.598 23.1607 20.8703 23.3134 21.7357 23.3134C21.787 23.3134 21.8378 23.2626 21.8378 23.3642Z" fill="#272728"/>
<path d="M8.65402 34.2574C8.65368 34.6488 8.49806 35.024 8.22133 35.3008C7.9446 35.5776 7.56935 35.7333 7.17796 35.7337C6.31254 35.7337 5.65084 35.0717 5.65084 34.2574C5.65084 33.4428 6.31254 32.7305 7.17796 32.7305C7.99232 32.7303 8.65402 33.4428 8.65402 34.2574ZM7.17796 32.4757C6.15988 32.4757 5.34552 33.2396 5.34552 34.2571C5.34552 35.2247 6.15988 36.0385 7.17796 36.0385C8.14523 36.0385 8.95934 35.2241 8.95934 34.2571C8.95934 33.2393 8.14498 32.4757 7.17796 32.4757Z" fill="#272728"/>
<path d="M7.68664 34.5118C7.63559 34.7664 7.43213 34.9193 7.22841 34.9193C6.87203 34.9193 6.61751 34.614 6.61751 34.2573C6.61751 33.901 6.82123 33.5959 7.17761 33.5959C7.43212 33.5959 7.63559 33.7485 7.68664 33.9523H7.94116C7.89011 33.5451 7.58478 33.3414 7.17761 33.3414C6.66857 33.3414 6.31219 33.7485 6.31219 34.2573C6.31219 34.7664 6.66857 35.1735 7.22841 35.1735C7.58478 35.1735 7.8393 34.9193 7.94116 34.5118H7.68664ZM32.2218 36.5988C32.2216 36.9903 32.0659 37.3656 31.7891 37.6424C31.5123 37.9192 31.137 38.0748 30.7455 38.0751C29.8801 38.0751 29.2187 37.4134 29.2187 36.5988C29.2187 35.7839 29.8801 35.0714 30.7455 35.0714C31.5596 35.0714 32.2218 35.7842 32.2218 36.5988ZM30.7455 34.8172C29.7272 34.8172 28.9128 35.581 28.9128 36.5988C28.9128 37.5661 29.7272 38.3802 30.7455 38.3802C31.7128 38.3802 32.5269 37.5656 32.5269 36.5988C32.5269 35.5807 31.7125 34.8172 30.7455 34.8172Z" fill="#272728"/>
<path d="M30.4409 36.7008H30.6952L31.1537 37.4646H31.4585L30.9497 36.7008C31.2042 36.6498 31.4077 36.5479 31.4077 36.2426C31.4077 35.8862 31.2042 35.7338 30.797 35.7338H30.1861V37.4646H30.4404L30.4409 36.7008ZM30.4409 36.4974V35.9883H30.7462C30.9497 35.9883 31.1537 35.9883 31.1537 36.1923C31.1537 36.4974 30.9497 36.4974 30.7462 36.4974H30.4409Z" fill="#272728"/>
</svg>
